SplineFontDB: 3.0
FontName: BenchNine-Light
FullName: BenchNine Light
FamilyName: BenchNine
Weight: Light
Copyright: Copyright (c) 2011-12 by vernon adams.
Version: 0.1 ; ttfautohint (v0.92.5-ae1f-dirty) -l 8 -r 60 -G 60 -x 14 -w "gGD"
ItalicAngle: 0
UnderlinePosition: 0
UnderlineWidth: 0
Ascent: 1638
Descent: 410
sfntRevision: 0x00001999
LayerCount: 2
Layer: 0 1 "Back"  1
Layer: 1 1 "Fore"  0
XUID: [1021 332 1330122705 11120423]
FSType: 0
OS2Version: 4
OS2_WeightWidthSlopeOnly: 0
OS2_UseTypoMetrics: 1
CreationTime: 1347993684
ModificationTime: 1348149240
PfmFamily: 17
TTFWeight: 300
TTFWidth: 5
LineGap: 0
VLineGap: 0
Panose: 2 0 3 3 0 0 0 0 0 0
OS2TypoAscent: 2020
OS2TypoAOffset: 0
OS2TypoDescent: -720
OS2TypoDOffset: 0
OS2TypoLinegap: 0
OS2WinAscent: 2020
OS2WinAOffset: 0
OS2WinDescent: 720
OS2WinDOffset: 0
HheadAscent: 2020
HheadAOffset: 0
HheadDescent: -720
HheadDOffset: 0
OS2SubXSize: 1331
OS2SubYSize: 1433
OS2SubXOff: 0
OS2SubYOff: 286
OS2SupXSize: 1331
OS2SupYSize: 1433
OS2SupXOff: 0
OS2SupYOff: 983
OS2StrikeYSize: 102
OS2StrikeYPos: 530
OS2Vendor: 'newt'
OS2CodePages: 00000093.00000000
OS2UnicodeRanges: a00000ef.4000204a.00000000.00000000
Lookup: 258 0 0 "'kern' Horizontal Kerning in Latin lookup 0"  {"'kern' Horizontal Kerning in Latin lookup 0 subtable"  } ['kern' ('DFLT' <'dflt' > 'latn' <'dflt' > ) ]
MarkAttachClasses: 1
DEI: 91125
KernClass2: 23 27 "'kern' Horizontal Kerning in Latin lookup 0 subtable" 
 89 A Agrave Aacute Acircumflex Atilde Adieresis Aring Amacron Abreve Aogonek uni0200 uni0202
 16 D Dcaron uni1E0A
 9 F uni1E1E
 14 K Kcommaaccent
 28 L Lacute Lcommaaccent Lcaron
 89 O Ograve Oacute Ocircumflex Otilde Odieresis Omacron Obreve Ohungarumlaut uni020C uni020E
 9 P uni1E56
 44 R Racute Rcommaaccent Rcaron uni0210 uni0212
 24 T Tcaron uni021A uni1E6A
 1 V
 37 W Wcircumflex Wgrave Wacute Wdieresis
 9 b uni1E03
 9 f uni1E1F
 52 g gcircumflex gbreve gdotaccent gcommaaccent uni01F5
 14 k kcommaaccent

StartChar: .notdef
Encoding: 65536 -1 0
Width: 349
Flags: MW
LayerCount: 2
Fore
SplineSet
35 -299 m 1,0,-1
 314 -299 l 1,1,-1
 314 1475 l 1,2,-1
 35 1475 l 1,3,-1
 35 -299 l 1,0,-1
70 -197 m 1,4,-1
 70 1373 l 1,5,-1
 280 1373 l 1,6,-1
 280 -197 l 1,7,-1
 70 -197 l 1,4,-1
EndSplineSet
EndChar

StartChar: exclam
Encoding: 33 33 4
Width: 322
GlyphClass: 2
Flags: MW
LayerCount: 2
Fore
SplineSet
125 1458 m 2,0,1
 98 1458 98 1458 98 1398 c 2,2,-1
 98 1389 l 1,3,-1
 137 457 l 2,4,5
 140 400 140 400 145 394 c 128,-1,6
 150 388 150 388 155 388 c 2,7,-1
 168 388 l 2,8,9
 178 388 178 388 181 403 c 128,-1,10
 184 418 184 418 186 457 c 2,11,-1
 224 1389 l 1,12,-1
 224 1397 l 2,13,14
 224 1424 224 1424 215.5 1441 c 128,-1,15
 207 1458 207 1458 196 1458 c 2,16,-1
 125 1458 l 2,0,1
116 0 m 2,17,-1
 208 0 l 2,18,19
 234 0 234 0 234 55 c 2,20,-1
 234 164 l 2,21,22
 234 219 234 219 208 219 c 2,23,-1
 116 219 l 2,24,25
 90 219 90 219 90 164 c 2,26,-1
 90 55 l 2,27,28
 90 0 90 0 116 0 c 2,17,-1
EndSplineSet
EndChar

StartChar: quotedbl
Encoding: 34 34 5
Width: 426
GlyphClass: 2
Flags: MW
LayerCount: 2
Fore
SplineSet
367 1393 m 2,0,1
 367 1458 367 1458 344 1458 c 2,2,-1
 282 1458 l 2,3,4
 272 1458 272 1458 264.5 1439.5 c 128,-1,5
 257 1421 257 1421 257 1397 c 2,6,-1
 257 1389 l 1,7,-1
 286 861 l 2,8,9
 289 800 289 800 304 800 c 2,10,-1
 323 800 l 2,11,12
 337 800 337 800 338.5 821 c 128,-1,13
 340 842 340 842 341 861 c 2,14,-1
 367 1388 l 1,15,-1
 367 1393 l 2,0,1
167 1393 m 2,16,17
 167 1458 167 1458 144 1458 c 2,18,-1
 81 1458 l 2,19,20
 71 1458 71 1458 64 1439.5 c 128,-1,21
 57 1421 57 1421 57 1397 c 2,22,-1
 57 1389 l 1,23,-1
 86 861 l 2,24,25
 89 800 89 800 104 800 c 2,26,-1
 123 800 l 2,27,28
 137 800 137 800 138.5 821 c 128,-1,29
 140 842 140 842 141 861 c 2,30,-1
 167 1388 l 1,31,-1
 167 1393 l 2,16,17
EndSplineSet
EndChar

StartChar: numbersign
Encoding: 35 35 6
Width: 691
GlyphClass: 2
Flags: MW
LayerCount: 2
Fore
SplineSet
265 407 m 1,0,-1
 303 893 l 1,1,-1
 456 893 l 1,2,-1
 419 407 l 1,3,-1
 265 407 l 1,0,-1
95 345 m 2,4,5
 95 304 95 304 118 304 c 2,6,-1
 181 304 l 1,7,-1
 147 -156 l 1,8,9
 145 -169 145 -169 148 -180 c 128,-1,10
 151 -191 151 -191 155 -191 c 2,11,-1
 203 -191 l 2,12,13
 217 -191 217 -191 220 -156 c 2,14,-1
 255 304 l 1,15,-1
 409 304 l 1,16,-1
 374 -156 l 2,17,18
 372 -191 372 -191 382 -191 c 2,19,-1
 430 -191 l 2,20,21
 443 -191 443 -191 446 -156 c 2,22,-1
 481 304 l 1,23,-1
 565 304 l 2,24,25
 578 304 578 304 583 312 c 128,-1,26
 588 320 588 320 588 345 c 2,27,-1
 588 366 l 2,28,29
 588 407 588 407 561 407 c 2,30,-1
 492 407 l 1,31,-1
 529 893 l 1,32,-1
 607 893 l 2,33,34
 618 893 618 893 622 901 c 128,-1,35
 626 909 626 909 626 934 c 2,36,-1
 626 957 l 2,37,38
 626 998 626 998 604 998 c 2,39,-1
 540 998 l 1,40,-1
 584 1518 l 2,41,42
 587 1553 587 1553 577 1553 c 2,43,-1
 529 1553 l 2,44,45
 515 1553 515 1553 513 1518 c 1,46,-1
 468 998 l 1,47,-1
 314 998 l 1,48,-1
 358 1518 l 2,49,50
 360 1553 360 1553 350 1553 c 2,51,-1
 300 1553 l 2,52,53
 286 1553 286 1553 284 1518 c 2,54,-1
 240 998 l 1,55,-1
 156 998 l 2,56,57
 134 998 134 998 134 957 c 2,58,-1
 134 934 l 2,59,60
 134 893 134 893 159 893 c 2,61,-1
 229 893 l 1,62,-1
 191 407 l 1,63,-1
 114 407 l 2,64,65
 102 407 102 407 98.5 399.5 c 128,-1,66
 95 392 95 392 95 366 c 2,67,-1
 95 345 l 2,4,5
EndSplineSet
EndChar

StartChar: percent
Encoding: 37 37 8
Width: 1009
GlyphClass: 2
Flags: MW
LayerCount: 2
Fore
SplineSet
675.5 99 m 128,-1,1
 717 -1 717 -1 795.5 -1 c 128,-1,2
 874 -1 874 -1 915 99 c 128,-1,3
 956 199 956 199 956 387 c 128,-1,4
 956 575 956 575 915.5 676.5 c 128,-1,5
 875 778 875 778 795.5 778 c 128,-1,6
 716 778 716 778 675 676.5 c 128,-1,7
 634 575 634 575 634 387 c 128,-1,0
 634 199 634 199 675.5 99 c 128,-1,1
796 694 m 0,8,9
 884 694 884 694 884 388.5 c 128,-1,10
 884 83 884 83 796 83 c 0,11,12
 754 83 754 83 730 165 c 128,-1,13
 706 247 706 247 706 388.5 c 128,-1,14
 706 530 706 530 729 612 c 128,-1,15
 752 694 752 694 796 694 c 0,8,9
83.5 763.5 m 128,-1,17
 125 664 125 664 203.5 664 c 128,-1,18
 282 664 282 664 323 763.5 c 128,-1,19
 364 863 364 863 364 1051 c 128,-1,20
 364 1239 364 1239 323.5 1340.5 c 128,-1,21
 283 1442 283 1442 203.5 1442 c 128,-1,22
 124 1442 124 1442 83 1340.5 c 128,-1,23
 42 1239 42 1239 42 1051 c 128,-1,16
 42 863 42 863 83.5 763.5 c 128,-1,17
114 1052 m 0,24,25
 114 1358 114 1358 203 1358 c 128,-1,26
 292 1358 292 1358 292 1052 c 0,27,28
 292 911 292 911 269.5 829.5 c 128,-1,29
 247 748 247 748 204 748 c 128,-1,30
 161 748 161 748 137.5 830 c 128,-1,31
 114 912 114 912 114 1052 c 0,24,25
347 -33 m 0,32,33
 347 -82 347 -82 364 -82 c 2,34,-1
 385 -82 l 2,35,36
 411 -82 411 -82 421 -12 c 2,37,-1
 644 1466 l 2,38,39
 646 1480 646 1480 646 1488 c 0,40,41
 646 1536 646 1536 629 1536 c 2,42,-1
 609 1536 l 2,43,44
 581 1536 581 1536 572 1466 c 1,45,-1
 349 -12 l 2,46,47
 347 -26 347 -26 347 -33 c 0,32,33
EndSplineSet
EndChar

StartChar: ampersand
Encoding: 38 38 9
Width: 1074
GlyphClass: 2
Flags: MW
LayerCount: 2
Fore
SplineSet
701 251 m 1,0,1
 667 80 667 80 474 80 c 1,2,3
 354 80 354 80 286 200 c 0,4,5
 244 275 244 275 243.5 416.5 c 128,-1,6
 243 558 243 558 301.5 634 c 128,-1,7
 360 710 360 710 439 711 c 1,8,-1
 682 711 l 2,9,10
 697 711 697 711 697 683 c 0,11,12
 699 287 699 287 701 251 c 1,0,1
1005 775 m 2,13,14
 1005 814 1005 814 974 814 c 2,15,-1
 825 814 l 2,16,17
 811 814 811 814 811 844 c 2,18,-1
 811 1354 l 2,19,20
 811 1408 811 1408 784 1408 c 2,21,-1
 730 1408 l 2,22,23
 700 1408 700 1408 699 1354 c 2,24,-1
 697 844 l 2,25,26
 697 814 697 814 682 814 c 2,27,-1
 429 814 l 2,28,29
 340 814 340 814 290.5 889 c 128,-1,30
 241 964 241 964 241 1065 c 128,-1,31
 241 1166 241 1166 257.5 1222 c 128,-1,32
 274 1278 274 1278 302 1307 c 0,33,34
 355 1361 355 1361 431 1361 c 0,35,36
 478 1361 478 1361 511 1348 c 128,-1,37
 544 1335 544 1335 552 1340.5 c 128,-1,38
 560 1346 560 1346 560 1361 c 2,39,-1
 562 1400 l 1,40,41
 565 1424 565 1424 536 1437 c 0,42,43
 484 1459 484 1459 402 1459 c 0,44,45
 280 1459 280 1459 203 1368.5 c 128,-1,46
 126 1278 126 1278 126 1086 c 0,47,48
 126 912 126 912 214 819 c 0,49,50
 259 771 259 771 315 756 c 1,51,52
 245 735 245 735 186.5 641 c 128,-1,53
 128 547 128 547 128 422.5 c 128,-1,54
 128 298 128 298 154 211.5 c 128,-1,55
 180 125 180 125 228 77 c 0,56,57
 319 -14 319 -14 465 -14 c 0,58,59
 655 -14 655 -14 735 129 c 1,60,61
 748 59 748 59 795 22 c 128,-1,62
 842 -15 842 -15 903.5 -15 c 128,-1,63
 965 -15 965 -15 1021 23 c 0,64,65
 1040 36 1040 36 1040 50.5 c 128,-1,66
 1040 65 1040 65 1039 68 c 2,67,-1
 1036 95 l 1,68,69
 1027 133 1027 133 1004 114 c 1,70,71
 963 84 963 84 922 84 c 0,72,73
 811 84 811 84 811 329 c 2,74,-1
 811 682 l 2,75,76
 811 711 811 711 825 711 c 2,77,-1
 974 711 l 2,78,79
 1005 711 1005 711 1005 754 c 2,80,-1
 1005 775 l 2,13,14
EndSplineSet
EndChar

StartChar: quotesingle
Encoding: 39 39 10
Width: 374
GlyphClass: 2
Flags: MW
LayerCount: 2
Fore
SplineSet
241 1393 m 2,0,1
 241 1458 241 1458 218 1458 c 2,2,-1
 156 1458 l 2,3,4
 146 1458 146 1458 139 1440 c 128,-1,5
 132 1422 132 1422 132 1399 c 2,6,-1
 132 1389 l 1,7,-1
 160 861 l 2,8,9
 163 800 163 800 178 800 c 2,10,-1
 197 800 l 2,11,12
 211 800 211 800 212.5 821 c 128,-1,13
 214 842 214 842 215 861 c 2,14,-1
 241 1388 l 1,15,-1
 241 1393 l 2,0,1
EndSplineSet
EndChar

StartChar: parenleft
Encoding: 40 40 11
Width: 398
GlyphClass: 2
Flags: MW
LayerCount: 2
Fore
SplineSet
282 -143 m 0,0,1
 283 -144 283 -144 285 -144 c 0,2,3
 294 -144 294 -144 301 -122 c 128,-1,4
 308 -100 308 -100 308 -73 c 2,5,-1
 308 -39 l 2,6,7
 308 -22 308 -22 306.5 -9 c 128,-1,8
 305 4 305 4 304.5 11.5 c 128,-1,9
 304 19 304 19 299.5 28.5 c 128,-1,10
 295 38 295 38 294 40 c 0,11,12
 287 54 287 54 275 66 c 1,13,14
 190 194 190 194 190 699 c 0,15,16
 190 1222 190 1222 284 1344 c 0,17,18
 305 1371 305 1371 306.5 1394 c 128,-1,19
 308 1417 308 1417 308 1434 c 2,20,-1
 308 1470 l 2,21,22
 308 1497 308 1497 301 1519 c 128,-1,23
 294 1541 294 1541 285 1541 c 0,24,25
 283 1541 283 1541 282 1540 c 0,26,27
 141 1466 141 1466 106 990 c 0,28,29
 96 856 96 856 96 699 c 128,-1,30
 96 542 96 542 106 407.5 c 0,31,32
 116 272 116 272 137 156 c 0,33,34
 182 -92 182 -92 282 -143 c 0,0,1
EndSplineSet
EndChar

StartChar: parenright
Encoding: 41 41 12
Width: 403
GlyphClass: 2
Flags: MW
LayerCount: 2
Fore
SplineSet
118 -143 m 0,0,1
 184 -109 184 -109 228 19 c 0,2,3
 306 247 306 247 305 698 c 0,4,5
 306 1148 306 1148 228 1376 c 0,6,7
 184 1504 184 1504 118 1540 c 0,8,9
 117 1541 117 1541 115 1541 c 0,10,11
 106 1541 106 1541 98.5 1518.5 c 128,-1,12
 91 1496 91 1496 91 1470 c 2,13,-1
 91 1436 l 2,14,15
 91 1389 91 1389 99 1373 c 128,-1,16
 107 1357 107 1357 114.5 1346.5 c 128,-1,17
 122 1336 122 1336 125 1331 c 0,18,19
 210 1206 210 1206 210 699 c 128,-1,20
 210 192 210 192 125 67 c 1,21,22
 96 31 96 31 93.5 7 c 128,-1,23
 91 -17 91 -17 91 -37 c 2,24,-1
 91 -73 l 2,25,26
 91 -99 91 -99 98.5 -121.5 c 128,-1,27
 106 -144 106 -144 115 -144 c 0,28,29
 117 -144 117 -144 118 -143 c 0,0,1
EndSplineSet
EndChar

StartChar: asterisk
Encoding: 42 42 13
Width: 709
GlyphClass: 2
Flags: MW
LayerCount: 2
Fore
SplineSet
321 698 m 1,0,1
 184 515 184 515 184 460 c 0,2,3
 184 443 184 443 204.5 432.5 c 128,-1,4
 225 422 225 422 245.5 422 c 128,-1,5
 266 422 266 422 269 431 c 2,6,-1
 353 667 l 1,7,-1
 472 467 l 2,8,9
 485 447 485 447 505 447 c 128,-1,10
 525 447 525 447 541.5 461.5 c 128,-1,11
 558 476 558 476 558 491 c 128,-1,12
 558 506 558 506 549 517 c 2,13,-1
 388 698 l 1,14,-1
 564 743 l 2,15,16
 604 753 604 753 604 790 c 0,17,18
 604 812 604 812 589.5 830 c 128,-1,19
 575 848 575 848 561 848 c 128,-1,20
 547 848 547 848 537 843 c 1,21,-1
 379 743 l 1,22,23
 400 999 400 999 400 1001 c 0,24,25
 400 1046 400 1046 355 1046 c 0,26,27
 335 1046 335 1046 322 1033.5 c 128,-1,28
 309 1021 309 1021 309 989.5 c 128,-1,29
 309 958 309 958 313 917.5 c 128,-1,30
 317 877 317 877 325 822.5 c 128,-1,31
 333 768 333 768 336 743 c 1,32,33
 326 750 326 750 280 786 c 0,34,35
 162 878 162 878 142 878 c 128,-1,36
 122 878 122 878 110.5 858.5 c 128,-1,37
 99 839 99 839 99 815 c 0,38,39
 99 764 99 764 135 753 c 2,40,-1
 321 698 l 1,0,1
EndSplineSet
EndChar

StartChar: plus
Encoding: 43 43 14
Width: 801
GlyphClass: 2
Flags: MW
LayerCount: 2
Fore
SplineSet
347 563 m 2,0,1
 362 563 362 563 362 541 c 2,2,-1
 362 343 l 2,3,4
 362 315 362 315 370 306.5 c 128,-1,5
 378 298 378 298 395 298 c 2,6,-1
 427 298 l 2,7,8
 443 298 443 298 450.5 306.5 c 128,-1,9
 458 315 458 315 458 343 c 2,10,-1
 458 541 l 2,11,12
 458 563 458 563 475 563 c 2,13,-1
 660 563 l 2,14,15
 691 563 691 563 691 600 c 2,16,-1
 691 615 l 2,17,18
 691 652 691 652 660 652 c 2,19,-1
 475 652 l 2,20,21
 458 652 458 652 458 674 c 2,22,-1
 458 867 l 2,23,24
 458 895 458 895 450.5 903.5 c 128,-1,25
 443 912 443 912 427 912 c 2,26,-1
 395 912 l 2,27,28
 378 912 378 912 370 903.5 c 128,-1,29
 362 895 362 895 362 867 c 2,30,-1
 362 674 l 2,31,32
 362 652 362 652 347 652 c 2,33,-1
 159 652 l 2,34,35
 139 652 139 652 133.5 641.5 c 128,-1,36
 128 631 128 631 128 615 c 2,37,-1
 128 600 l 2,38,39
 128 563 128 563 159 563 c 2,40,-1
 347 563 l 2,0,1
EndSplineSet
EndChar

StartChar: comma
Encoding: 44 44 15
Width: 323
GlyphClass: 2
Flags: MW
LayerCount: 2
Fore
SplineSet
206 142 m 2,0,1
 206 215 206 215 180 215 c 2,2,-1
 104 215 l 2,3,4
 91 215 91 215 80.5 198.5 c 128,-1,5
 70 182 70 182 70 152 c 2,6,-1
 70 52 l 2,7,8
 70 0 70 0 91 0 c 2,9,-1
 129 0 l 2,10,11
 135 0 135 0 135 -28 c 128,-1,12
 135 -56 135 -56 124.5 -102.5 c 128,-1,13
 114 -149 114 -149 103.5 -166 c 128,-1,14
 93 -183 93 -183 88.5 -189.5 c 128,-1,15
 84 -196 84 -196 82 -199 c 128,-1,16
 80 -202 80 -202 78 -208 c 0,17,18
 75 -216 75 -216 75 -234 c 2,19,-1
 75 -246 l 2,20,21
 75 -285 75 -285 91 -285 c 0,22,23
 94 -285 94 -285 98 -283 c 0,24,25
 141 -262 141 -262 173.5 -171.5 c 128,-1,26
 206 -81 206 -81 206 81 c 2,27,-1
 206 142 l 2,0,1
EndSplineSet
EndChar

StartChar: hyphen
Encoding: 45 45 16
Width: 410
GlyphClass: 2
Flags: MW
LayerCount: 2
Fore
SplineSet
75 561 m 2,0,-1
 330 561 l 2,1,2
 355 561 355 561 355 616 c 2,3,-1
 355 623 l 2,4,5
 355 678 355 678 330 678 c 2,6,-1
 75 678 l 2,7,8
 52 678 52 678 52 623 c 2,9,-1
 52 616 l 2,10,11
 52 561 52 561 75 561 c 2,0,-1
EndSplineSet
EndChar

StartChar: period
Encoding: 46 46 17
Width: 303
GlyphClass: 2
Flags: MW
LayerCount: 2
Fore
SplineSet
108 0 m 2,0,-1
 200 0 l 2,1,2
 226 0 226 0 226 55 c 2,3,-1
 226 164 l 2,4,5
 226 219 226 219 200 219 c 2,6,-1
 108 219 l 2,7,8
 81 219 81 219 81 164 c 2,9,-1
 81 55 l 2,10,11
 81 0 81 0 108 0 c 2,0,-1
EndSplineSet
EndChar

StartChar: slash
Encoding: 47 47 18
Width: 490
GlyphClass: 2
Flags: MW
LayerCount: 2
Fore
SplineSet
77 -170 m 1,0,-1
 76 -179 l 1,1,2
 76 -205 76 -205 85 -205 c 2,3,-1
 167 -205 l 2,4,5
 178 -205 178 -205 183 -170 c 2,6,-1
 417 1612 l 1,7,-1
 417 1620 l 2,8,9
 417 1647 417 1647 409 1647 c 2,10,-1
 328 1647 l 2,11,12
 313 1647 313 1647 311 1612 c 1,13,-1
 77 -170 l 1,0,-1
EndSplineSet
EndChar

StartChar: zero
Encoding: 48 48 19
Width: 820
GlyphClass: 2
Flags: MW
LayerCount: 2
Fore
SplineSet
308 2 m 0,0,1
 354 -20 354 -20 417 -20 c 128,-1,2
 480 -20 480 -20 534.5 16 c 0,3,4
 590 52 590 52 634 134 c 0,5,6
 726 304 726 304 725 729 c 0,7,8
 725 1345 725 1345 510 1436 c 0,9,10
 465 1455 465 1455 408.5 1455 c 128,-1,11
 352 1455 352 1455 307 1435.5 c 128,-1,12
 262 1416 262 1416 221 1366 c 128,-1,13
 180 1316 180 1316 152 1236 c 0,14,15
 92 1063 92 1063 93 729 c 0,16,17
 94 103 94 103 308 2 c 0,0,1
410 74 m 0,18,19
 338 74 338 74 294 136 c 0,20,21
 204 263 204 263 204 729 c 0,22,23
 204 1178 204 1178 292 1300 c 0,24,25
 336 1362 336 1362 408.5 1362 c 128,-1,26
 481 1362 481 1362 525 1301 c 0,27,28
 613 1179 613 1179 613 729 c 0,29,30
 612 262 612 262 524 136 c 0,31,32
 480 74 480 74 410 74 c 0,18,19
EndSplineSet
EndChar

StartChar: one
Encoding: 49 49 20
Width: 450
GlyphClass: 2
Flags: MW
LayerCount: 2
Fore
SplineSet
223 0 m 2,0,-1
 290 0 l 2,1,2
 313 0 313 0 313 67 c 2,3,-1
 313 1399 l 2,4,5
 313 1437 313 1437 295 1437 c 0,6,7
 288 1437 288 1437 277 1434 c 2,8,-1
 94 1383 l 2,9,10
 72 1376 72 1376 72 1356 c 2,11,-1
 72 1302 l 2,12,13
 72 1281 72 1281 77.5 1275.5 c 128,-1,14
 83 1270 83 1270 94 1273 c 2,15,-1
 187 1297 l 2,16,17
 194 1299 194 1299 197.5 1293.5 c 128,-1,18
 201 1288 201 1288 201 1274 c 2,19,-1
 201 67 l 2,20,21
 201 0 201 0 223 0 c 2,0,-1
EndSplineSet
EndChar

StartChar: two
Encoding: 50 50 21
Width: 759
GlyphClass: 2
Flags: MW
LayerCount: 2
Fore
SplineSet
204 463 m 0,0,1
 106 300 106 300 106 52 c 0,2,3
 106 0 106 0 130 0 c 2,4,-1
 616 0 l 2,5,6
 628 0 628 0 632.5 6 c 128,-1,7
 637 12 637 12 637 33 c 2,8,-1
 637 52 l 2,9,10
 637 87 637 87 617 87 c 2,11,-1
 220 87 l 2,12,13
 218 88 218 88 216 110 c 0,14,15
 215 122 215 122 216 133 c 0,16,17
 216 206 216 206 245 291 c 0,18,19
 279 389 279 389 320.5 454.5 c 128,-1,20
 362 520 362 520 411 583.5 c 128,-1,21
 460 647 460 647 508 708 c 128,-1,22
 556 769 556 769 595 830 c 0,23,24
 683 968 683 968 683 1114 c 0,25,26
 682 1376 682 1376 490 1436 c 0,27,28
 438 1452 438 1452 364 1452 c 0,29,30
 236 1452 236 1452 79 1388 c 1,31,32
 73 1384 73 1384 73 1368 c 0,33,34
 73 1325 73 1325 95 1300 c 1,35,36
 97 1290 97 1290 103 1296 c 1,37,38
 121 1302 121 1302 162 1317.5 c 0,39,40
 204 1333 204 1333 224 1339 c 0,41,42
 289 1358 289 1358 372 1358 c 0,43,44
 575 1358 575 1358 575 1102 c 0,45,46
 576 966 576 966 484 836 c 0,47,48
 444 778 444 778 394 720 c 0,49,50
 270 572 270 572 204 463 c 0,0,1
EndSplineSet
EndChar

StartChar: three
Encoding: 51 51 22
Width: 692
GlyphClass: 2
Flags: MW
LayerCount: 2
Fore
SplineSet
86 119 m 1,0,1
 74 119 74 119 74 79.5 c 128,-1,2
 74 40 74 40 87 31 c 1,3,4
 161 -13 161 -13 292 -13 c 0,5,6
 619 -13 619 -13 619 371 c 0,7,8
 619 699 619 699 413 735 c 1,9,10
 512 763 512 763 560 841.5 c 128,-1,11
 608 920 608 920 608 1062 c 0,12,13
 608 1452 608 1452 307 1452 c 0,14,15
 181 1452 181 1452 84 1396 c 0,16,17
 68 1386 68 1386 68 1364.5 c 128,-1,18
 68 1343 68 1343 72 1326.5 c 128,-1,19
 76 1310 76 1310 79 1310 c 1,20,21
 80 1304 80 1304 81.5 1302.5 c 128,-1,22
 83 1301 83 1301 86 1303 c 0,23,24
 178 1358 178 1358 289 1358 c 128,-1,25
 400 1358 400 1358 449 1289.5 c 128,-1,26
 498 1221 498 1221 498 1065 c 128,-1,27
 498 909 498 909 445 848 c 128,-1,28
 392 787 392 787 266 787 c 0,29,30
 245 787 245 787 245 762 c 2,31,-1
 245 710 l 2,32,33
 245 695 245 695 249 689 c 128,-1,34
 253 683 253 683 266 683 c 2,35,-1
 302 683 l 1,36,37
 410 678 410 678 461 614 c 0,38,39
 513 549 513 549 513 384 c 0,40,41
 513 224 513 224 459 152 c 0,42,43
 405 80 405 80 289.5 80 c 128,-1,44
 174 80 174 80 93 126 c 1,45,46
 90 129 90 129 88.5 127 c 128,-1,47
 87 125 87 125 86 119 c 1,0,1
EndSplineSet
EndChar

StartChar: four
Encoding: 52 52 23
Width: 861
GlyphClass: 2
Flags: MW
LayerCount: 2
Fore
SplineSet
577 1438 m 2,0,1
 542 1438 542 1438 542 1385 c 2,2,-1
 542 390 l 1,3,-1
 248 390 l 2,4,5
 226 390 226 390 229 413 c 2,6,-1
 344 1371 l 2,7,8
 346 1383 346 1383 346 1393 c 0,9,10
 346 1438 346 1438 318 1438 c 2,11,-1
 279 1438 l 2,12,13
 262 1438 262 1438 254.5 1422.5 c 128,-1,14
 247 1407 247 1407 242 1371 c 2,15,-1
 107 351 l 2,16,17
 106 347 106 347 106 329.5 c 128,-1,18
 106 312 106 312 123.5 298 c 128,-1,19
 141 284 141 284 168 284 c 2,20,-1
 542 284 l 1,21,-1
 542 51 l 2,22,23
 542 21 542 21 550 10.5 c 128,-1,24
 558 0 558 0 577 0 c 2,25,-1
 614 0 l 2,26,27
 633 0 633 0 641 10.5 c 128,-1,28
 649 21 649 21 649 51 c 2,29,-1
 649 284 l 1,30,-1
 810 284 l 2,31,32
 840 284 840 284 851 292 c 128,-1,33
 862 300 862 300 862 326 c 2,34,-1
 862 349 l 2,35,36
 862 375 862 375 851.5 382.5 c 128,-1,37
 841 390 841 390 810 390 c 2,38,-1
 649 390 l 1,39,-1
 649 1385 l 2,40,41
 649 1438 649 1438 614 1438 c 2,42,-1
 577 1438 l 2,0,1
EndSplineSet
EndChar

StartChar: five
Encoding: 53 53 24
Width: 880
GlyphClass: 2
Flags: MW
LayerCount: 2
Fore
SplineSet
282.5 4.5 m 0,0,1
 388 -12 388 -12 440 -13 c 0,2,3
 444 -13 444 -13 448 -13 c 0,4,5
 496 -13 496 -13 548 -1 c 0,6,7
 604 12 604 12 652.5 44.5 c 0,8,9
 701 76 701 76 733 130 c 0,10,11
 801 244 801 244 801 465 c 0,12,13
 802 812 802 812 642 898 c 0,14,15
 582 930 582 930 495 931 c 0,16,17
 329 931 329 931 227 794 c 1,18,-1
 227 1290 l 2,19,20
 227 1314 227 1314 231.5 1321.5 c 128,-1,21
 236 1329 236 1329 248 1329 c 2,22,-1
 734 1329 l 2,23,24
 747 1329 747 1329 748 1372 c 2,25,-1
 749 1408 l 2,26,27
 749 1438 749 1438 721 1438 c 2,28,-1
 153 1438 l 2,29,30
 136 1438 136 1438 130.5 1427 c 128,-1,31
 125 1416 125 1416 125 1390 c 2,32,-1
 125 1378 l 1,33,-1
 143 758 l 1,34,-1
 143 747 l 1,35,-1
 144 720 l 2,36,37
 146 678 146 678 168 678 c 2,38,-1
 197 678 l 2,39,40
 218 678 218 678 255.5 718 c 128,-1,41
 293 758 293 758 320 782 c 0,42,43
 384 839 384 839 457.5 839 c 128,-1,44
 531 839 531 839 572 817 c 128,-1,45
 613 795 613 795 636.5 761 c 128,-1,46
 660 727 660 727 674 675 c 0,47,48
 696 592 696 592 695.5 486.5 c 128,-1,49
 695 381 695 381 681 314 c 0,50,51
 667 248 667 248 636 194 c 0,52,53
 571 83 571 83 414 82 c 0,54,55
 324 82 324 82 264 100.5 c 128,-1,56
 204 119 204 119 191.5 123 c 0,57,58
 180 128 180 128 168 132 c 0,59,60
 151 138 151 138 146 138 c 0,61,62
 129 138 129 138 129 84 c 0,63,64
 129 76 129 76 135 58.5 c 128,-1,65
 141 41 141 41 149 36 c 0,66,67
 176 21 176 21 282.5 4.5 c 0,0,1
EndSplineSet
EndChar

StartChar: six
Encoding: 54 54 25
Width: 795
GlyphClass: 2
Flags: MW
LayerCount: 2
Fore
SplineSet
408 81 m 0,0,1
 295 81 295 81 252 212 c 128,-1,2
 209 343 209 343 209 665 c 2,3,-1
 209 721 l 1,4,5
 334 768 334 768 404.5 768 c 128,-1,6
 475 768 475 768 512.5 741 c 128,-1,7
 550 714 550 714 568 664 c 0,8,9
 602 574 602 574 602 437.5 c 128,-1,10
 602 301 602 301 578.5 221 c 128,-1,11
 555 141 555 141 514.5 111 c 128,-1,12
 474 81 474 81 408 81 c 0,0,1
132 1158.5 m 128,-1,14
 94 997 94 997 94 797 c 128,-1,15
 94 597 94 597 99.5 503 c 128,-1,16
 105 409 105 409 117.5 323 c 128,-1,17
 130 237 130 237 153 177.5 c 128,-1,18
 176 118 176 118 210 74 c 0,19,20
 276 -12 276 -12 404 -13 c 0,21,22
 582 -13 582 -13 654 119 c 0,23,24
 712 227 712 227 713 431 c 0,25,26
 713 746 713 746 567 830 c 0,27,28
 509 864 509 864 422.5 864 c 128,-1,29
 336 864 336 864 212 816 c 1,30,-1
 212 854 l 2,31,32
 212 1126 212 1126 267.5 1242 c 128,-1,33
 323 1358 323 1358 447 1358 c 0,34,35
 506 1358 506 1358 538 1343 c 128,-1,36
 570 1328 570 1328 582.5 1321 c 128,-1,37
 595 1314 595 1314 600 1310.5 c 128,-1,38
 605 1307 605 1307 616 1299 c 128,-1,39
 627 1291 627 1291 629 1290 c 0,40,41
 644 1279 644 1279 653 1306 c 0,42,43
 655 1310 655 1310 657.5 1326.5 c 128,-1,44
 660 1343 660 1343 659.5 1356.5 c 128,-1,45
 659 1370 659 1370 637 1389.5 c 128,-1,46
 615 1409 615 1409 557 1430.5 c 128,-1,47
 499 1452 499 1452 438 1452 c 0,48,49
 317 1452 317 1452 243.5 1386 c 128,-1,13
 170 1320 170 1320 132 1158.5 c 128,-1,14
EndSplineSet
EndChar

StartChar: seven
Encoding: 55 55 26
Width: 499
GlyphClass: 2
Flags: MW
LayerCount: 2
Fore
SplineSet
107 1438 m 2,0,1
 84 1438 84 1438 84 1411 c 2,2,-1
 84 1366 l 2,3,4
 84 1346 84 1346 89 1340.5 c 128,-1,5
 94 1335 94 1335 107 1335 c 2,6,-1
 281 1335 l 2,7,8
 292 1335 292 1335 291 1320 c 2,9,-1
 169 51 l 2,10,11
 168 46 168 46 168 36 c 0,12,13
 168 0 168 0 192 0 c 2,14,-1
 257 0 l 2,15,16
 276 0 276 0 281 51 c 2,17,-1
 414 1389 l 2,18,19
 415 1395 415 1395 415 1406 c 0,20,21
 415 1438 415 1438 392 1438 c 2,22,-1
 107 1438 l 2,0,1
EndSplineSet
EndChar

StartChar: eight
Encoding: 56 56 27
Width: 811
GlyphClass: 2
Flags: MW
LayerCount: 2
Fore
SplineSet
560 161.5 m 128,-1,1
 511 89 511 89 407.5 89 c 128,-1,2
 304 89 304 89 252.5 164 c 128,-1,3
 201 239 201 239 201 420 c 0,4,5
 201 489 201 489 227.5 588.5 c 128,-1,6
 254 688 254 688 286 738 c 1,7,8
 443 688 443 688 498 654.5 c 0,9,10
 554 622 554 622 572 590 c 0,11,12
 610 526 610 526 609.5 380 c 128,-1,0
 609 234 609 234 560 161.5 c 128,-1,1
406 -13 m 0,13,14
 632 -13 632 -13 692 198 c 0,15,16
 716 281 716 281 715 399 c 0,17,18
 715 632 715 632 583 718 c 1,19,20
 620 768 620 768 651 855 c 128,-1,21
 682 942 682 942 682 1040 c 0,22,23
 682 1451 682 1451 406 1451 c 0,24,25
 274 1451 274 1451 199.5 1356.5 c 128,-1,26
 125 1262 125 1262 125 1062 c 0,27,28
 125 941 125 941 150 879 c 128,-1,29
 175 817 175 817 219 780 c 1,30,31
 176 730 176 730 136.5 626.5 c 128,-1,32
 97 523 97 523 97 412 c 0,33,34
 97 -13 97 -13 406 -13 c 0,13,14
515 759 m 1,35,36
 323 820 323 820 284 859 c 0,37,38
 241 902 241 902 234.5 948.5 c 128,-1,39
 228 995 228 995 228 1042 c 0,40,41
 229 1207 229 1207 272 1284 c 128,-1,42
 315 1361 315 1361 405 1361 c 128,-1,43
 495 1361 495 1361 539 1286 c 128,-1,44
 583 1211 583 1211 583 1054.5 c 128,-1,45
 583 898 583 898 515 759 c 1,35,36
EndSplineSet
EndChar

StartChar: nine
Encoding: 57 57 28
Width: 770
GlyphClass: 2
Flags: MW
LayerCount: 2
Fore
SplineSet
565 723 m 1,0,1
 490 657 490 657 389.5 657 c 128,-1,2
 289 657 289 657 248 745 c 128,-1,3
 207 833 207 833 207 1006 c 128,-1,4
 207 1179 207 1179 253 1274 c 128,-1,5
 299 1369 299 1369 391 1369 c 128,-1,6
 483 1369 483 1369 524 1258 c 128,-1,7
 565 1147 565 1147 565 886 c 2,8,-1
 565 723 l 1,0,1
247 9.5 m 128,-1,10
 307 -13 307 -13 365 -13 c 128,-1,11
 423 -13 423 -13 470.5 4.5 c 128,-1,12
 518 22 518 22 559.5 68.5 c 0,13,14
 601 116 601 116 626 196 c 0,15,16
 680 370 680 370 680 711 c 0,17,18
 680 1038 680 1038 653 1171.5 c 0,19,20
 626 1306 626 1306 592 1360 c 0,21,22
 525 1470 525 1470 389.5 1469.5 c 128,-1,23
 254 1469 254 1469 173.5 1356 c 128,-1,24
 93 1243 93 1243 93 1001 c 0,25,26
 93 559 93 559 379 559 c 0,27,28
 481 559 481 559 562 626 c 1,29,-1
 562 522 l 2,30,31
 562 295 562 295 512.5 193.5 c 128,-1,32
 463 92 463 92 358 92 c 0,33,34
 301 92 301 92 251.5 116 c 128,-1,35
 202 140 202 140 188.5 153 c 128,-1,36
 175 166 175 166 172.5 169 c 128,-1,37
 170 172 170 172 168.5 173 c 128,-1,38
 167 174 167 174 164 174.5 c 0,39,40
 162 174 162 174 160 172 c 0,41,42
 155 164 155 164 153 147 c 2,43,-1
 149 104 l 1,44,45
 149 73 149 73 158 65 c 1,46,9
 187 32 187 32 247 9.5 c 128,-1,10
EndSplineSet
EndChar

StartChar: colon
Encoding: 58 58 29
Width: 306
GlyphClass: 2
Flags: MW
LayerCount: 2
Fore
SplineSet
98 807 m 2,0,1
 98 734 98 734 124 734 c 2,2,-1
 184 734 l 2,3,4
 210 734 210 734 210 807 c 2,5,-1
 210 970 l 2,6,7
 210 1043 210 1043 184 1043 c 2,8,-1
 124 1043 l 2,9,10
 98 1043 98 1043 98 970 c 2,11,-1
 98 807 l 2,0,1
98 73 m 2,12,13
 98 0 98 0 124 0 c 2,14,-1
 184 0 l 2,15,16
 210 0 210 0 210 73 c 2,17,-1
 210 235 l 2,18,19
 210 308 210 308 184 308 c 2,20,-1
 124 308 l 2,21,22
 98 308 98 308 98 235 c 2,23,-1
 98 73 l 2,12,13
EndSplineSet
EndChar

StartChar: semicolon
Encoding: 59 59 30
Width: 320
GlyphClass: 2
Flags: MW
LayerCount: 2
Fore
SplineSet
105 807 m 2,0,1
 105 734 105 734 130 734 c 2,2,-1
 195 734 l 2,3,4
 221 734 221 734 221 807 c 2,5,-1
 221 970 l 2,6,7
 221 1043 221 1043 195 1043 c 2,8,-1
 130 1043 l 2,9,10
 105 1043 105 1043 105 970 c 2,11,-1
 105 807 l 2,0,1
121 -309 m 0,12,13
 162 -289 162 -289 195.5 -186 c 128,-1,14
 229 -83 229 -83 229 81 c 2,15,-1
 229 241 l 2,16,17
 229 273 229 273 221 293.5 c 128,-1,18
 213 314 213 314 202 314 c 2,19,-1
 119 314 l 2,20,21
 98 314 98 314 98 252 c 2,22,-1
 98 52 l 2,23,24
 98 0 98 0 119 0 c 2,25,-1
 151 0 l 2,26,27
 157 0 157 0 157 -28.5 c 128,-1,28
 157 -57 157 -57 147 -103 c 128,-1,29
 137 -149 137 -149 126.5 -165.5 c 128,-1,30
 116 -182 116 -182 111 -189.5 c 128,-1,31
 106 -197 106 -197 104.5 -199.5 c 128,-1,32
 103 -202 103 -202 101 -210 c 0,33,34
 98 -221 98 -221 98 -252 c 2,35,-1
 98 -264 l 2,36,37
 98 -310 98 -310 116 -310 c 0,38,39
 119 -310 119 -310 121 -309 c 0,12,13
EndSplineSet
EndChar

StartChar: less
Encoding: 60 60 31
Width: 672
GlyphClass: 2
Flags: MW
LayerCount: 2
Fore
SplineSet
432 115 m 0,0,1
 449 115 449 115 449 154 c 2,2,-1
 449 193 l 2,3,4
 448 238 448 238 430 256 c 0,5,6
 420 266 420 266 417 272 c 1,7,-1
 184 598 l 1,8,9
 178 604 178 604 178 612 c 128,-1,10
 178 620 178 620 183 627 c 2,11,-1
 418 985 l 1,12,13
 449 1027 449 1027 449 1072 c 2,14,-1
 449 1100 l 2,15,16
 449 1142 449 1142 432 1142 c 0,17,18
 422 1142 422 1142 414 1131 c 2,19,-1
 135 713 l 1,20,21
 99 664 99 664 99 624 c 2,22,-1
 99 606 l 2,23,24
 99 576 99 576 105.5 559.5 c 128,-1,25
 112 543 112 543 134 514 c 2,26,-1
 415 131 l 1,27,28
 429 115 429 115 432 115 c 0,0,1
EndSplineSet
EndChar

StartChar: equal
Encoding: 61 61 32
Width: 469
GlyphClass: 2
Flags: MW
LayerCount: 2
Fore
SplineSet
69 627 m 2,0,-1
 400 627 l 2,1,2
 413 627 413 627 417 634 c 128,-1,3
 421 641 421 641 421 671 c 2,4,-1
 421 686 l 2,5,6
 421 716 421 716 417 723 c 128,-1,7
 413 730 413 730 400 730 c 2,8,-1
 69 730 l 2,9,10
 56 730 56 730 52 723 c 128,-1,11
 48 716 48 716 48 686 c 2,12,-1
 48 671 l 2,13,14
 48 641 48 641 52 634 c 128,-1,15
 56 627 56 627 69 627 c 2,0,-1
69 357 m 2,16,-1
 400 357 l 2,17,18
 413 357 413 357 417 364 c 128,-1,19
 421 371 421 371 421 401 c 2,20,-1
 421 417 l 2,21,22
 421 447 421 447 417 453.5 c 128,-1,23
 413 460 413 460 400 460 c 2,24,-1
 69 460 l 2,25,26
 54 460 54 460 51 449 c 128,-1,27
 48 438 48 438 48 417 c 2,28,-1
 48 401 l 2,29,30
 48 371 48 371 52 364 c 128,-1,31
 56 357 56 357 69 357 c 2,16,-1
EndSplineSet
EndChar

StartChar: greater
Encoding: 62 62 33
Width: 672
GlyphClass: 2
Flags: MW
LayerCount: 2
Fore
SplineSet
116 115 m 0,0,1
 126 115 126 115 134 126 c 2,2,-1
 413 543 l 1,3,4
 439 580 439 580 444 596 c 128,-1,5
 449 612 449 612 449 632 c 2,6,-1
 449 651 l 2,7,8
 449 681 449 681 442.5 697.5 c 128,-1,9
 436 714 436 714 414 743 c 2,10,-1
 133 1126 l 1,11,12
 119 1142 119 1142 116 1142 c 0,13,14
 99 1142 99 1142 99 1103 c 2,15,-1
 99 1064 l 2,16,17
 100 1020 100 1020 118 1002 c 0,18,19
 128 992 128 992 131 985 c 1,20,-1
 364 659 l 1,21,22
 370 653 370 653 370 645 c 128,-1,23
 370 637 370 637 365 630 c 2,24,-1
 130 272 l 1,25,26
 99 230 99 230 99 185 c 2,27,-1
 99 157 l 2,28,29
 99 115 99 115 116 115 c 0,0,1
EndSplineSet
EndChar

StartChar: question
Encoding: 63 63 34
Width: 733
GlyphClass: 2
Flags: MW
LayerCount: 2
Fore
SplineSet
231 0 m 2,0,-1
 285 0 l 2,1,2
 318 0 318 0 318 54 c 2,3,-1
 318 109 l 2,4,5
 318 163 318 163 285 163 c 2,6,-1
 231 163 l 2,7,8
 198 163 198 163 198 109 c 2,9,-1
 198 54 l 2,10,11
 198 0 198 0 231 0 c 2,0,-1
250 481 m 1,12,13
 258 476 258 476 264 476 c 0,14,15
 276 476 276 476 284 493 c 0,16,17
 288 502 288 502 298.5 530 c 128,-1,18
 309 558 309 558 312.5 566.5 c 128,-1,19
 316 575 316 575 325.5 596 c 128,-1,20
 335 617 335 617 341.5 626 c 0,21,22
 348 636 348 636 360 650 c 0,23,24
 378 672 378 672 413 692 c 1,25,26
 535 756 535 756 607.5 863 c 128,-1,27
 680 970 680 970 680 1090 c 1,28,29
 678 1256 678 1256 589 1353.5 c 128,-1,30
 500 1451 500 1451 345 1451 c 0,31,32
 228 1451 228 1451 103 1381 c 1,33,34
 74 1368 74 1368 74 1346.5 c 128,-1,35
 74 1325 74 1325 84 1307.5 c 128,-1,36
 94 1290 94 1290 106 1290 c 1,37,38
 117 1277 117 1277 131 1285 c 0,39,40
 237 1352 237 1352 342.5 1352 c 128,-1,41
 448 1352 448 1352 515 1276 c 0,42,43
 583 1200 583 1200 583 1099 c 0,44,45
 583 899 583 899 414 792 c 0,46,47
 334 741 334 741 300.5 699 c 128,-1,48
 267 657 267 657 230 553 c 1,49,50
 217 533 217 533 224.5 519 c 128,-1,51
 232 505 232 505 235.5 500 c 128,-1,52
 239 495 239 495 243.5 489.5 c 128,-1,53
 248 484 248 484 250 481 c 1,12,13
EndSplineSet
EndChar

StartChar: at
Encoding: 64 64 35
Width: 1258
GlyphClass: 2
Flags: MW
LayerCount: 2
Fore
SplineSet
611 309 m 0,0,1
 427 309 427 309 427 657 c 0,2,3
 427 834 427 834 477 917.5 c 128,-1,4
 527 1001 527 1001 613 1001 c 128,-1,5
 699 1001 699 1001 752.5 909 c 128,-1,6
 806 817 806 817 806 653 c 128,-1,7
 806 489 806 489 751 399 c 128,-1,8
 696 309 696 309 611 309 c 0,0,1
418.5 -78 m 0,9,10
 520 -121 520 -121 622 -121 c 0,11,12
 799 -121 799 -121 938 -44 c 0,13,14
 940 -42 940 -42 940 -34.5 c 128,-1,15
 940 -27 940 -27 930 -1 c 128,-1,16
 920 25 920 25 915 25 c 0,17,18
 885 25 885 25 794 -9 c 128,-1,19
 703 -43 703 -43 656 -43 c 0,20,21
 165 -43 165 -43 165 678 c 0,22,23
 164 1145 164 1145 378 1316 c 0,24,25
 479 1397 479 1397 630 1397 c 0,26,27
 864 1396 864 1396 970 1244 c 0,28,29
 1084 1080 1084 1080 1084 692 c 0,30,31
 1084 470 1084 470 1065 407 c 128,-1,32
 1046 344 1046 344 1030.5 327 c 128,-1,33
 1015 310 1015 310 990.5 310 c 128,-1,34
 966 310 966 310 950 322 c 0,35,36
 913 351 913 351 913 504 c 2,37,-1
 913 991 l 2,38,39
 913 1041 913 1041 891 1041 c 2,40,-1
 885 1041 l 2,41,42
 861 1041 861 1041 854 994 c 1,43,-1
 842 857 l 2,44,45
 840 844 840 844 838 844 c 0,46,47
 832 844 832 844 828 864 c 0,48,49
 805 970 805 970 744.5 1028.5 c 128,-1,50
 684 1087 684 1087 601 1087 c 0,51,52
 484 1087 484 1087 408.5 980.5 c 128,-1,53
 333 874 333 874 333 658.5 c 128,-1,54
 333 443 333 443 407 336.5 c 128,-1,55
 481 230 481 230 598 230 c 0,56,57
 776 230 776 230 838 449 c 1,58,59
 846 481 846 481 850.5 481 c 128,-1,60
 855 481 855 481 861 409.5 c 128,-1,61
 867 338 867 338 895 288 c 128,-1,62
 923 238 923 238 993 238 c 0,63,64
 1176 238 1176 238 1176 692 c 0,65,66
 1176 1015 1176 1015 1110 1182 c 0,67,68
 1050 1331 1050 1331 944 1402 c 0,69,70
 821 1484 821 1484 627 1484 c 0,71,72
 415 1484 415 1484 290 1367 c 0,73,74
 166 1252 166 1252 118 1072 c 0,75,76
 70 894 70 894 70.5 720.5 c 128,-1,77
 71 547 71 547 88 433 c 128,-1,78
 105 319 105 319 147 214.5 c 128,-1,79
 189 110 189 110 253.5 37.5 c 128,-1,80
 318 -35 318 -35 418.5 -78 c 0,9,10
EndSplineSet
EndChar

StartChar: A
Encoding: 65 65 36
Width: 764
GlyphClass: 2
Flags: MW
LayerCount: 2
Fore
SplineSet
251 427 m 2,0,1
 241 427 241 427 241 438 c 0,2,3
 241 442 241 442 242 447 c 2,4,-1
 385 1296 l 2,5,6
 385 1300 385 1300 387 1300 c 1,7,-1
 389 1296 l 1,8,-1
 522 442 l 1,9,10
 524 441 524 441 524 434 c 0,11,12
 524 427 524 427 520 427 c 2,13,-1
 251 427 l 2,0,1
72 0 m 2,14,-1
 130 0 l 2,15,16
 144 0 144 0 151.5 10.5 c 128,-1,17
 159 21 159 21 165 50 c 2,18,-1
 217 336 l 2,19,20
 220 347 220 347 222 347 c 2,21,-1
 535 347 l 2,22,23
 538 347 538 347 541 337 c 1,24,-1
 586 49 l 2,25,26
 594 0 594 0 626 0 c 2,27,-1
 697 0 l 2,28,29
 712 0 712 0 712 18 c 0,30,31
 712 36 712 36 709.5 43.5 c 128,-1,32
 707 51 707 51 706 56 c 2,33,-1
 472 1383 l 2,34,35
 463 1435 463 1435 437 1438 c 1,36,-1
 342 1438 l 1,37,38
 316 1435 316 1435 306 1383 c 2,39,-1
 58 56 l 2,40,41
 57 50 57 50 57 42 c 2,42,-1
 57 31 l 2,43,44
 57 0 57 0 72 0 c 2,14,-1
EndSplineSet
EndChar

StartChar: B
Encoding: 66 66 37
Width: 862
GlyphClass: 2
Flags: MW
LayerCount: 2
Fore
SplineSet
234 807 m 2,0,1
 220 807 220 807 220 823 c 2,2,-1
 220 1328 l 2,3,4
 220 1342 220 1342 223 1345 c 128,-1,5
 226 1348 226 1348 234 1348 c 2,6,-1
 438 1348 l 2,7,8
 547 1348 547 1348 599.5 1274 c 128,-1,9
 652 1200 652 1200 652 1064.5 c 128,-1,10
 652 929 652 929 607 868 c 128,-1,11
 562 807 562 807 488 807 c 2,12,-1
 234 807 l 2,0,1
234 88 m 2,13,14
 220 88 220 88 220 104 c 2,15,-1
 220 700 l 2,16,17
 220 721 220 721 234 721 c 2,18,-1
 481 721 l 2,19,20
 569 721 569 721 628.5 639.5 c 128,-1,21
 688 558 688 558 688 406.5 c 128,-1,22
 688 255 688 255 627.5 171.5 c 128,-1,23
 567 88 567 88 430 88 c 2,24,-1
 234 88 l 2,13,14
135 0 m 2,25,-1
 431 0 l 2,26,27
 614 0 614 0 704 89 c 0,28,29
 800 184 800 184 800 424 c 128,-1,30
 800 664 800 664 649 758 c 1,31,32
 640 762 640 762 640 766 c 128,-1,33
 640 770 640 770 648 775 c 0,34,35
 762 848 762 848 762 1042 c 0,36,37
 762 1260 762 1260 676 1352 c 0,38,39
 595 1437 595 1437 451 1438 c 2,40,-1
 135 1438 l 2,41,42
 117 1438 117 1438 112.5 1427 c 128,-1,43
 108 1416 108 1416 108 1397 c 2,44,-1
 108 39 l 2,45,46
 108 13 108 13 114 6.5 c 128,-1,47
 120 0 120 0 135 0 c 2,25,-1
EndSplineSet
EndChar

StartChar: C
Encoding: 67 67 38
Width: 677
GlyphClass: 2
Flags: MW
LayerCount: 2
Fore
SplineSet
375.5 -10 m 128,-1,1
 407 -14 407 -14 469 -14 c 128,-1,2
 531 -14 531 -14 588 7 c 0,3,4
 596 9 596 9 596 19 c 2,5,-1
 596 88 l 2,6,7
 596 103 596 103 588 100 c 0,8,9
 528 80 528 80 469.5 80 c 128,-1,10
 411 80 411 80 377 91 c 128,-1,11
 343 102 343 102 307.5 140.5 c 128,-1,12
 272 179 272 179 251 247 c 0,13,14
 204 399 204 399 204 721 c 0,15,16
 204 1180 204 1180 321 1298 c 0,17,18
 359 1336 359 1336 394.5 1347 c 128,-1,19
 430 1358 430 1358 463.5 1358 c 128,-1,20
 497 1358 497 1358 517 1355.5 c 128,-1,21
 537 1353 537 1353 552.5 1349.5 c 128,-1,22
 568 1346 568 1346 580 1343 c 2,23,-1
 600 1338 l 1,24,-1
 607 1335 l 1,25,26
 614 1335 614 1335 614 1345 c 2,27,-1
 614 1411 l 2,28,29
 614 1421 614 1421 602 1427 c 0,30,31
 548 1452 548 1452 482.5 1452 c 128,-1,32
 417 1452 417 1452 382 1446.5 c 128,-1,33
 347 1441 347 1441 307 1422.5 c 128,-1,34
 267 1404 267 1404 237 1373 c 128,-1,35
 207 1342 207 1342 178 1286.5 c 0,36,37
 148 1232 148 1232 130 1156 c 0,38,39
 88 987 88 987 88.5 782 c 128,-1,40
 89 577 89 577 100.5 463 c 128,-1,41
 112 349 112 349 130 272.5 c 128,-1,42
 148 196 148 196 177.5 141.5 c 128,-1,43
 207 87 207 87 235.5 57.5 c 128,-1,44
 264 28 264 28 304 11 c 128,-1,0
 344 -6 344 -6 375.5 -10 c 128,-1,1
EndSplineSet
EndChar

StartChar: D
Encoding: 68 68 39
Width: 899
GlyphClass: 2
Flags: MW
LayerCount: 2
Fore
SplineSet
131 1438 m 2,0,1
 108 1438 108 1438 108 1407 c 2,2,-1
 108 39 l 2,3,4
 108 15 108 15 113 7.5 c 128,-1,5
 118 0 118 0 131 0 c 2,6,-1
 426 0 l 2,7,8
 513 0 513 0 571.5 17 c 128,-1,9
 630 34 630 34 679 79.5 c 0,10,11
 728 124 728 124 756 206 c 0,12,13
 812 373 812 373 812 723 c 0,14,15
 812 1200 812 1200 669 1348 c 0,16,17
 582 1438 582 1438 434 1438 c 2,18,-1
 131 1438 l 2,0,1
232 90 m 2,19,20
 220 90 220 90 220 110 c 2,21,-1
 220 1331 l 2,22,23
 220 1348 220 1348 231 1348 c 2,24,-1
 426 1348 l 2,25,26
 574 1348 574 1348 635.5 1202.5 c 128,-1,27
 697 1057 697 1057 697 723 c 0,28,29
 697 431 697 431 671.5 322.5 c 128,-1,30
 646 214 646 214 614 172 c 0,31,32
 552 91 552 91 423 90 c 2,33,-1
 232 90 l 2,19,20
EndSplineSet
EndChar

StartChar: E
Encoding: 69 69 40
Width: 688
GlyphClass: 2
Flags: MW
LayerCount: 2
Fore
SplineSet
131 1438 m 2,0,1
 108 1438 108 1438 108 1403 c 2,2,-1
 108 35 l 2,3,4
 108 5 108 5 115 2.5 c 128,-1,5
 122 0 122 0 131 0 c 2,6,-1
 599 0 l 2,7,8
 612 0 612 0 617 5 c 128,-1,9
 622 10 622 10 622 31 c 2,10,-1
 622 59 l 2,11,12
 622 86 622 86 615 88 c 128,-1,13
 608 90 608 90 599 90 c 2,14,-1
 220 90 l 1,15,-1
 220 673 l 2,16,17
 220 676 220 676 223 685 c 128,-1,18
 226 694 226 694 227 694 c 2,19,-1
 545 694 l 2,20,21
 558 694 558 694 563 700 c 128,-1,22
 568 706 568 706 568 727 c 2,23,-1
 568 756 l 2,24,25
 568 776 568 776 563 781.5 c 128,-1,26
 558 787 558 787 545 787 c 2,27,-1
 226 787 l 2,28,29
 220 787 220 787 220 801 c 2,30,-1
 220 1320 l 2,31,32
 220 1348 220 1348 230 1348 c 2,33,-1
 597 1348 l 2,34,35
 612 1348 612 1348 616 1356 c 128,-1,36
 620 1364 620 1364 620 1379 c 2,37,-1
 620 1407 l 2,38,39
 620 1428 620 1428 615 1433 c 128,-1,40
 610 1438 610 1438 597 1438 c 2,41,-1
 131 1438 l 2,0,1
EndSplineSet
EndChar

StartChar: F
Encoding: 70 70 41
Width: 633
GlyphClass: 2
Flags: MW
LayerCount: 2
Fore
SplineSet
131 1438 m 2,0,1
 108 1438 108 1438 108 1403 c 2,2,-1
 108 35 l 2,3,4
 108 5 108 5 115 2.5 c 128,-1,5
 122 0 122 0 131 0 c 2,6,-1
 197 0 l 2,7,8
 213 0 213 0 216.5 9.5 c 128,-1,9
 220 19 220 19 220 35 c 2,10,-1
 220 668 l 2,11,12
 220 671 220 671 223 679 c 128,-1,13
 226 687 226 687 227 687 c 2,14,-1
 526 687 l 2,15,16
 539 687 539 687 544 692 c 128,-1,17
 549 697 549 697 549 718 c 2,18,-1
 549 751 l 2,19,20
 549 770 549 770 544 775 c 128,-1,21
 539 780 539 780 526 780 c 2,22,-1
 226 780 l 2,23,24
 220 780 220 780 220 792 c 2,25,-1
 220 1322 l 2,26,27
 220 1348 220 1348 230 1348 c 2,28,-1
 575 1348 l 2,29,30
 590 1348 590 1348 594 1356 c 128,-1,31
 598 1364 598 1364 598 1379 c 2,32,-1
 598 1407 l 2,33,34
 598 1428 598 1428 593 1433 c 128,-1,35
 588 1438 588 1438 575 1438 c 2,36,-1
 131 1438 l 2,0,1
EndSplineSet
EndChar

StartChar: G
Encoding: 71 71 42
Width: 856
GlyphClass: 2
Flags: MW
LayerCount: 2
Fore
SplineSet
714 39 m 1,0,1
 721 -15 721 -15 748 -15 c 128,-1,2
 775 -15 775 -15 775 40 c 2,3,-1
 775 687 l 2,4,5
 775 724 775 724 767 727 c 128,-1,6
 759 730 759 730 749 730 c 2,7,-1
 483 730 l 2,8,9
 454 730 454 730 454 694 c 2,10,-1
 454 661 l 2,11,12
 454 632 454 632 470 628 c 0,13,14
 476 626 476 626 485 626 c 2,15,-1
 660 626 l 2,16,17
 668 626 668 626 668 538.5 c 128,-1,18
 668 451 668 451 660 371 c 128,-1,19
 652 291 652 291 632 222 c 0,20,21
 590 80 590 80 473 80 c 0,22,23
 369 80 369 80 311 154 c 0,24,25
 260 219 260 219 241 316 c 0,26,27
 205 491 205 491 205 668 c 128,-1,28
 205 845 205 845 215 942.5 c 128,-1,29
 225 1040 225 1040 240.5 1106 c 128,-1,30
 256 1172 256 1172 282 1220 c 128,-1,31
 308 1268 308 1268 333.5 1294 c 128,-1,32
 359 1320 359 1320 395 1335 c 0,33,34
 450 1358 450 1358 500 1358 c 128,-1,35
 550 1358 550 1358 573.5 1355.5 c 0,36,37
 598 1353 598 1353 616 1349 c 2,38,-1
 683 1332 l 1,39,40
 691 1332 691 1332 691 1342 c 2,41,-1
 691 1408 l 2,42,43
 691 1418 691 1418 678 1425 c 1,44,45
 602 1452 602 1452 540.5 1452 c 128,-1,46
 479 1452 479 1452 449.5 1449.5 c 128,-1,47
 420 1447 420 1447 382.5 1438.5 c 128,-1,48
 345 1430 345 1430 316.5 1415 c 128,-1,49
 288 1400 288 1400 256.5 1373 c 128,-1,50
 225 1346 225 1346 202 1308.5 c 128,-1,51
 179 1271 179 1271 157 1215.5 c 128,-1,52
 135 1160 135 1160 121 1090 c 0,53,54
 91 941 91 941 91 762.5 c 128,-1,55
 91 584 91 584 102.5 473.5 c 128,-1,56
 114 363 114 363 133.5 287.5 c 128,-1,57
 153 212 153 212 182.5 156 c 128,-1,58
 212 100 212 100 242.5 68 c 128,-1,59
 273 36 273 36 313 17 c 0,60,61
 378 -14 378 -14 465.5 -14 c 128,-1,62
 553 -14 553 -14 612.5 50 c 128,-1,63
 672 114 672 114 692 227 c 0,64,65
 693 234 693 234 696.5 234 c 128,-1,66
 700 234 700 234 700 220.5 c 128,-1,67
 700 207 700 207 714 39 c 1,0,1
EndSplineSet
EndChar

StartChar: H
Encoding: 72 72 43
Width: 881
GlyphClass: 2
Flags: MW
LayerCount: 2
Fore
SplineSet
226 787 m 2,0,1
 220 787 220 787 220 804 c 2,2,-1
 220 1391 l 2,3,4
 220 1421 220 1421 214 1429.5 c 128,-1,5
 208 1438 208 1438 194 1438 c 2,6,-1
 132 1438 l 2,7,8
 119 1438 119 1438 113.5 1429.5 c 128,-1,9
 108 1421 108 1421 108 1391 c 2,10,-1
 108 47 l 2,11,12
 108 17 108 17 113.5 8.5 c 128,-1,13
 119 0 119 0 132 0 c 2,14,-1
 195 0 l 2,15,16
 209 0 209 0 215 8.5 c 128,-1,17
 221 17 221 17 221 47 c 2,18,-1
 221 674 l 2,19,20
 221 691 221 691 227 691 c 2,21,-1
 654 691 l 2,22,23
 655 691 655 691 658.5 683 c 128,-1,24
 662 675 662 675 662 672 c 2,25,-1
 662 47 l 2,26,27
 662 17 662 17 668 8.5 c 128,-1,28
 674 0 674 0 689 0 c 2,29,-1
 751 0 l 2,30,31
 763 0 763 0 768.5 8.5 c 128,-1,32
 774 17 774 17 774 47 c 2,33,-1
 774 1391 l 2,34,35
 774 1421 774 1421 768.5 1429.5 c 128,-1,36
 763 1438 763 1438 751 1438 c 2,37,-1
 689 1438 l 2,38,39
 674 1438 674 1438 668 1429.5 c 128,-1,40
 662 1421 662 1421 662 1391 c 2,41,-1
 662 807 l 2,42,43
 662 804 662 804 658 795.5 c 128,-1,44
 654 787 654 787 653 787 c 2,45,-1
 226 787 l 2,0,1
EndSplineSet
EndChar

StartChar: I
Encoding: 73 73 44
Width: 332
GlyphClass: 2
Flags: MW
LayerCount: 2
Fore
SplineSet
135 0 m 2,0,-1
 201 0 l 2,1,2
 214 0 214 0 219 8.5 c 128,-1,3
 224 17 224 17 224 47 c 2,4,-1
 224 1391 l 2,5,6
 224 1421 224 1421 219 1429.5 c 128,-1,7
 214 1438 214 1438 201 1438 c 2,8,-1
 135 1438 l 2,9,10
 122 1438 122 1438 117 1429.5 c 128,-1,11
 112 1421 112 1421 112 1391 c 2,12,-1
 112 47 l 2,13,14
 112 17 112 17 117 8.5 c 128,-1,15
 122 0 122 0 135 0 c 2,0,-1
EndSplineSet
EndChar

StartChar: J
Encoding: 74 74 45
Width: 471
GlyphClass: 2
Flags: MW
LayerCount: 2
Fore
SplineSet
31 -145 m 0,0,1
 201 -145 201 -145 247 -101 c 0,2,3
 311 -40 311 -40 326 34 c 0,4,5
 357 187 357 187 357 384 c 2,6,-1
 357 1387 l 2,7,8
 357 1438 357 1438 336 1438 c 2,9,-1
 266 1438 l 2,10,11
 245 1438 245 1438 245 1387 c 2,12,-1
 245 400 l 2,13,14
 245 132 245 132 215 60 c 0,15,16
 205 36 205 36 197.5 19.5 c 128,-1,17
 190 3 190 3 174.5 -8 c 128,-1,18
 159 -19 159 -19 147.5 -25 c 0,19,20
 136 -30 136 -30 114 -34 c 0,21,22
 79 -39 79 -39 31 -40 c 0,23,24
 20 -40 20 -40 20 -67 c 2,25,-1
 20 -120 l 2,26,27
 20 -145 20 -145 31 -145 c 0,0,1
EndSplineSet
EndChar

StartChar: K
Encoding: 75 75 46
Width: 708
GlyphClass: 2
Flags: MW
LayerCount: 2
Fore
SplineSet
131 0 m 2,0,-1
 194 0 l 2,1,2
 221 0 221 0 221 58 c 2,3,-1
 221 708 l 1,4,-1
 564 57 l 2,5,6
 582 23 582 23 592.5 11.5 c 128,-1,7
 603 0 603 0 615 0 c 2,8,-1
 681 0 l 2,9,10
 693 0 693 0 693 18 c 128,-1,11
 693 36 693 36 676 67 c 1,12,-1
 343 719 l 2,13,14
 339 726 339 726 339 732.5 c 128,-1,15
 339 739 339 739 343 755 c 1,16,-1
 657 1380 l 2,17,18
 669 1404 669 1404 669 1421 c 128,-1,19
 669 1438 669 1438 656 1438 c 2,20,-1
 575 1438 l 2,21,22
 560 1438 560 1438 551 1419.5 c 128,-1,23
 542 1401 542 1401 532 1379 c 2,24,-1
 220 743 l 1,25,-1
 220 1375 l 2,26,27
 220 1438 220 1438 194 1438 c 2,28,-1
 131 1438 l 2,29,30
 108 1438 108 1438 108 1375 c 2,31,-1
 108 63 l 2,32,33
 108 0 108 0 131 0 c 2,0,-1
EndSplineSet
EndChar

StartChar: L
Encoding: 76 76 47
Width: 574
GlyphClass: 2
Flags: MW
LayerCount: 2
Fore
SplineSet
131 0 m 2,0,-1
 500 0 l 2,1,2
 524 0 524 0 524 31 c 2,3,-1
 524 61 l 2,4,5
 524 81 524 81 518.5 85.5 c 128,-1,6
 513 90 513 90 500 90 c 2,7,-1
 234 90 l 2,8,9
 220 90 220 90 220 110 c 2,10,-1
 220 1391 l 2,11,12
 220 1421 220 1421 215 1429.5 c 128,-1,13
 210 1438 210 1438 197 1438 c 2,14,-1
 131 1438 l 2,15,16
 118 1438 118 1438 113 1429.5 c 128,-1,17
 108 1421 108 1421 108 1391 c 2,18,-1
 108 47 l 2,19,20
 108 17 108 17 113 8.5 c 128,-1,21
 118 0 118 0 131 0 c 2,0,-1
EndSplineSet
EndChar

StartChar: M
Encoding: 77 77 48
Width: 1027
GlyphClass: 2
Flags: MW
LayerCount: 2
Fore
SplineSet
124 0 m 2,0,-1
 176 0 l 2,1,2
 196 0 196 0 197 63 c 2,3,-1
 232 1212 l 1,4,-1
 235 1217 l 1,5,-1
 454 61 l 1,6,7
 468 0 468 0 490 0 c 0,8,9
 529 1 529 1 530 1 c 0,10,11
 555 1 555 1 567 61 c 2,12,-1
 790 1227 l 1,13,14
 795 1225 l 1,15,-1
 828 63 l 2,16,17
 829 0 829 0 853 0 c 2,18,-1
 904 0 l 2,19,20
 926 0 926 0 926 56 c 2,21,-1
 926 63 l 1,22,-1
 883 1374 l 1,23,24
 882 1435 882 1435 861 1438 c 1,25,-1
 770 1438 l 1,26,27
 745 1435 745 1435 732 1376 c 1,28,-1
 515 253 l 2,29,30
 515 251 515 251 511 251 c 128,-1,31
 507 251 507 251 506 253 c 2,32,-1
 288 1384 l 1,33,34
 276 1434 276 1434 246 1438 c 1,35,-1
 166 1438 l 1,36,37
 144 1435 144 1435 143 1374 c 2,38,-1
 101 63 l 1,39,-1
 101 57 l 2,40,41
 101 0 101 0 124 0 c 2,0,-1
EndSplineSet
EndChar

StartChar: N
Encoding: 78 78 49
Width: 889
GlyphClass: 2
Flags: MW
LayerCount: 2
Fore
SplineSet
704 1438 m 2,0,1
 677 1438 677 1438 677 1389 c 2,2,-1
 677 308 l 1,3,-1
 672 295 l 1,4,-1
 215 1413 l 2,5,6
 204 1438 204 1438 191 1438 c 2,7,-1
 132 1438 l 2,8,9
 119 1438 119 1438 113.5 1428.5 c 128,-1,10
 108 1419 108 1419 108 1389 c 2,11,-1
 108 55 l 2,12,13
 108 0 108 0 132 0 c 2,14,-1
 186 0 l 2,15,16
 212 0 212 0 212 55 c 2,17,-1
 212 1136 l 1,18,-1
 217 1145 l 1,19,-1
 677 43 l 2,20,21
 695 0 695 0 712 0 c 2,22,-1
 758 0 l 2,23,24
 771 0 771 0 776.5 8.5 c 128,-1,25
 782 17 782 17 782 47 c 2,26,-1
 782 1389 l 2,27,28
 782 1419 782 1419 776.5 1428.5 c 128,-1,29
 771 1438 771 1438 758 1438 c 2,30,-1
 704 1438 l 2,0,1
EndSplineSet
EndChar

StartChar: O
Encoding: 79 79 50
Width: 870
GlyphClass: 2
Flags: MW
LayerCount: 2
Fore
SplineSet
301 6 m 128,-1,1
 355 -14 355 -14 434.5 -14 c 128,-1,2
 514 -14 514 -14 568.5 5 c 128,-1,3
 623 24 623 24 666 71.5 c 128,-1,4
 709 119 709 119 733 204 c 0,5,6
 781 374 781 374 781 691.5 c 128,-1,7
 781 1009 781 1009 746 1166.5 c 128,-1,8
 711 1324 711 1324 638 1388 c 128,-1,9
 565 1452 565 1452 435.5 1452 c 128,-1,10
 306 1452 306 1452 232.5 1386 c 128,-1,11
 159 1320 159 1320 124 1162.5 c 128,-1,12
 89 1005 89 1005 89 774.5 c 128,-1,13
 89 544 89 544 101 418.5 c 128,-1,14
 113 293 113 293 137.5 207.5 c 128,-1,15
 162 122 162 122 204.5 74 c 128,-1,0
 247 26 247 26 301 6 c 128,-1,1
572 127.5 m 128,-1,17
 525 79 525 79 435.5 79 c 128,-1,18
 346 79 346 79 298 130 c 0,19,20
 204 231 204 231 204 725 c 0,21,22
 204 966 204 966 226 1101.5 c 128,-1,23
 248 1237 248 1237 297 1297.5 c 128,-1,24
 346 1358 346 1358 435 1358 c 128,-1,25
 524 1358 524 1358 573 1301 c 128,-1,26
 622 1244 622 1244 644 1109 c 128,-1,27
 666 974 666 974 666 714.5 c 128,-1,28
 666 455 666 455 642.5 315.5 c 128,-1,16
 619 176 619 176 572 127.5 c 128,-1,17
EndSplineSet
EndChar

StartChar: P
Encoding: 80 80 51
Width: 796
GlyphClass: 2
Flags: MW
LayerCount: 2
Fore
SplineSet
227 631 m 2,0,1
 220 631 220 631 220 643 c 2,2,-1
 220 1335 l 2,3,4
 220 1348 220 1348 228 1348 c 2,5,-1
 360 1348 l 2,6,7
 486 1348 486 1348 528 1316 c 0,8,9
 578 1277 578 1277 593 1224 c 0,10,11
 622 1124 622 1124 622 1007 c 128,-1,12
 622 890 622 890 612 825 c 128,-1,13
 602 760 602 760 585.5 721.5 c 128,-1,14
 569 683 569 683 538 663 c 0,15,16
 488 631 488 631 388 631 c 2,17,-1
 227 631 l 2,0,1
108 45 m 2,18,19
 108 0 108 0 131 0 c 2,20,-1
 197 0 l 2,21,22
 220 0 220 0 220 45 c 2,23,-1
 220 526 l 2,24,25
 220 540 220 540 228 540 c 2,26,-1
 396 540 l 2,27,28
 543 540 543 540 606 584 c 0,29,30
 672 632 672 632 700 716 c 0,31,32
 736 822 736 822 736 939 c 128,-1,33
 736 1056 736 1056 729 1115 c 128,-1,34
 722 1174 722 1174 711 1218 c 128,-1,35
 700 1262 700 1262 681 1296 c 128,-1,36
 662 1330 662 1330 643 1353 c 128,-1,37
 624 1376 624 1376 595.5 1392.5 c 128,-1,38
 567 1409 567 1409 543.5 1417.5 c 128,-1,39
 520 1426 520 1426 486 1431 c 0,40,41
 438 1438 438 1438 364 1438 c 2,42,-1
 131 1438 l 2,43,44
 118 1438 118 1438 113 1430 c 128,-1,45
 108 1422 108 1422 108 1392 c 2,46,-1
 108 45 l 2,18,19
EndSplineSet
EndChar

StartChar: Q
Encoding: 81 81 52
Width: 934
GlyphClass: 2
Flags: MW
LayerCount: 2
Fore
SplineSet
545.5 87 m 128,-1,1
 513 79 513 79 462 79 c 128,-1,2
 411 79 411 79 373.5 92 c 128,-1,3
 336 105 336 105 301.5 144 c 0,4,5
 267 184 267 184 247 254 c 0,6,7
 204 406 204 406 204 688.5 c 128,-1,8
 204 971 204 971 234.5 1112.5 c 128,-1,9
 265 1254 265 1254 320 1306 c 128,-1,10
 375 1358 375 1358 455.5 1358 c 128,-1,11
 536 1358 536 1358 582 1332 c 128,-1,12
 628 1306 628 1306 663 1238 c 0,13,14
 730 1107 730 1107 730 723 c 0,15,16
 730 438 730 438 706.5 334.5 c 128,-1,17
 683 231 683 231 662.5 186.5 c 128,-1,18
 642 142 642 142 610 118.5 c 128,-1,0
 578 95 578 95 545.5 87 c 128,-1,1
683 -298 m 1,19,-1
 607 2 l 1,20,21
 692 28 692 28 742 99 c 0,22,23
 845 245 845 245 845 723 c 0,24,25
 845 1234 845 1234 709 1368 c 0,26,27
 661 1416 661 1416 603.5 1434 c 128,-1,28
 546 1452 546 1452 466.5 1452 c 128,-1,29
 387 1452 387 1452 330 1433 c 128,-1,30
 273 1414 273 1414 225.5 1365.5 c 0,31,32
 178 1316 178 1316 149 1234 c 0,33,34
 89 1063 89 1063 89 723 c 0,35,36
 89 201 89 201 220 70 c 0,37,38
 267 23 267 23 320.5 5.5 c 128,-1,39
 374 -12 374 -12 432 -13 c 0,40,41
 444 -13 444 -13 454 -13 c 0,42,43
 494 -13 494 -13 508 -10 c 1,44,-1
 590 -318 l 2,45,46
 600 -359 600 -359 621 -359 c 0,47,48
 645 -359 645 -359 663.5 -351 c 128,-1,49
 682 -343 682 -343 684 -341 c 0,50,51
 690 -335 690 -335 690 -327 c 128,-1,52
 690 -319 690 -319 683 -298 c 1,19,-1
EndSplineSet
EndChar

StartChar: R
Encoding: 82 82 53
Width: 873
GlyphClass: 2
Flags: MW
LayerCount: 2
Fore
SplineSet
228 793 m 2,0,1
 220 793 220 793 220 808 c 2,2,-1
 220 1335 l 2,3,4
 220 1348 220 1348 228 1348 c 2,5,-1
 377 1348 l 2,6,7
 556 1348 556 1348 610 1276 c 0,8,9
 658 1211 658 1211 658.5 1063 c 128,-1,10
 659 915 659 915 599.5 854 c 128,-1,11
 540 793 540 793 405 793 c 2,12,-1
 228 793 l 2,0,1
108 43 m 2,13,14
 108 0 108 0 131 0 c 2,15,-1
 197 0 l 2,16,17
 210 0 210 0 215 8.5 c 128,-1,18
 220 17 220 17 220 43 c 2,19,-1
 220 688 l 2,20,21
 220 704 220 704 229 704 c 2,22,-1
 460 704 l 2,23,24
 528 704 528 704 574 676 c 0,25,26
 658 624 658 624 659 498 c 2,27,-1
 659 52 l 2,28,29
 659 0 659 0 680 0 c 2,30,-1
 748 0 l 2,31,32
 771 0 771 0 771 54 c 2,33,-1
 771 465 l 1,34,35
 768 662 768 662 656 722 c 0,36,37
 616 744 616 744 606.5 746.5 c 128,-1,38
 597 749 597 749 597 753 c 128,-1,39
 597 757 597 757 603 761 c 1,40,41
 687 796 687 796 730.5 868.5 c 128,-1,42
 774 941 774 941 774 1082 c 0,43,44
 774 1284 774 1284 688 1362 c 0,45,46
 633 1411 633 1411 574 1423 c 0,47,48
 494 1438 494 1438 394 1438 c 2,49,-1
 131 1438 l 2,50,51
 118 1438 118 1438 113 1430.5 c 128,-1,52
 108 1423 108 1423 108 1393 c 2,53,-1
 108 43 l 2,13,14
EndSplineSet
EndChar

StartChar: S
Encoding: 83 83 54
Width: 742
GlyphClass: 2
Flags: MW
LayerCount: 2
Fore
SplineSet
389 1452 m 0,0,1
 254 1452 254 1452 173.5 1351 c 128,-1,2
 93 1250 93 1250 93 1086 c 0,3,4
 94 940 94 940 158 856 c 0,5,6
 207 791 207 791 284 737 c 2,7,-1
 421 644 l 2,8,9
 494 594 494 594 524 551 c 0,10,11
 575 478 575 478 575 358 c 128,-1,12
 575 238 575 238 518 161 c 128,-1,13
 461 84 461 84 374.5 84 c 128,-1,14
 288 84 288 84 229 120 c 128,-1,15
 170 156 170 156 116 238 c 0,16,17
 111 246 111 246 96.5 246 c 128,-1,18
 82 246 82 246 64 226 c 128,-1,19
 46 206 46 206 46 191 c 128,-1,20
 46 176 46 176 50 169 c 0,21,22
 163 -14 163 -14 368 -14 c 0,23,24
 511 -14 511 -14 596.5 96.5 c 128,-1,25
 682 207 682 207 682 377 c 0,26,27
 682 529 682 529 620 618 c 0,28,29
 568 693 568 693 482 750 c 2,30,-1
 347 840 l 2,31,32
 303 870 303 870 275 897 c 128,-1,33
 247 924 247 924 222.5 978 c 128,-1,34
 198 1032 198 1032 198 1122.5 c 128,-1,35
 198 1213 198 1213 248.5 1284.5 c 128,-1,36
 299 1356 299 1356 391 1356 c 0,37,38
 517 1356 517 1356 603 1248 c 0,39,40
 606 1244 606 1244 617 1244 c 128,-1,41
 628 1244 628 1244 646 1263.5 c 128,-1,42
 664 1283 664 1283 664 1300 c 128,-1,43
 664 1317 664 1317 656 1328 c 0,44,45
 557 1452 557 1452 389 1452 c 0,0,1
EndSplineSet
EndChar

StartChar: T
Encoding: 84 84 55
Width: 598
GlyphClass: 2
Flags: MW
LayerCount: 2
Fore
SplineSet
270 0 m 2,0,-1
 335 0 l 2,1,2
 348 0 348 0 353.5 8.5 c 128,-1,3
 359 17 359 17 359 47 c 2,4,-1
 359 1317 l 2,5,6
 359 1342 359 1342 369 1342 c 2,7,-1
 547 1342 l 2,8,9
 563 1342 563 1342 566.5 1350 c 128,-1,10
 570 1358 570 1358 570 1373 c 2,11,-1
 570 1401 l 2,12,13
 570 1426 570 1426 565 1432 c 128,-1,14
 560 1438 560 1438 547 1438 c 2,15,-1
 56 1438 l 2,16,17
 43 1438 43 1438 37.5 1432 c 128,-1,18
 32 1426 32 1426 32 1401 c 2,19,-1
 32 1373 l 2,20,21
 32 1346 32 1346 39.5 1344 c 128,-1,22
 47 1342 47 1342 56 1342 c 2,23,-1
 237 1342 l 2,24,25
 247 1342 247 1342 247 1317 c 2,26,-1
 247 47 l 2,27,28
 247 17 247 17 252.5 8.5 c 128,-1,29
 258 0 258 0 270 0 c 2,0,-1
EndSplineSet
EndChar

StartChar: U
Encoding: 85 85 56
Width: 918
GlyphClass: 2
Flags: MW
LayerCount: 2
Fore
SplineSet
556 -10 m 0,0,1
 592 -6 592 -6 631 9.5 c 128,-1,2
 670 25 670 25 696.5 52 c 128,-1,3
 723 79 723 79 748 124.5 c 128,-1,4
 773 170 773 170 787 234 c 0,5,6
 818 377 818 377 818 600 c 2,7,-1
 818 1391 l 2,8,9
 818 1421 818 1421 813 1429.5 c 128,-1,10
 808 1438 808 1438 795 1438 c 2,11,-1
 730 1438 l 2,12,13
 717 1438 717 1438 711.5 1429.5 c 128,-1,14
 706 1421 706 1421 706 1391 c 2,15,-1
 706 602 l 2,16,17
 706 300 706 300 664 196 c 0,18,19
 634 121 634 121 586 100 c 0,20,21
 540 80 540 80 475.5 80 c 129,-1,22
 411 80 411 80 375.5 89 c 128,-1,23
 340 98 340 98 306 128.5 c 0,24,25
 272 160 272 160 253 216 c 0,26,27
 211 341 211 341 211 602 c 2,28,-1
 211 1391 l 2,29,30
 211 1421 211 1421 205.5 1429.5 c 128,-1,31
 200 1438 200 1438 188 1438 c 2,32,-1
 123 1438 l 2,33,34
 110 1438 110 1438 104.5 1429.5 c 128,-1,35
 99 1421 99 1421 99 1391 c 2,36,-1
 99 600 l 2,37,38
 99 256 99 256 174 124 c 0,39,40
 224 36 224 36 297 10 c 0,41,42
 367 -16 367 -16 459 -16 c 0,43,44
 505 -16 505 -16 556 -10 c 0,0,1
EndSplineSet
EndChar

StartChar: V
Encoding: 86 86 57
Width: 743
GlyphClass: 2
Flags: MW
LayerCount: 2
Fore
SplineSet
345 0 m 1,0,-1
 416 0 l 1,1,2
 440 3 440 3 450 59 c 2,3,-1
 686 1371 l 2,4,5
 689 1390 689 1390 689 1414 c 0,6,7
 689 1438 689 1438 674 1438 c 2,8,-1
 613 1438 l 2,9,10
 590 1438 590 1438 580 1375 c 2,11,-1
 386 211 l 1,12,-1
 174 1375 l 2,13,14
 162 1438 162 1438 140 1438 c 2,15,-1
 69 1438 l 2,16,17
 54 1438 54 1438 54 1416 c 0,18,19
 54 1394 54 1394 58 1371 c 2,20,-1
 310 59 l 2,21,22
 321 4 321 4 345 0 c 1,0,-1
EndSplineSet
EndChar

StartChar: W
Encoding: 87 87 58
Width: 1152
GlyphClass: 2
Flags: MW
LayerCount: 2
Fore
SplineSet
287 0 m 1,0,-1
 345 0 l 1,1,2
 363 4 363 4 374 68 c 2,3,-1
 571 1225 l 1,4,-1
 780 68 l 2,5,6
 792 3 792 3 818 0 c 1,7,-1
 882 0 l 1,8,9
 905 3 905 3 914 68 c 2,10,-1
 1093 1370 l 2,11,12
 1097 1398 1097 1398 1097 1418 c 0,13,14
 1097 1438 1097 1438 1082 1438 c 2,15,-1
 1025 1438 l 2,16,17
 1000 1438 1000 1438 991 1370 c 2,18,-1
 848 259 l 1,19,-1
 647 1361 l 2,20,21
 637 1416 637 1416 609 1418 c 1,22,-1
 542 1418 l 2,23,24
 515 1418 515 1418 504 1362 c 1,25,-1
 323 290 l 1,26,-1
 173 1370 l 1,27,28
 162 1438 162 1438 137 1438 c 2,29,-1
 73 1438 l 2,30,31
 58 1438 58 1438 58 1412 c 0,32,33
 58 1386 58 1386 62 1370 c 1,34,-1
 253 68 l 1,35,36
 264 3 264 3 287 0 c 1,0,-1
EndSplineSet
EndChar

StartChar: X
Encoding: 88 88 59
Width: 779
GlyphClass: 2
Flags: MW
LayerCount: 2
Fore
SplineSet
69 0 m 2,0,-1
 122 0 l 2,1,2
 148 0 148 0 167 48 c 2,3,-1
 390 616 l 1,4,-1
 592 49 l 2,5,6
 609 0 609 0 638 0 c 2,7,-1
 708 0 l 2,8,9
 724 0 724 0 724 20.5 c 128,-1,10
 724 41 724 41 716 65 c 2,11,-1
 467 760 l 1,12,-1
 714 1384 l 2,13,14
 720 1398 720 1398 720 1418 c 128,-1,15
 720 1438 720 1438 704 1438 c 2,16,-1
 648 1438 l 2,17,18
 619 1438 619 1438 599 1389 c 1,19,-1
 408 880 l 1,20,-1
 223 1389 l 2,21,22
 206 1438 206 1438 176 1438 c 2,23,-1
 92 1438 l 2,24,25
 81 1438 81 1438 81 1424.5 c 128,-1,26
 81 1411 81 1411 91 1373 c 1,27,-1
 330 733 l 1,28,-1
 67 64 l 2,29,30
 58 42 58 42 58 21 c 128,-1,31
 58 0 58 0 69 0 c 2,0,-1
EndSplineSet
EndChar

StartChar: Y
Encoding: 89 89 60
Width: 645
GlyphClass: 2
Flags: MW
LayerCount: 2
Fore
SplineSet
267 52 m 2,0,1
 267 0 267 0 290 0 c 2,2,-1
 358 0 l 2,3,4
 381 0 381 0 381 52 c 2,5,-1
 381 543 l 1,6,-1
 600 1380 l 2,7,8
 605 1396 605 1396 605 1417 c 128,-1,9
 605 1438 605 1438 586 1438 c 2,10,-1
 534 1438 l 2,11,12
 522 1438 522 1438 511 1427 c 128,-1,13
 500 1416 500 1416 496 1396 c 2,14,-1
 329 729 l 1,15,-1
 160 1396 l 2,16,17
 149 1438 149 1438 119 1438 c 2,18,-1
 60 1438 l 2,19,20
 40 1438 40 1438 40 1416 c 0,21,22
 40 1401 40 1401 47 1380 c 1,23,-1
 267 540 l 1,24,-1
 267 52 l 2,0,1
EndSplineSet
EndChar

StartChar: Z
Encoding: 90 90 61
Width: 645
GlyphClass: 2
Flags: MW
LayerCount: 2
Fore
SplineSet
104 0 m 2,0,-1
 565 0 l 2,1,2
 588 0 588 0 588 31 c 2,3,-1
 588 61 l 2,4,5
 588 88 588 88 581 89 c 128,-1,6
 574 90 574 90 565 90 c 2,7,-1
 223 90 l 2,8,9
 216 90 216 90 216 102 c 128,-1,10
 216 114 216 114 221 129 c 2,11,-1
 566 1303 l 2,12,13
 579 1347 579 1347 579 1390 c 2,14,-1
 579 1407 l 2,15,16
 579 1428 579 1428 573.5 1433 c 128,-1,17
 568 1438 568 1438 556 1438 c 2,18,-1
 110 1438 l 2,19,20
 97 1438 97 1438 91.5 1433 c 128,-1,21
 86 1428 86 1428 86 1407 c 2,22,-1
 86 1379 l 2,23,24
 86 1352 86 1352 93.5 1350 c 128,-1,25
 101 1348 101 1348 110 1348 c 2,26,-1
 438 1348 l 2,27,28
 449 1348 449 1348 449 1337 c 128,-1,29
 449 1326 449 1326 444 1301 c 1,30,-1
 91 105 l 2,31,32
 82 73 82 73 82 52 c 2,33,-1
 82 31 l 2,34,35
 82 10 82 10 87 5 c 128,-1,36
 92 0 92 0 104 0 c 2,0,-1
EndSplineSet
EndChar

StartChar: bracketleft
Encoding: 91 91 62
Width: 479
GlyphClass: 2
Flags: MW
LayerCount: 2
Fore
SplineSet
134 1501 m 2,0,1
 107 1501 107 1501 107 1430 c 2,2,-1
 107 -11 l 2,3,4
 107 -78 107 -78 134 -78 c 2,5,-1
 365 -78 l 2,6,7
 388 -78 388 -78 388 -27 c 2,8,-1
 388 5 l 2,9,10
 388 62 388 62 365 62 c 2,11,-1
 232 62 l 2,12,13
 222 62 222 62 222 91 c 2,14,-1
 222 1323 l 2,15,16
 222 1352 222 1352 232 1352 c 2,17,-1
 365 1352 l 2,18,19
 388 1352 388 1352 388 1407 c 2,20,-1
 388 1446 l 2,21,22
 388 1501 388 1501 365 1501 c 2,23,-1
 134 1501 l 2,0,1
EndSplineSet
EndChar

StartChar: backslash
Encoding: 92 92 63
Width: 528
GlyphClass: 2
Flags: MW
LayerCount: 2
Fore
SplineSet
103 1623 m 1,0,-1
 337 -170 l 2,1,2
 342 -205 342 -205 354 -205 c 2,3,-1
 436 -205 l 2,4,5
 444 -205 444 -205 444 -179 c 1,6,-1
 209 1612 l 2,7,8
 204 1647 204 1647 193 1647 c 2,9,-1
 111 1647 l 2,10,11
 103 1647 103 1647 103 1623 c 1,0,-1
EndSplineSet
EndChar

StartChar: bracketright
Encoding: 93 93 64
Width: 480
GlyphClass: 2
Flags: MW
LayerCount: 2
Fore
SplineSet
373 1428 m 2,0,1
 373 1501 373 1501 347 1501 c 2,2,-1
 117 1501 l 2,3,4
 93 1501 93 1501 93 1444 c 2,5,-1
 93 1377 l 2,6,7
 93 1320 93 1320 117 1320 c 2,8,-1
 248 1320 l 2,9,10
 258 1320 258 1320 258 1291 c 2,11,-1
 258 134 l 2,12,13
 258 105 258 105 248 105 c 2,14,-1
 116 105 l 2,15,16
 93 105 93 105 93 50 c 2,17,-1
 93 -29 l 2,18,19
 93 -84 93 -84 117 -84 c 2,20,-1
 347 -84 l 2,21,22
 373 -84 373 -84 373 -13 c 2,23,-1
 373 1428 l 2,0,1
EndSplineSet
EndChar

StartChar: asciicircum
Encoding: 94 94 65
Width: 1030
GlyphClass: 2
Flags: MW
LayerCount: 2
Fore
SplineSet
127 247 m 2,0,-1
 159 247 l 2,1,2
 185 247 185 247 196.5 260 c 128,-1,3
 208 273 208 273 222 316 c 2,4,-1
 492 1095 l 2,5,6
 503 1126 503 1126 511.5 1126 c 128,-1,7
 520 1126 520 1126 523.5 1120.5 c 128,-1,8
 527 1115 527 1115 534 1095 c 2,9,-1
 812 316 l 2,10,11
 826 275 826 275 838 261 c 128,-1,12
 850 247 850 247 870 247 c 2,13,-1
 903 247 l 2,14,15
 932 247 932 247 932 278 c 0,16,17
 932 291 932 291 924 315 c 2,18,-1
 607 1185 l 1,19,20
 587 1232 587 1232 570 1242.5 c 128,-1,21
 553 1253 553 1253 530 1253 c 2,22,-1
 497 1253 l 2,23,24
 464 1253 464 1253 448 1237.5 c 128,-1,25
 432 1222 432 1222 418 1186 c 1,26,-1
 107 314 l 2,27,28
 99 293 99 293 99 276 c 0,29,30
 99 247 99 247 127 247 c 2,0,-1
EndSplineSet
EndChar

StartChar: underscore
Encoding: 95 95 66
Width: 666
GlyphClass: 2
Flags: MW
LayerCount: 2
Fore
SplineSet
637 16 m 2,0,1
 637 48 637 48 605 48 c 2,2,-1
 63 48 l 2,3,4
 47 48 47 48 39.5 41.5 c 128,-1,5
 32 35 32 35 32 14 c 2,6,-1
 32 -6 l 2,7,8
 32 -26 32 -26 39.5 -32.5 c 128,-1,9
 47 -39 47 -39 63 -39 c 2,10,-1
 605 -39 l 2,11,12
 621 -39 621 -39 629 -32.5 c 128,-1,13
 637 -26 637 -26 637 -5 c 2,14,-1
 637 16 l 2,0,1
EndSplineSet
EndChar

StartChar: grave
Encoding: 96 96 67
Width: 596
GlyphClass: 2
Flags: MW
LayerCount: 2
Fore
SplineSet
468 1167 m 2,0,1
 482 1167 482 1167 482 1193.5 c 128,-1,2
 482 1220 482 1220 481 1234 c 2,3,-1
 461 1548 l 1,4,5
 456 1603 456 1603 435 1603 c 2,6,-1
 371 1603 l 2,7,8
 361 1603 361 1603 361 1582.5 c 128,-1,9
 361 1562 361 1562 365 1538 c 2,10,-1
 427 1206 l 2,11,12
 434 1167 434 1167 447 1167 c 2,13,-1
 468 1167 l 2,0,1
EndSplineSet
EndChar

StartChar: a
Encoding: 97 97 68
Width: 669
GlyphClass: 2
Flags: MW
LayerCount: 2
Fore
SplineSet
293 70 m 0,0,1
 167 70 167 70 167 248 c 0,2,3
 167 418 167 418 291 486 c 0,4,5
 351 519 351 519 411 527.5 c 128,-1,6
 471 536 471 536 474.5 536 c 128,-1,7
 478 536 478 536 478 473 c 0,8,9
 478 296 478 296 431 183 c 128,-1,10
 384 70 384 70 293 70 c 0,0,1
277 -12 m 0,11,12
 447 -12 447 -12 493 206 c 0,13,14
 495 216 495 216 498 212 c 128,-1,15
 501 208 501 208 501.5 196.5 c 128,-1,16
 502 185 502 185 513 116 c 128,-1,17
 524 47 524 47 528 22 c 128,-1,18
 532 -3 532 -3 549 -3 c 2,19,-1
 563 -3 l 2,20,21
 582 -3 582 -3 582 47 c 2,22,-1
 582 640 l 2,23,24
 582 841 582 841 525.5 929.5 c 128,-1,25
 469 1018 469 1018 345 1018 c 0,26,27
 190 1018 190 1018 128 900 c 0,28,29
 110 866 110 866 98 826.5 c 128,-1,30
 86 787 86 787 92 775 c 1,31,32
 96 759 96 759 148 748 c 1,33,34
 166 742 166 742 178 776 c 0,35,36
 220 902 220 902 277 924 c 0,37,38
 304 934 304 934 340.5 934 c 128,-1,39
 377 934 377 934 401.5 920 c 128,-1,40
 426 906 426 906 440 883.5 c 128,-1,41
 454 861 454 861 462 825 c 0,42,43
 476 768 476 768 476 668 c 2,44,-1
 476 610 l 1,45,46
 468 607 468 607 428 600 c 128,-1,47
 388 593 388 593 347 584 c 128,-1,48
 306 575 306 575 254.5 550 c 128,-1,49
 203 525 203 525 164.5 489 c 128,-1,50
 126 453 126 453 99.5 388 c 128,-1,51
 73 323 73 323 73 221.5 c 128,-1,52
 73 120 73 120 123.5 54 c 128,-1,53
 174 -12 174 -12 277 -12 c 0,11,12
EndSplineSet
EndChar

StartChar: b
Encoding: 98 98 69
Width: 712
GlyphClass: 2
Flags: MW
LayerCount: 2
Fore
SplineSet
486.5 177 m 128,-1,1
 443 73 443 73 371.5 73 c 128,-1,2
 300 73 300 73 252 198 c 128,-1,3
 204 323 204 323 204 509 c 128,-1,4
 204 695 204 695 256 814.5 c 128,-1,5
 308 934 308 934 377.5 934 c 128,-1,6
 447 934 447 934 488.5 831 c 128,-1,7
 530 728 530 728 530 504.5 c 128,-1,0
 530 281 530 281 486.5 177 c 128,-1,1
98 56 m 2,8,9
 98 0 98 0 117 0 c 2,10,-1
 128 0 l 2,11,12
 156 0 156 0 170 160 c 0,13,14
 174 214 174 214 177 214 c 128,-1,15
 180 214 180 214 182 209 c 0,16,17
 214 94 214 94 269 41 c 128,-1,18
 324 -12 324 -12 379.5 -12 c 128,-1,19
 435 -12 435 -12 476.5 14.5 c 0,20,21
 518 42 518 42 554 98 c 0,22,23
 634 223 634 223 635 503 c 0,24,25
 636 902 636 902 490 994 c 0,26,27
 450 1019 450 1019 396.5 1019 c 128,-1,28
 343 1019 343 1019 291.5 973 c 128,-1,29
 240 927 240 927 210 839 c 1,30,31
 210 834 210 834 207 834 c 128,-1,32
 204 834 204 834 204 845 c 2,33,-1
 204 1366 l 2,34,35
 204 1435 204 1435 181 1435 c 2,36,-1
 121 1435 l 2,37,38
 98 1435 98 1435 98 1366 c 2,39,-1
 98 56 l 2,8,9
EndSplineSet
EndChar

StartChar: c
Encoding: 99 99 70
Width: 528
GlyphClass: 2
Flags: MW
LayerCount: 2
Fore
SplineSet
465 914 m 1,0,1
 473 922 473 922 473 926 c 2,2,-1
 473 986 l 2,3,4
 473 987 473 987 469.5 992.5 c 128,-1,5
 466 998 466 998 465 998 c 0,6,7
 411 1019 411 1019 358 1019 c 128,-1,8
 305 1019 305 1019 272.5 1010.5 c 128,-1,9
 240 1002 240 1002 201.5 971.5 c 0,10,11
 162 941 162 941 138 888 c 0,12,13
 80 761 80 761 80 507 c 0,14,15
 80 27 80 27 296 -8 c 0,16,17
 320 -12 320 -12 364.5 -12 c 128,-1,18
 409 -12 409 -12 465 9 c 1,19,20
 475 19 475 19 475 23 c 2,21,-1
 475 81 l 2,22,23
 475 82 475 82 470.5 88 c 128,-1,24
 466 94 466 94 465 94 c 0,25,26
 410 75 410 75 374 75 c 128,-1,27
 338 75 338 75 314.5 82 c 128,-1,28
 291 89 291 89 265.5 115 c 0,29,30
 240 140 240 140 224 186 c 0,31,32
 188 293 188 293 188 458 c 128,-1,33
 188 623 188 623 199.5 705.5 c 128,-1,34
 211 788 211 788 227 831 c 128,-1,35
 243 874 243 874 270 898 c 128,-1,36
 297 922 297 922 317.5 927 c 128,-1,37
 338 932 338 932 372 932 c 128,-1,38
 406 932 406 932 465 914 c 1,0,1
EndSplineSet
EndChar

StartChar: d
Encoding: 100 100 71
Width: 716
GlyphClass: 2
Flags: MW
LayerCount: 2
Fore
SplineSet
465 820.5 m 128,-1,1
 512 707 512 707 512 508.5 c 128,-1,2
 512 310 512 310 465.5 191.5 c 128,-1,3
 419 73 419 73 345 73 c 0,4,5
 294 73 294 73 260 108 c 0,6,7
 186 186 186 186 186 507 c 0,8,9
 186 874 186 874 295 924 c 0,10,11
 317 934 317 934 346 934 c 0,12,0
 418 934 418 934 465 820.5 c 128,-1,1
506 842 m 0,13,14
 416 990 416 990 327 1019 c 1,15,16
 182 1020 182 1020 128 878 c 0,17,18
 78 750 78 750 78 504 c 0,19,20
 78 144 78 144 190 40 c 0,21,22
 245 -12 245 -12 325.5 -12 c 129,-1,23
 406 -12 406 -12 457 43.5 c 128,-1,24
 508 99 508 99 539 224 c 1,25,26
 542 216 542 216 547 156 c 0,27,28
 560 0 560 0 586 0 c 2,29,-1
 598 0 l 2,30,31
 618 0 618 0 618 67 c 2,32,-1
 618 1370 l 2,33,34
 618 1435 618 1435 594 1435 c 2,35,-1
 537 1435 l 2,36,37
 512 1435 512 1435 512 1370 c 2,38,-1
 512 843 l 2,39,40
 512 830 512 830 511 830 c 0,41,42
 506 840 506 840 506 842 c 0,13,14
EndSplineSet
EndChar

StartChar: e
Encoding: 101 101 72
Width: 662
GlyphClass: 2
Flags: MW
LayerCount: 2
Fore
SplineSet
192 549 m 2,0,1
 189 549 189 549 189 608 c 1,2,3
 209 934 209 934 350 934 c 1,4,5
 429 934 429 934 463 846.5 c 128,-1,6
 497 759 497 759 505 558 c 0,7,8
 505 549 505 549 504 549 c 2,9,-1
 192 549 l 2,0,1
361 -12 m 0,10,11
 470 -12 470 -12 527.5 64.5 c 128,-1,12
 585 141 585 141 585 252 c 0,13,14
 585 256 585 256 584 274 c 1,15,-1
 584 291 l 1,16,17
 583 304 583 304 571 304 c 2,18,-1
 519 304 l 2,19,20
 514 304 514 304 511 279.5 c 128,-1,21
 508 255 508 255 504.5 232.5 c 128,-1,22
 501 210 501 210 491.5 177.5 c 0,23,24
 482 144 482 144 468 124 c 0,25,26
 433 72 433 72 380 72.5 c 129,-1,27
 327 73 327 73 295.5 97.5 c 128,-1,28
 264 122 264 122 244.5 161 c 128,-1,29
 225 200 225 200 212 253 c 0,30,31
 188 351 188 351 188 416 c 128,-1,32
 188 481 188 481 194 481 c 2,33,-1
 556 481 l 2,34,35
 594 481 594 481 594 556 c 0,36,37
 594 801 594 801 533 910 c 128,-1,38
 472 1019 472 1019 352 1019 c 0,39,40
 80 1019 80 1019 80 503.5 c 128,-1,41
 80 -12 80 -12 361 -12 c 0,10,11
EndSplineSet
EndChar

StartChar: f
Encoding: 102 102 73
Width: 434
GlyphClass: 2
Flags: MW
LayerCount: 2
Fore
SplineSet
129 72 m 2,0,1
 129 0 129 0 155 0 c 2,2,-1
 210 0 l 2,3,4
 235 0 235 0 235 72 c 2,5,-1
 235 887 l 2,6,7
 235 912 235 912 244 912 c 2,8,-1
 378 912 l 2,9,10
 400 912 400 912 400 940 c 2,11,-1
 400 980 l 2,12,13
 400 1006 400 1006 378 1006 c 2,14,-1
 238 1006 l 2,15,16
 235 1006 235 1006 235 1012 c 2,17,-1
 235 1093 l 2,18,19
 235 1248 235 1248 254.5 1296 c 128,-1,20
 274 1344 274 1344 341 1344 c 2,21,-1
 394 1344 l 2,22,23
 404 1344 404 1344 405.5 1349 c 128,-1,24
 407 1354 407 1354 407 1380 c 2,25,-1
 407 1409 l 2,26,27
 407 1433 407 1433 400.5 1434.5 c 128,-1,28
 394 1436 394 1436 386.5 1437.5 c 128,-1,29
 379 1439 379 1439 313 1439 c 128,-1,30
 247 1439 247 1439 206.5 1407 c 128,-1,31
 166 1375 166 1375 147.5 1289.5 c 128,-1,32
 129 1204 129 1204 129 1036 c 0,33,34
 129 1006 129 1006 121 1006 c 2,35,-1
 71 1006 l 2,36,37
 47 1006 47 1006 47 977 c 2,38,-1
 47 940 l 2,39,40
 47 912 47 912 71 912 c 2,41,-1
 121 912 l 2,42,43
 129 912 129 912 129 887 c 2,44,-1
 129 72 l 2,0,1
EndSplineSet
EndChar

StartChar: g
Encoding: 103 103 74
Width: 634
GlyphClass: 2
Flags: MW
LayerCount: 2
Fore
SplineSet
333 424 m 1,0,1
 175 424 175 424 175 683 c 128,-1,2
 175 942 175 942 312 942 c 0,3,4
 432 942 432 942 460 770 c 0,5,6
 468 724 468 724 467.5 668 c 128,-1,7
 467 612 467 612 463 574 c 128,-1,8
 459 536 459 536 446 498 c 0,9,10
 420 424 420 424 333 424 c 1,0,1
521 -31 m 0,11,12
 520 -218 520 -218 332 -218 c 0,13,14
 238 -218 238 -218 209 -186.5 c 128,-1,15
 180 -155 180 -155 180 -92.5 c 128,-1,16
 180 -30 180 -30 209.5 35.5 c 128,-1,17
 239 101 239 101 263 101 c 2,18,-1
 379 101 l 2,19,20
 521 101 521 101 521 -31 c 0,11,12
608 -26 m 0,21,22
 608 173 608 173 381 173 c 2,23,-1
 263 173 l 2,24,25
 214 173 214 173 188 197 c 128,-1,26
 162 221 162 221 162 256 c 0,27,28
 162 327 162 327 218 379 c 1,29,30
 268 349 268 349 336 349 c 0,31,32
 463 349 463 349 514 433 c 0,33,34
 565 516 565 516 565 644 c 0,35,36
 565 878 565 878 455 963 c 1,37,38
 439 974 439 974 444 996 c 2,39,-1
 511 1273 l 2,40,41
 515 1289 515 1289 511 1301.5 c 128,-1,42
 507 1314 507 1314 499 1314 c 2,43,-1
 450 1314 l 2,44,45
 435 1314 435 1314 428.5 1306.5 c 128,-1,46
 422 1299 422 1299 420 1271 c 2,47,-1
 396 1025 l 2,48,49
 395 1013 395 1013 391.5 1009.5 c 128,-1,50
 388 1006 388 1006 361 1012.5 c 128,-1,51
 334 1019 334 1019 292.5 1019 c 128,-1,52
 251 1019 251 1019 202 992.5 c 0,53,54
 154 966 154 966 126 918 c 0,55,56
 72 825 72 825 72 678.5 c 128,-1,57
 72 532 72 532 145 436 c 0,58,59
 150 429 150 429 150 421.5 c 128,-1,60
 150 414 150 414 146.5 409 c 128,-1,61
 143 404 143 404 134 392.5 c 128,-1,62
 125 381 125 381 124 379.5 c 128,-1,63
 123 378 123 378 115.5 367.5 c 128,-1,64
 108 357 108 357 106.5 353.5 c 128,-1,65
 105 350 105 350 99.5 339.5 c 128,-1,66
 94 329 94 329 92.5 322.5 c 128,-1,67
 91 316 91 316 87.5 305 c 128,-1,68
 84 294 84 294 83 284 c 0,69,70
 80 254 80 254 80 233 c 0,71,72
 80 162 80 162 155 127 c 0,73,74
 164 122 164 122 164 116 c 128,-1,75
 164 110 164 110 145 77.5 c 128,-1,76
 126 45 126 45 104.5 -17 c 128,-1,77
 83 -79 83 -79 83 -123 c 0,78,79
 83 -201 83 -201 141.5 -246.5 c 128,-1,80
 200 -292 200 -292 320 -292 c 0,81,82
 608 -292 608 -292 608 -26 c 0,21,22
EndSplineSet
EndChar

StartChar: h
Encoding: 104 104 75
Width: 684
GlyphClass: 2
Flags: MW
LayerCount: 2
Fore
SplineSet
99 51 m 2,0,1
 99 0 99 0 122 0 c 2,2,-1
 182 0 l 2,3,4
 205 0 205 0 205 51 c 2,5,-1
 205 605 l 2,6,7
 205 686 205 686 231 762.5 c 128,-1,8
 257 839 257 839 300 886.5 c 128,-1,9
 343 934 343 934 394 934 c 128,-1,10
 445 934 445 934 467.5 861.5 c 128,-1,11
 490 789 490 789 490 621 c 2,12,-1
 490 51 l 2,13,14
 490 0 490 0 513 0 c 2,15,-1
 573 0 l 2,16,17
 596 0 596 0 596 51 c 2,18,-1
 596 591 l 2,19,20
 596 910 596 910 514 984 c 0,21,22
 475 1020 475 1020 413.5 1019.5 c 128,-1,23
 352 1019 352 1019 298 975 c 128,-1,24
 244 931 244 931 213 835 c 0,25,26
 212 831 212 831 208.5 831 c 128,-1,27
 205 831 205 831 205 839 c 2,28,-1
 205 1383 l 2,29,30
 205 1438 205 1438 181 1438 c 2,31,-1
 122 1438 l 2,32,33
 99 1438 99 1438 99 1383 c 2,34,-1
 99 51 l 2,0,1
EndSplineSet
EndChar

StartChar: i
Encoding: 105 105 76
Width: 310
GlyphClass: 2
Flags: MW
LayerCount: 2
Fore
SplineSet
107 53 m 2,0,1
 107 0 107 0 130 0 c 2,2,-1
 190 0 l 2,3,4
 213 0 213 0 213 53 c 2,5,-1
 213 953 l 2,6,7
 213 1006 213 1006 190 1006 c 2,8,-1
 130 1006 l 2,9,10
 107 1006 107 1006 107 953 c 2,11,-1
 107 53 l 2,0,1
99 1223 m 2,12,13
 99 1174 99 1174 122 1174 c 2,14,-1
 198 1174 l 2,15,16
 221 1174 221 1174 221 1223 c 2,17,-1
 221 1295 l 2,18,19
 221 1344 221 1344 198 1344 c 2,20,-1
 122 1344 l 2,21,22
 99 1344 99 1344 99 1295 c 2,23,-1
 99 1223 l 2,12,13
EndSplineSet
EndChar

StartChar: j
Encoding: 106 106 77
Width: 350
GlyphClass: 2
Flags: MW
LayerCount: 2
Fore
SplineSet
134 1223 m 2,0,1
 134 1174 134 1174 157 1174 c 2,2,-1
 230 1174 l 2,3,4
 253 1174 253 1174 253 1223 c 2,5,-1
 253 1295 l 2,6,7
 253 1344 253 1344 230 1344 c 2,8,-1
 157 1344 l 2,9,10
 134 1344 134 1344 134 1295 c 2,11,-1
 134 1223 l 2,0,1
248 953 m 2,12,13
 248 1006 248 1006 224 1006 c 2,14,-1
 165 1006 l 2,15,16
 142 1006 142 1006 142 953 c 2,17,-1
 142 11 l 2,18,19
 142 -117 142 -117 129 -157.5 c 128,-1,20
 116 -198 116 -198 76 -198 c 2,21,-1
 37 -198 l 2,22,23
 16 -198 16 -198 16 -229 c 2,24,-1
 16 -269 l 2,25,26
 16 -304 16 -304 37 -304 c 2,27,-1
 90 -304 l 2,28,29
 157 -304 157 -304 184.5 -281 c 128,-1,30
 212 -258 212 -258 224 -224 c 0,31,32
 248 -153 248 -153 248 3 c 2,33,-1
 248 953 l 2,12,13
EndSplineSet
EndChar

StartChar: k
Encoding: 107 107 78
Width: 654
GlyphClass: 2
Flags: MW
LayerCount: 2
Fore
SplineSet
382 544 m 1,0,-1
 378 555 l 1,1,2
 378 559 378 559 382 567 c 2,3,-1
 596 943 l 2,4,5
 610 967 610 967 610 986.5 c 128,-1,6
 610 1006 610 1006 600 1006 c 2,7,-1
 532 1006 l 2,8,9
 521 1006 521 1006 510 990 c 0,10,11
 491 962 491 962 478 943 c 1,12,-1
 212 473 l 1,13,-1
 209 470 l 1,14,15
 205 470 205 470 205 481 c 2,16,-1
 205 1380 l 2,17,18
 205 1445 205 1445 181 1445 c 2,19,-1
 122 1445 l 2,20,21
 99 1445 99 1445 99 1380 c 2,22,-1
 99 65 l 2,23,24
 99 0 99 0 122 0 c 2,25,-1
 181 0 l 2,26,27
 205 0 205 0 205 65 c 2,28,-1
 205 302 l 2,29,30
 205 320 205 320 208 326 c 128,-1,31
 211 332 211 332 228 362 c 0,32,33
 297 486 297 486 303 486.5 c 129,-1,34
 309 487 309 487 311 479 c 1,35,-1
 498 61 l 1,36,37
 523 0 523 0 540 0 c 2,38,-1
 610 0 l 2,39,40
 622 0 622 0 622 22 c 128,-1,41
 622 44 622 44 612 64 c 2,42,-1
 382 544 l 1,0,-1
EndSplineSet
EndChar

StartChar: l
Encoding: 108 108 79
Width: 309
GlyphClass: 2
Flags: MW
LayerCount: 2
Fore
SplineSet
132 0 m 2,0,-1
 192 0 l 2,1,2
 215 0 215 0 215 63 c 2,3,-1
 215 1380 l 2,4,5
 215 1445 215 1445 192 1445 c 2,6,-1
 132 1445 l 2,7,8
 109 1445 109 1445 109 1380 c 2,9,-1
 109 63 l 2,10,11
 109 0 109 0 132 0 c 2,0,-1
EndSplineSet
EndChar

StartChar: m
Encoding: 109 109 80
Width: 1044
GlyphClass: 2
Flags: MW
LayerCount: 2
Fore
SplineSet
121 0 m 2,0,-1
 179 0 l 2,1,2
 203 0 203 0 203 57 c 2,3,-1
 203 608 l 2,4,5
 203 775 203 775 283 882 c 0,6,7
 322 934 322 934 372.5 934 c 128,-1,8
 423 934 423 934 448.5 870 c 128,-1,9
 474 806 474 806 474 645 c 2,10,-1
 474 57 l 2,11,12
 474 0 474 0 498 0 c 2,13,-1
 556 0 l 2,14,15
 580 0 580 0 580 57 c 2,16,-1
 580 611 l 2,17,18
 580 784 580 784 663 886 c 0,19,20
 702 934 702 934 751 934 c 128,-1,21
 800 934 800 934 825 871 c 128,-1,22
 850 808 850 808 850 649 c 2,23,-1
 850 57 l 2,24,25
 850 0 850 0 874 0 c 2,26,-1
 933 0 l 2,27,28
 956 0 956 0 956 57 c 2,29,-1
 956 606 l 2,30,31
 956 891 956 891 880 972 c 0,32,33
 836 1019 836 1019 768 1019 c 128,-1,34
 700 1019 700 1019 647 967 c 128,-1,35
 594 915 594 915 567 803 c 0,36,37
 566 797 566 797 564 797 c 128,-1,38
 562 797 562 797 560 803 c 0,39,40
 534 924 534 924 491.5 971.5 c 128,-1,41
 449 1019 449 1019 384 1019 c 128,-1,42
 319 1019 319 1019 267 967 c 128,-1,43
 215 915 215 915 187 798 c 1,44,45
 185 784 185 784 181.5 784 c 128,-1,46
 178 784 178 784 176 797 c 2,47,-1
 164 950 l 1,48,49
 160 984 160 984 153.5 995 c 128,-1,50
 147 1006 147 1006 134 1006 c 2,51,-1
 119 1006 l 2,52,53
 97 1006 97 1006 97 937 c 2,54,-1
 97 57 l 2,55,56
 97 0 97 0 121 0 c 2,0,-1
EndSplineSet
EndChar

StartChar: n
Encoding: 110 110 81
Width: 679
GlyphClass: 2
Flags: MW
LayerCount: 2
Fore
SplineSet
98 51 m 2,0,1
 98 0 98 0 122 0 c 2,2,-1
 181 0 l 2,3,4
 204 0 204 0 204 51 c 2,5,-1
 204 629 l 2,6,7
 204 751 204 751 254 842.5 c 128,-1,8
 304 934 304 934 377 934 c 0,9,10
 485 934 485 934 485 645 c 2,11,-1
 485 51 l 2,12,13
 485 0 485 0 508 0 c 2,14,-1
 568 0 l 2,15,16
 591 0 591 0 591 51 c 2,17,-1
 591 625 l 2,18,19
 590 938 590 938 474 1000 c 0,20,21
 440 1018 440 1018 393 1019 c 0,22,23
 239 1019 239 1019 188 818 c 1,24,25
 186 805 186 805 182.5 805 c 128,-1,26
 179 805 179 805 176 817 c 1,27,-1
 164 954 l 1,28,29
 160 988 160 988 153.5 997 c 128,-1,30
 147 1006 147 1006 134 1006 c 2,31,-1
 120 1006 l 2,32,33
 98 1006 98 1006 98 941 c 2,34,-1
 98 51 l 2,0,1
EndSplineSet
EndChar

StartChar: o
Encoding: 111 111 82
Width: 702
GlyphClass: 2
Flags: MW
LayerCount: 2
Fore
SplineSet
352 -12 m 0,0,1
 394 -12 394 -12 429 -2 c 128,-1,2
 464 8 464 8 501.5 40.5 c 128,-1,3
 539 73 539 73 564 127 c 0,4,5
 622 252 622 252 622 504 c 0,6,7
 622 872 622 872 504 970 c 0,8,9
 466 1002 466 1002 432 1010.5 c 128,-1,10
 398 1019 398 1019 353 1019 c 128,-1,11
 308 1019 308 1019 273 1010 c 128,-1,12
 238 1001 238 1001 200 969.5 c 128,-1,13
 162 938 162 938 137 884 c 0,14,15
 80 761 80 761 80 504 c 0,16,17
 80 142 80 142 202 40 c 0,18,19
 264 -12 264 -12 352 -12 c 0,0,1
352 73 m 128,-1,21
 314 73 314 73 287 89 c 128,-1,22
 260 105 260 105 236 149 c 0,23,24
 188 237 188 237 188 504 c 0,25,26
 188 886 188 886 302 926 c 0,27,28
 324 934 324 934 352.5 934 c 128,-1,29
 381 934 381 934 402 926.5 c 128,-1,30
 423 919 423 919 446 893.5 c 128,-1,31
 469 868 469 868 483 822 c 0,32,33
 515 718 515 718 515 543.5 c 128,-1,34
 515 369 515 369 503 280 c 128,-1,35
 491 191 491 191 467 147.5 c 128,-1,36
 443 104 443 104 416.5 88.5 c 128,-1,20
 390 73 390 73 352 73 c 128,-1,21
EndSplineSet
EndChar

StartChar: p
Encoding: 112 112 83
Width: 718
GlyphClass: 2
Flags: MW
LayerCount: 2
Fore
SplineSet
369 73 m 0,0,1
 300 73 300 73 252 191 c 0,2,3
 204 308 204 308 204 500 c 128,-1,4
 204 692 204 692 251.5 813 c 128,-1,5
 299 934 299 934 369 934 c 128,-1,6
 439 934 439 934 485 819.5 c 128,-1,7
 531 705 531 705 531 505 c 0,8,9
 531 73 531 73 369 73 c 0,0,1
121 -401 m 2,10,-1
 181 -401 l 2,11,12
 204 -401 204 -401 204 -337 c 2,13,-1
 204 162 l 2,14,15
 204 172 204 172 206 172 c 128,-1,16
 208 172 208 172 210 166 c 0,17,18
 239 79 239 79 285.5 33.5 c 128,-1,19
 332 -12 332 -12 387 -12 c 0,20,21
 497 -12 497 -12 567.5 114 c 128,-1,22
 638 240 638 240 638 501 c 128,-1,23
 638 762 638 762 566 890 c 128,-1,24
 494 1018 494 1018 390 1018 c 0,25,26
 328 1018 328 1018 271 959.5 c 128,-1,27
 214 901 214 901 184 787 c 1,28,29
 180 780 180 780 178 780 c 128,-1,30
 176 780 176 780 175 802 c 128,-1,31
 174 824 174 824 162 918 c 0,32,33
 150 1010 150 1010 129 1010 c 2,34,-1
 118 1010 l 2,35,36
 98 1010 98 1010 98 949 c 2,37,-1
 98 -337 l 2,38,39
 98 -401 98 -401 121 -401 c 2,10,-1
EndSplineSet
EndChar

StartChar: q
Encoding: 113 113 84
Width: 711
GlyphClass: 2
Flags: MW
LayerCount: 2
Fore
SplineSet
348 73 m 0,0,1
 187 73 187 73 187 505 c 0,2,3
 187 706 187 706 232.5 820 c 128,-1,4
 278 934 278 934 348 934 c 128,-1,5
 418 934 418 934 464.5 813 c 128,-1,6
 511 692 511 692 511 500 c 128,-1,7
 511 308 511 308 464 190.5 c 128,-1,8
 417 73 417 73 348 73 c 0,0,1
535 -401 m 2,9,-1
 594 -401 l 2,10,11
 617 -401 617 -401 617 -342 c 2,12,-1
 617 952 l 2,13,14
 617 1010 617 1010 598 1010 c 2,15,-1
 584 1010 l 2,16,17
 564 1010 564 1010 552.5 919 c 128,-1,18
 541 828 541 828 541 799.5 c 128,-1,19
 541 771 541 771 537.5 771 c 128,-1,20
 534 771 534 771 531 778 c 1,21,22
 470 1019 470 1019 339 1019 c 0,23,24
 204 1019 204 1019 134 857 c 0,25,26
 80 730 80 730 80 546 c 128,-1,27
 80 362 80 362 100 257 c 128,-1,28
 120 152 120 152 156 96 c 0,29,30
 224 -11 224 -11 329 -12 c 0,31,32
 384 -12 384 -12 429.5 33 c 128,-1,33
 475 78 475 78 504 166 c 0,34,35
 506 172 506 172 508.5 172 c 128,-1,36
 511 172 511 172 511 162 c 2,37,-1
 511 -342 l 2,38,39
 511 -401 511 -401 535 -401 c 2,9,-1
EndSplineSet
EndChar

StartChar: r
Encoding: 114 114 85
Width: 429
GlyphClass: 2
Flags: MW
LayerCount: 2
Fore
SplineSet
121 0 m 2,0,-1
 179 0 l 2,1,2
 203 0 203 0 203 58 c 2,3,-1
 203 556 l 2,4,5
 203 661 203 661 240 774 c 128,-1,6
 277 887 277 887 327 892 c 1,7,-1
 359 894 l 2,8,9
 372 894 372 894 377 902 c 128,-1,10
 382 910 382 910 382 934 c 2,11,-1
 382 970 l 2,12,13
 382 995 382 995 375.5 1003.5 c 128,-1,14
 369 1012 369 1012 352 1012 c 2,15,-1
 336 1012 l 2,16,17
 292 1012 292 1012 252 952.5 c 128,-1,18
 212 893 212 893 188 801 c 1,19,-1
 182 781 l 1,20,21
 179 781 179 781 175 801 c 1,22,-1
 162 942 l 1,23,24
 157 979 157 979 151.5 992.5 c 128,-1,25
 146 1006 146 1006 134 1006 c 2,26,-1
 118 1006 l 2,27,28
 97 1006 97 1006 97 929 c 2,29,-1
 97 58 l 2,30,31
 97 0 97 0 121 0 c 2,0,-1
EndSplineSet
EndChar

StartChar: s
Encoding: 115 115 86
Width: 561
GlyphClass: 2
Flags: MW
LayerCount: 2
Fore
SplineSet
314 563 m 128,-1,1
 235 610 235 610 204 655.5 c 128,-1,2
 173 701 173 701 173 770 c 128,-1,3
 173 839 173 839 206 885.5 c 128,-1,4
 239 932 239 932 290 932 c 128,-1,5
 341 932 341 932 372.5 916 c 128,-1,6
 404 900 404 900 423.5 882 c 128,-1,7
 443 864 443 864 451 864 c 128,-1,8
 459 864 459 864 474.5 884 c 128,-1,9
 490 904 490 904 490 916.5 c 128,-1,10
 490 929 490 929 485 934 c 0,11,12
 402 1019 402 1019 299.5 1019 c 128,-1,13
 197 1019 197 1019 138 948.5 c 128,-1,14
 79 878 79 878 79 767 c 0,15,16
 79 648 79 648 139 578 c 0,17,18
 186 524 186 524 267 472 c 128,-1,19
 348 420 348 420 384.5 374 c 128,-1,20
 421 328 421 328 421 252.5 c 128,-1,21
 421 177 421 177 382.5 125 c 128,-1,22
 344 73 344 73 282 73 c 128,-1,23
 220 73 220 73 180 96.5 c 128,-1,24
 140 120 140 120 115.5 147.5 c 128,-1,25
 91 175 91 175 82.5 175 c 128,-1,26
 74 175 74 175 56 155.5 c 128,-1,27
 38 136 38 136 38 123 c 128,-1,28
 38 110 38 110 44 102 c 0,29,30
 141 -12 141 -12 264 -12 c 128,-1,31
 387 -12 387 -12 451 61 c 128,-1,32
 515 134 515 134 515 255 c 128,-1,33
 515 376 515 376 454 446 c 128,-1,0
 393 516 393 516 314 563 c 128,-1,1
EndSplineSet
EndChar

StartChar: t
Encoding: 116 116 87
Width: 449
GlyphClass: 2
Flags: MW
LayerCount: 2
Fore
SplineSet
233 1426 m 2,0,1
 233 1475 233 1475 210 1475 c 2,2,-1
 167 1475 l 2,3,4
 155 1475 155 1475 150 1465.5 c 128,-1,5
 145 1456 145 1456 144 1426 c 2,6,-1
 128 1033 l 1,7,8
 128 1006 128 1006 118 1006 c 2,9,-1
 52 1006 l 2,10,11
 39 1006 39 1006 33.5 999 c 128,-1,12
 28 992 28 992 28 968 c 2,13,-1
 28 949 l 2,14,15
 28 925 28 925 33.5 918.5 c 128,-1,16
 39 912 39 912 52 912 c 2,17,-1
 118 912 l 2,18,19
 128 912 128 912 128 895 c 2,20,-1
 128 305 l 2,21,22
 128 124 128 124 178 58 c 0,23,24
 224 -3 224 -3 309 -3 c 2,25,-1
 394 -3 l 2,26,27
 422 -3 422 -3 422 24 c 2,28,-1
 422 67 l 2,29,30
 422 88 422 88 394 88 c 2,31,-1
 328 88 l 2,32,33
 285 88 285 88 266 116 c 0,34,35
 233 165 233 165 233 307 c 2,36,-1
 233 895 l 2,37,38
 233 912 233 912 244 912 c 2,39,-1
 374 912 l 2,40,41
 387 912 387 912 392.5 918.5 c 128,-1,42
 398 925 398 925 398 949 c 2,43,-1
 398 968 l 2,44,45
 398 992 398 992 392.5 999 c 128,-1,46
 387 1006 387 1006 374 1006 c 2,47,-1
 244 1006 l 2,48,49
 233 1006 233 1006 233 1033 c 2,50,-1
 233 1426 l 2,0,1
EndSplineSet
EndChar

StartChar: u
Encoding: 117 117 88
Width: 675
GlyphClass: 2
Flags: MW
LayerCount: 2
Fore
SplineSet
111 1006 m 2,0,1
 88 1006 88 1006 88 955 c 2,2,-1
 88 373 l 2,3,4
 88 100 88 100 168 28 c 0,5,6
 213 -12 213 -12 291 -12 c 0,7,8
 441 -12 441 -12 488 190 c 1,9,10
 490 204 490 204 494 204 c 128,-1,11
 498 204 498 204 500 191 c 2,12,-1
 513 52 l 2,13,14
 517 18 517 18 523.5 9 c 128,-1,15
 530 0 530 0 543 0 c 2,16,-1
 556 0 l 2,17,18
 578 0 578 0 578 65 c 2,19,-1
 578 955 l 2,20,21
 578 1006 578 1006 554 1006 c 2,22,-1
 496 1006 l 2,23,24
 472 1006 472 1006 472 955 c 2,25,-1
 472 369 l 2,26,27
 472 262 472 262 422.5 167.5 c 128,-1,28
 373 73 373 73 309.5 73 c 128,-1,29
 246 73 246 73 220 127 c 128,-1,30
 194 181 194 181 194 327 c 2,31,-1
 194 955 l 2,32,33
 194 1006 194 1006 171 1006 c 2,34,-1
 111 1006 l 2,0,1
EndSplineSet
EndChar

StartChar: v
Encoding: 118 118 89
Width: 586
GlyphClass: 2
Flags: MW
LayerCount: 2
Fore
SplineSet
253 1 m 2,0,-1
 324 1 l 2,1,2
 347 1 347 1 360 67 c 2,3,-1
 531 940 l 2,4,5
 536 966 536 966 536 986 c 0,6,7
 536 1006 536 1006 523 1006 c 2,8,-1
 459 1006 l 2,9,10
 436 1006 436 1006 426 941 c 2,11,-1
 297 165 l 2,12,13
 296 156 296 156 294 156 c 128,-1,14
 292 156 292 156 290 165 c 2,15,-1
 164 941 l 1,16,17
 152 1006 152 1006 132 1006 c 2,18,-1
 64 1006 l 2,19,20
 50 1006 50 1006 50 982 c 0,21,22
 50 958 50 958 54 940 c 2,23,-1
 221 67 l 2,24,25
 234 1 234 1 253 1 c 2,0,-1
EndSplineSet
EndChar

StartChar: w
Encoding: 119 119 90
Width: 909
GlyphClass: 2
Flags: MW
LayerCount: 2
Fore
SplineSet
237 0 m 2,0,-1
 299 0 l 2,1,2
 326 0 326 0 336 64 c 2,3,-1
 454 772 l 2,4,5
 456 779 456 779 458 779 c 0,6,7
 460 779 460 779 462 772 c 2,8,-1
 584 64 l 2,9,10
 595 0 595 0 621 0 c 2,11,-1
 681 0 l 2,12,13
 707 0 707 0 717 64 c 2,14,-1
 852 940 l 2,15,16
 857 966 857 966 857 986 c 0,17,18
 857 1006 857 1006 843 1006 c 2,19,-1
 791 1006 l 2,20,21
 766 1006 766 1006 758 941 c 2,22,-1
 655 181 l 1,23,24
 655 173 655 173 652 173 c 0,25,26
 649 173 649 173 648 180 c 2,27,-1
 514 941 l 2,28,29
 503 1006 503 1006 486 1006 c 2,30,-1
 437 1006 l 2,31,32
 416 1006 416 1006 406 941 c 2,33,-1
 278 181 l 2,34,35
 276 171 276 171 274 171 c 0,36,37
 272 171 272 171 269 181 c 1,38,-1
 156 940 l 1,39,40
 145 1006 145 1006 125 1006 c 2,41,-1
 67 1006 l 2,42,43
 52 1006 52 1006 52 982 c 0,44,45
 52 958 52 958 56 940 c 1,46,-1
 204 64 l 2,47,48
 215 0 215 0 237 0 c 2,0,-1
EndSplineSet
EndChar

StartChar: x
Encoding: 120 120 91
Width: 600
GlyphClass: 2
Flags: MW
LayerCount: 2
Fore
SplineSet
358 504 m 1,0,-1
 355 520 l 2,1,2
 355 522 355 522 444 733 c 128,-1,3
 533 944 533 944 538 955.5 c 128,-1,4
 543 967 543 967 543 986.5 c 128,-1,5
 543 1006 543 1006 534 1006 c 2,6,-1
 478 1006 l 2,7,8
 460 1006 460 1006 446 972.5 c 128,-1,9
 432 939 432 939 408.5 881 c 128,-1,10
 385 823 385 823 354.5 747.5 c 128,-1,11
 324 672 324 672 315 648.5 c 128,-1,12
 306 625 306 625 302.5 625 c 128,-1,13
 299 625 299 625 280.5 667 c 128,-1,14
 262 709 262 709 216.5 832 c 128,-1,15
 171 955 171 955 170 956 c 0,16,17
 149 1006 149 1006 130 1006 c 2,18,-1
 63 1006 l 2,19,20
 54 1006 54 1006 54 987 c 128,-1,21
 54 968 54 968 58 958 c 0,22,23
 150 702 150 702 234 508 c 1,24,25
 236 498 236 498 236 493.5 c 128,-1,26
 236 489 236 489 208 424.5 c 128,-1,27
 180 360 180 360 55 46 c 0,28,29
 52 39 52 39 52 19.5 c 128,-1,30
 52 0 52 0 60 0 c 2,31,-1
 114 0 l 2,32,33
 135 0 135 0 156.5 47.5 c 128,-1,34
 178 95 178 95 289 378 c 1,35,36
 297 385 297 385 299.5 385 c 128,-1,37
 302 385 302 385 318.5 347 c 128,-1,38
 335 309 335 309 381 184.5 c 0,39,40
 428 60 428 60 434 44 c 0,41,42
 452 0 452 0 477 0 c 2,43,-1
 543 0 l 2,44,45
 552 0 552 0 552 25.5 c 128,-1,46
 552 51 552 51 358 504 c 1,0,-1
EndSplineSet
EndChar

StartChar: y
Encoding: 121 121 92
Width: 598
GlyphClass: 2
Flags: MW
LayerCount: 2
Fore
SplineSet
111 -199 m 0,0,1
 111 -259 111 -259 210 -259 c 0,2,3
 282 -259 282 -259 311.5 -204.5 c 128,-1,4
 341 -150 341 -150 370 11 c 1,5,-1
 549 943 l 1,6,7
 552 964 552 964 552 965 c 0,8,9
 552 1006 552 1006 535 1006 c 2,10,-1
 477 1006 l 2,11,12
 455 1006 455 1006 446 950 c 2,13,-1
 326 208 l 2,14,15
 324 197 324 197 322 197 c 128,-1,16
 320 197 320 197 317 207 c 2,17,-1
 162 953 l 2,18,19
 152 1006 152 1006 127 1006 c 2,20,-1
 67 1006 l 2,21,22
 51 1006 51 1006 51 983.5 c 128,-1,23
 51 961 51 961 53 947 c 1,24,-1
 250 117 l 2,25,26
 269 37 269 37 269 -11 c 128,-1,27
 269 -59 269 -59 251.5 -113 c 128,-1,28
 234 -167 234 -167 206 -167 c 0,29,30
 186 -167 186 -167 133 -151 c 0,31,32
 123 -148 123 -148 117 -165 c 128,-1,33
 111 -182 111 -182 111 -199 c 0,0,1
EndSplineSet
EndChar

StartChar: z
Encoding: 122 122 93
Width: 513
GlyphClass: 2
Flags: MW
LayerCount: 2
Fore
SplineSet
79 18 m 2,0,1
 79 0 79 0 97 0 c 2,2,-1
 447 0 l 2,3,4
 459 0 459 0 459 20 c 2,5,-1
 459 76 l 2,6,7
 459 96 459 96 447 96 c 2,8,-1
 191 96 l 1,9,-1
 437 871 l 2,10,11
 446 898 446 898 446 931 c 2,12,-1
 446 985 l 2,13,14
 446 1006 446 1006 428 1006 c 2,15,-1
 92 1006 l 2,16,17
 80 1006 80 1006 80 985 c 2,18,-1
 80 934 l 2,19,20
 80 910 80 910 92 910 c 2,21,-1
 340 910 l 1,22,-1
 96 138 l 2,23,24
 79 85 79 85 79 70 c 2,25,-1
 79 18 l 2,0,1
EndSplineSet
EndChar

StartChar: braceleft
Encoding: 123 123 94
Width: 507
GlyphClass: 2
Flags: MW
LayerCount: 2
Fore
SplineSet
392 1543 m 2,0,-1
 337 1543 l 2,1,2
 285 1544 285 1544 261 1522 c 0,3,4
 211 1477 211 1477 211 1180 c 2,5,-1
 211 974 l 1,6,7
 210 860 210 860 200.5 826.5 c 128,-1,8
 191 793 191 793 158 793 c 128,-1,9
 125 793 125 793 112.5 785 c 128,-1,10
 100 777 100 777 100 744 c 2,11,-1
 100 724 l 2,12,13
 100 687 100 687 112 678 c 128,-1,14
 124 669 124 669 152.5 668.5 c 0,15,16
 182 668 182 668 192 654 c 0,17,18
 210 631 210 631 211 491 c 1,19,-1
 211 292 l 2,20,21
 211 51 211 51 233 -2.5 c 128,-1,22
 255 -56 255 -56 276.5 -66.5 c 128,-1,23
 298 -77 298 -77 337 -77 c 2,24,-1
 392 -77 l 2,25,26
 418 -77 418 -77 418 -37 c 2,27,-1
 418 -16 l 2,28,29
 418 5 418 5 407.5 13 c 128,-1,30
 397 21 397 21 367 21 c 0,31,32
 328 21 328 21 320.5 63 c 128,-1,33
 313 105 313 105 313 319 c 2,34,-1
 313 534 l 2,35,36
 313 637 313 637 300 679 c 128,-1,37
 287 721 287 721 247 731 c 0,38,39
 245 732 245 732 245 735 c 128,-1,40
 245 738 245 738 247 739 c 0,41,42
 288 748 288 748 301 791 c 128,-1,43
 314 834 314 834 314 939 c 2,44,-1
 314 1154 l 2,45,46
 314 1365 314 1365 321 1405.5 c 128,-1,47
 328 1446 328 1446 362.5 1446 c 128,-1,48
 397 1446 397 1446 407.5 1453.5 c 128,-1,49
 418 1461 418 1461 418 1482 c 2,50,-1
 418 1504 l 2,51,52
 418 1543 418 1543 392 1543 c 2,0,-1
EndSplineSet
EndChar

StartChar: bar
Encoding: 124 124 95
Width: 294
GlyphClass: 2
Flags: MW
LayerCount: 2
Fore
SplineSet
135 -150 m 2,0,-1
 159 -150 l 2,1,2
 186 -150 186 -150 186 -89 c 2,3,-1
 186 1494 l 2,4,5
 186 1555 186 1555 159 1555 c 2,6,-1
 135 1555 l 2,7,8
 107 1555 107 1555 107 1494 c 2,9,-1
 107 -89 l 2,10,11
 107 -150 107 -150 135 -150 c 2,0,-1
EndSplineSet
EndChar

StartChar: braceright
Encoding: 125 125 96
Width: 507
GlyphClass: 2
Flags: MW
LayerCount: 2
Fore
SplineSet
307 286 m 1,0,-1
 308 492 l 2,1,2
 309 605 309 605 318 639 c 128,-1,3
 327 673 327 673 355.5 673.5 c 128,-1,4
 384 674 384 674 394 676 c 0,5,6
 418 681 418 681 418 722 c 2,7,-1
 418 743 l 2,8,9
 418 780 418 780 406 789 c 128,-1,10
 394 798 394 798 360.5 798 c 128,-1,11
 327 798 327 798 317.5 830 c 128,-1,12
 308 862 308 862 308 975 c 2,13,-1
 308 1174 l 2,14,15
 308 1415 308 1415 286 1468.5 c 128,-1,16
 264 1522 264 1522 242.5 1532.5 c 128,-1,17
 221 1543 221 1543 182 1543 c 2,18,-1
 127 1543 l 2,19,20
 100 1543 100 1543 100 1504 c 2,21,-1
 100 1482 l 2,22,23
 100 1461 100 1461 111 1453.5 c 128,-1,24
 122 1446 122 1446 152 1446 c 0,25,26
 191 1446 191 1446 198.5 1403 c 128,-1,27
 206 1360 206 1360 206 1147 c 2,28,-1
 206 932 l 2,29,30
 206 830 206 830 218.5 787.5 c 128,-1,31
 231 745 231 745 271 735 c 0,32,33
 274 735 274 735 273.5 731.5 c 128,-1,34
 273 728 273 728 271 728 c 0,35,36
 231 719 231 719 218 675.5 c 128,-1,37
 205 632 205 632 205 528 c 2,38,-1
 205 312 l 2,39,40
 205 103 205 103 197.5 62 c 128,-1,41
 190 21 190 21 156 21 c 128,-1,42
 122 21 122 21 111 13 c 128,-1,43
 100 5 100 5 100 -16 c 2,44,-1
 100 -37 l 2,45,46
 100 -77 100 -77 127 -77 c 2,47,-1
 182 -77 l 2,48,49
 222 -77 222 -77 242.5 -67 c 0,50,51
 263 -58 263 -58 279 -20 c 0,52,53
 307 46 307 46 307 286 c 1,0,-1
EndSplineSet
EndChar

StartChar: asciitilde
Encoding: 126 126 97
Width: 1345
GlyphClass: 2
Flags: MW
LayerCount: 2
Fore
SplineSet
328.5 292 m 128,-1,1
 368 276 368 276 423.5 276 c 128,-1,2
 479 276 479 276 559 302 c 0,3,4
 638 328 638 328 702 360 c 0,5,6
 869 444 869 444 954 444 c 0,7,8
 993 444 993 444 1025 415 c 128,-1,9
 1057 386 1057 386 1083 345 c 0,10,11
 1108 304 1108 304 1126 305 c 0,12,13
 1164 307 1164 307 1164 351 c 0,14,15
 1164 367 1164 367 1158 378 c 0,16,17
 1113 465 1113 465 1069 503.5 c 128,-1,18
 1025 542 1025 542 959.5 542 c 128,-1,19
 894 542 894 542 819.5 516 c 0,20,21
 744 490 744 490 684 458 c 0,22,23
 524 375 524 375 438 375 c 2,24,-1
 433 375 l 2,25,26
 369 375 369 375 329.5 402 c 128,-1,27
 290 429 290 429 260 505 c 0,28,29
 260 506 260 506 259 508 c 128,-1,30
 258 510 258 510 257.5 511.5 c 128,-1,31
 257 513 257 513 255.5 515.5 c 128,-1,32
 254 518 254 518 252.5 519.5 c 128,-1,33
 251 521 251 521 249 522.5 c 0,34,35
 246 524 246 524 244 525 c 0,36,37
 236 528 236 528 223.5 528 c 128,-1,38
 211 528 211 528 195.5 514.5 c 128,-1,39
 180 501 180 501 180 487.5 c 128,-1,40
 180 474 180 474 192 447 c 128,-1,41
 204 420 204 420 219.5 394.5 c 128,-1,42
 235 369 235 369 262 338.5 c 128,-1,0
 289 308 289 308 328.5 292 c 128,-1,1
EndSplineSet
EndChar

StartChar: cent
Encoding: 162 162 99
Width: 528
GlyphClass: 2
Flags: MW
LayerCount: 2
Fore
SplineSet
332 78 m 1,0,1
 225 98 225 98 199 302 c 0,2,3
 188 386 188 386 188 508.5 c 128,-1,4
 188 631 188 631 200 716 c 128,-1,5
 212 801 212 801 234 844 c 0,6,7
 272 919 272 919 332 929 c 1,8,-1
 332 78 l 1,0,1
473 986 m 2,9,10
 473 1006 473 1006 386 1016 c 1,11,-1
 386 1188 l 2,12,13
 386 1235 386 1235 366 1235 c 2,14,-1
 352 1235 l 2,15,16
 332 1235 332 1235 332 1188 c 2,17,-1
 332 1018 l 1,18,19
 193 1014 193 1014 134 876 c 0,20,21
 80 750 80 750 80 507 c 0,22,23
 80 154 80 154 192 46 c 0,24,25
 249 -8 249 -8 332 -12 c 1,26,-1
 332 -144 l 2,27,28
 332 -194 332 -194 352 -194 c 2,29,-1
 366 -194 l 2,30,31
 386 -194 386 -194 386 -144 c 2,32,-1
 386 -9 l 1,33,34
 459 -2 459 -2 471 16 c 0,35,36
 475 22 475 22 475 23 c 2,37,-1
 475 81 l 2,38,39
 475 82 475 82 470.5 88 c 128,-1,40
 466 94 466 94 465 94 c 0,41,42
 421 79 421 79 386 76 c 1,43,-1
 386 931 l 1,44,45
 405 929 405 929 465 914 c 0,46,47
 466 914 466 914 469.5 919 c 128,-1,48
 473 924 473 924 473 926 c 2,49,-1
 473 986 l 2,9,10
EndSplineSet
EndChar

StartChar: sterling
Encoding: 163 163 100
Width: 879
GlyphClass: 2
Flags: MW
LayerCount: 2
Fore
SplineSet
561 1456 m 0,0,1
 364 1456 364 1456 290 1342 c 0,2,3
 240 1265 240 1265 229 1182 c 0,4,5
 213 1060 213 1060 213 910 c 2,6,-1
 213 762 l 1,7,-1
 68 762 l 2,8,9
 36 762 36 762 36 728 c 2,10,-1
 36 711 l 2,11,12
 36 677 36 677 68 677 c 2,13,-1
 187 677 l 2,14,15
 214 677 214 677 214 634 c 2,16,-1
 214 110 l 2,17,18
 214 95 214 95 209.5 91 c 128,-1,19
 205 87 205 87 187 87 c 2,20,-1
 81 87 l 2,21,22
 53 87 53 87 44.5 81 c 128,-1,23
 36 75 36 75 36 55 c 2,24,-1
 36 32 l 2,25,26
 36 12 36 12 44.5 6 c 128,-1,27
 53 0 53 0 81 0 c 2,28,-1
 778 0 l 2,29,30
 797 0 797 0 803.5 5 c 128,-1,31
 810 10 810 10 810 27 c 2,32,-1
 810 57 l 2,33,34
 810 76 810 76 803.5 81.5 c 128,-1,35
 797 87 797 87 778 87 c 2,36,-1
 357 87 l 2,37,38
 336 87 336 87 331.5 94 c 128,-1,39
 327 101 327 101 327 129 c 2,40,-1
 327 677 l 1,41,-1
 656 677 l 2,42,43
 686 677 686 677 686 711 c 2,44,-1
 686 728 l 2,45,46
 686 762 686 762 656 762 c 2,47,-1
 329 762 l 1,48,-1
 329 910 l 2,49,50
 329 1188 329 1188 371 1269 c 0,51,52
 406 1338 406 1338 481 1354 c 0,53,54
 519 1362 519 1362 565 1362 c 128,-1,55
 611 1362 611 1362 644.5 1355.5 c 128,-1,56
 678 1349 678 1349 694.5 1342.5 c 128,-1,57
 711 1336 711 1336 736 1324 c 0,58,59
 762 1312 762 1312 774 1306 c 0,60,61
 805 1290 805 1290 814 1321 c 1,62,-1
 820 1347 l 2,63,64
 821 1350 821 1350 821 1356 c 0,65,66
 821 1378 821 1378 783 1400 c 0,67,68
 687 1456 687 1456 561 1456 c 0,0,1
EndSplineSet
EndChar

StartChar: currency
Encoding: 164 164 101
Width: 1022
GlyphClass: 2
Flags: MW
LayerCount: 2
Fore
SplineSet
511 704 m 128,-1,1
 425 704 425 704 359 733.5 c 0,2,3
 294 763 294 763 256 812 c 0,4,5
 182 909 182 909 181 1033 c 0,6,7
 182 1163 182 1163 256 1260 c 0,8,9
 338 1367 338 1367 511 1367 c 0,10,11
 750 1367 750 1367 820 1154 c 0,12,13
 838 1097 838 1097 838.5 1035 c 128,-1,14
 839 973 839 973 820.5 917 c 128,-1,15
 802 861 802 861 765 812 c 128,-1,16
 728 763 728 763 662.5 733.5 c 128,-1,0
 597 704 597 704 511 704 c 128,-1,1
266 701 m 1,17,18
 376 628 376 628 510 628 c 128,-1,19
 644 628 644 628 756 701 c 1,20,-1
 781 675 l 2,21,22
 811 643 811 643 824.5 643 c 128,-1,23
 838 643 838 643 847 654 c 1,24,-1
 874 680 l 2,25,26
 885 691 885 691 885 704.5 c 128,-1,27
 885 718 885 718 854 749 c 2,28,-1
 834 769 l 1,29,30
 930 879 930 879 930 1038 c 128,-1,31
 930 1197 930 1197 832 1310 c 1,32,-1
 854 1331 l 1,33,34
 885 1362 885 1362 885 1374 c 128,-1,35
 885 1386 885 1386 876 1398 c 1,36,-1
 849 1423 l 1,37,38
 838 1435 838 1435 824.5 1435 c 128,-1,39
 811 1435 811 1435 780 1404 c 2,40,-1
 754 1378 l 1,41,42
 643 1449 643 1449 511 1449 c 128,-1,43
 379 1449 379 1449 269 1378 c 1,44,-1
 242 1405 l 1,45,46
 210 1435 210 1435 196 1435 c 128,-1,47
 182 1435 182 1435 173 1423 c 1,48,-1
 146 1398 l 2,49,50
 136 1388 136 1388 136 1375 c 128,-1,51
 136 1362 136 1362 167 1331 c 1,52,-1
 190 1310 l 1,53,54
 92 1198 92 1198 92 1037.5 c 128,-1,55
 92 877 92 877 188 769 c 1,56,-1
 167 748 l 2,57,58
 138 719 138 719 138 705 c 128,-1,59
 138 691 138 691 149 679 c 1,60,-1
 175 654 l 1,61,62
 183 643 183 643 196.5 643 c 128,-1,63
 210 643 210 643 242 675 c 1,64,-1
 266 701 l 1,17,18
EndSplineSet
EndChar

StartChar: yen
Encoding: 165 165 102
Width: 645
GlyphClass: 2
Flags: MW
LayerCount: 2
Fore
SplineSet
267 52 m 2,0,1
 267 0 267 0 290 0 c 2,2,-1
 358 0 l 2,3,4
 381 0 381 0 381 52 c 2,5,-1
 381 370 l 1,6,-1
 497 370 l 2,7,8
 519 370 519 370 519 403 c 2,9,-1
 519 433 l 2,10,11
 519 465 519 465 497 465 c 2,12,-1
 384 465 l 1,13,-1
 388 567 l 1,14,-1
 499 567 l 2,15,16
 520 567 520 567 520 599 c 2,17,-1
 520 629 l 2,18,19
 520 649 520 649 515.5 655.5 c 128,-1,20
 511 662 511 662 499 662 c 2,21,-1
 404 662 l 1,22,-1
 600 1380 l 2,23,24
 605 1396 605 1396 605 1417 c 128,-1,25
 605 1438 605 1438 586 1438 c 2,26,-1
 538 1438 l 2,27,28
 526 1438 526 1438 515 1427 c 128,-1,29
 504 1416 504 1416 500 1396 c 1,30,-1
 330 729 l 1,31,-1
 325 729 l 1,32,-1
 156 1396 l 2,33,34
 145 1438 145 1438 115 1438 c 2,35,-1
 60 1438 l 2,36,37
 40 1438 40 1438 40 1416 c 0,38,39
 40 1401 40 1401 47 1380 c 1,40,-1
 243 662 l 1,41,-1
 141 662 l 2,42,43
 129 662 129 662 125 655.5 c 128,-1,44
 121 649 121 649 121 629 c 2,45,-1
 121 599 l 2,46,47
 121 579 121 579 125 573 c 128,-1,48
 129 567 129 567 141 567 c 2,49,-1
 259 567 l 1,50,-1
 263 465 l 1,51,-1
 141 465 l 2,52,53
 129 465 129 465 125 459 c 128,-1,54
 121 453 121 453 121 433 c 2,55,-1
 121 403 l 2,56,57
 121 383 121 383 125 376.5 c 128,-1,58
 129 370 129 370 141 370 c 2,59,-1
 267 370 l 1,60,-1
 267 52 l 2,0,1
EndSplineSet
EndChar

StartChar: brokenbar
Encoding: 166 166 103
Width: 428
GlyphClass: 2
Flags: MW
LayerCount: 2
Fore
SplineSet
172 882 m 2,0,1
 172 831 172 831 195 831 c 2,2,-1
 232 831 l 2,3,4
 256 831 256 831 256 882 c 2,5,-1
 256 1474 l 2,6,7
 256 1525 256 1525 232 1525 c 2,8,-1
 195 1525 l 2,9,10
 172 1525 172 1525 172 1474 c 2,11,-1
 172 882 l 2,0,1
172 -39 m 2,12,13
 172 -90 172 -90 195 -90 c 2,14,-1
 232 -90 l 2,15,16
 256 -90 256 -90 256 -39 c 2,17,-1
 256 550 l 2,18,19
 256 601 256 601 232 601 c 2,20,-1
 195 601 l 2,21,22
 172 601 172 601 172 550 c 2,23,-1
 172 -39 l 2,12,13
EndSplineSet
EndChar

StartChar: section
Encoding: 167 167 104
Width: 731
GlyphClass: 2
Flags: MW
LayerCount: 2
Fore
SplineSet
468 537 m 1,0,1
 420 561 420 561 384 575 c 1,2,3
 303 614 303 614 266 658 c 128,-1,4
 229 702 229 702 229 764 c 0,5,6
 229 886 229 886 312 920 c 1,7,8
 340 907 340 907 372 898 c 1,9,10
 457 860 457 860 499.5 814 c 128,-1,11
 542 768 542 768 542 704 c 0,12,13
 542 578 542 578 468 537 c 1,0,1
120 93 m 1,14,15
 223 -14 223 -14 358.5 -14 c 128,-1,16
 494 -14 494 -14 560 61 c 128,-1,17
 626 136 626 136 626 266.5 c 128,-1,18
 626 397 626 397 533 488 c 1,19,20
 626 558 626 558 626 690 c 0,21,22
 626 845 626 845 524 924 c 0,23,24
 476 961 476 961 389.5 1001 c 128,-1,25
 303 1041 303 1041 269 1083.5 c 128,-1,26
 235 1126 235 1126 235 1199.5 c 128,-1,27
 235 1273 235 1273 272 1320.5 c 128,-1,28
 309 1368 309 1368 373.5 1368 c 128,-1,29
 438 1368 438 1368 472 1351.5 c 128,-1,30
 506 1335 506 1335 545 1299 c 1,31,32
 549 1297 549 1297 558.5 1300.5 c 128,-1,33
 568 1304 568 1304 578.5 1325.5 c 0,34,35
 589 1348 589 1348 589 1350 c 0,36,37
 589 1370 589 1370 581 1373 c 1,38,39
 497 1451 497 1451 387 1451 c 128,-1,40
 277 1451 277 1451 210 1384 c 128,-1,41
 143 1317 143 1317 143 1184.5 c 128,-1,42
 143 1052 143 1052 243 966 c 1,43,44
 143 903 143 903 143 765 c 0,45,46
 143 588 143 588 301 504 c 0,47,48
 328 490 328 490 390 462 c 0,49,50
 535 395 535 395 535 258 c 0,51,52
 535 177 535 177 493.5 123 c 128,-1,53
 452 69 452 69 380 69 c 128,-1,54
 308 69 308 69 258.5 94.5 c 128,-1,55
 209 120 209 120 158 172 c 1,56,57
 154 174 154 174 143 169 c 128,-1,58
 132 164 132 164 123.5 143.5 c 128,-1,59
 115 123 115 123 115 109.5 c 128,-1,60
 115 96 115 96 120 93 c 1,14,15
EndSplineSet
EndChar

StartChar: dieresis
Encoding: 168 168 105
Width: 273
GlyphClass: 2
Flags: MW
LayerCount: 2
Fore
SplineSet
280 57 m 2,0,1
 280 0 280 0 305 0 c 2,2,-1
 353 0 l 2,3,4
 364 0 364 0 372 16 c 128,-1,5
 380 32 380 32 380 57 c 2,6,-1
 380 83 l 2,7,8
 380 108 380 108 372 124 c 128,-1,9
 364 140 364 140 353 140 c 2,10,-1
 305 140 l 2,11,12
 280 140 280 140 280 83 c 2,13,-1
 280 57 l 2,0,1
85 0 m 2,14,-1
 134 0 l 2,15,16
 145 0 145 0 153 16 c 128,-1,17
 161 32 161 32 161 57 c 2,18,-1
 161 83 l 2,19,20
 161 108 161 108 153 124 c 128,-1,21
 145 140 145 140 134 140 c 2,22,-1
 85 140 l 2,23,24
 74 140 74 140 66 124 c 128,-1,25
 58 108 58 108 58 83 c 2,26,-1
 58 57 l 2,27,28
 58 32 58 32 66 16 c 128,-1,29
 74 0 74 0 85 0 c 2,14,-1
EndSplineSet
EndChar

StartChar: copyright
Encoding: 169 169 106
Width: 1348
GlyphClass: 2
Flags: MW
LayerCount: 2
Fore
SplineSet
674 -14 m 128,-1,1
 822 -14 822 -14 936.5 45.5 c 0,2,3
 1052 105 1052 105 1120 208 c 0,4,5
 1258 415 1258 415 1257 719 c 0,6,7
 1257 1102 1257 1102 1056 1306 c 0,8,9
 911 1453 911 1453 674 1453 c 1,10,11
 331 1452 331 1452 179 1144 c 0,12,13
 91 965 91 965 91 719 c 0,14,15
 91 414 91 414 229 208 c 0,16,17
 298 105 298 105 412 45.5 c 128,-1,0
 526 -14 526 -14 674 -14 c 128,-1,1
676 64 m 128,-1,19
 570 64 570 64 484.5 102 c 128,-1,20
 399 140 399 140 343.5 202.5 c 128,-1,21
 288 265 288 265 251 350 c 0,22,23
 182 509 182 509 182 715 c 0,24,25
 182 1054 182 1054 344 1237 c 0,26,27
 466 1375 466 1375 676 1375 c 0,28,29
 978 1375 978 1375 1101 1088 c 0,30,31
 1170 928 1170 928 1170 715 c 0,32,33
 1170 384 1170 384 1008 202 c 0,34,35
 952 140 952 140 867 102 c 128,-1,18
 782 64 782 64 676 64 c 128,-1,19
694 338 m 0,36,37
 749 338 749 338 781 348.5 c 128,-1,38
 813 359 813 359 865 388 c 0,39,40
 878 395 878 395 878 414 c 128,-1,41
 878 433 878 433 868 448 c 128,-1,42
 858 463 858 463 846 463 c 1,43,44
 842 462 842 462 824 452.5 c 128,-1,45
 806 443 806 443 802 441.5 c 128,-1,46
 798 440 798 440 785 434 c 128,-1,47
 772 428 772 428 765.5 426.5 c 128,-1,48
 759 425 759 425 747 422 c 0,49,50
 727 417 727 417 699 417 c 0,51,52
 599 417 599 417 537 495 c 128,-1,53
 475 573 475 573 475 723.5 c 128,-1,54
 475 874 475 874 537 954 c 128,-1,55
 599 1034 599 1034 702 1034 c 0,56,57
 771 1034 771 1034 850 978 c 0,58,59
 854 976 854 976 855 976 c 0,60,61
 865 976 865 976 874 992 c 128,-1,62
 883 1008 883 1008 883 1024 c 128,-1,63
 883 1040 883 1040 877 1045 c 0,64,65
 803 1112 803 1112 688 1112 c 0,66,67
 574 1112 574 1112 485 1024 c 0,68,69
 389 929 389 929 389 733.5 c 128,-1,70
 389 538 389 538 475 438 c 128,-1,71
 561 338 561 338 694 338 c 0,36,37
EndSplineSet
EndChar

StartChar: ordfeminine
Encoding: 170 170 107
Width: 669
GlyphClass: 2
Flags: MW
LayerCount: 2
Fore
SplineSet
300 680 m 0,0,1
 199 680 199 680 199 822 c 0,2,3
 199 909 199 909 242 966 c 0,4,5
 292 1032 292 1032 419 1049 c 0,6,7
 442 1052 442 1052 445 1052 c 128,-1,8
 448 1052 448 1052 448 1002 c 0,9,10
 448 861 448 861 410.5 770.5 c 128,-1,11
 373 680 373 680 300 680 c 0,0,1
124 814 m 0,12,13
 124 614 124 614 287 614 c 0,14,15
 424 614 424 614 460 788 c 1,16,17
 464 800 464 800 466 788 c 1,18,19
 467 772 467 772 476 717.5 c 128,-1,20
 485 663 485 663 488.5 642 c 128,-1,21
 492 621 492 621 505 621 c 2,22,-1
 516 621 l 2,23,24
 531 621 531 621 531 661 c 2,25,-1
 531 1136 l 2,26,27
 531 1296 531 1296 486 1367 c 128,-1,28
 441 1438 441 1438 347.5 1438 c 128,-1,29
 254 1438 254 1438 210 1397.5 c 128,-1,30
 166 1357 166 1357 143 1280 c 0,31,32
 135 1255 135 1255 138.5 1242.5 c 128,-1,33
 142 1230 142 1230 184 1222 c 1,34,35
 199 1218 199 1218 208 1244 c 0,36,37
 241 1344 241 1344 287 1362 c 0,38,39
 309 1370 309 1370 341.5 1370.5 c 128,-1,40
 374 1371 374 1371 396 1355 c 0,41,42
 418 1340 418 1340 428 1308 c 0,43,44
 446 1256 446 1256 446 1158 c 2,45,-1
 446 1112 l 1,46,47
 439 1109 439 1109 407 1103.5 c 128,-1,48
 375 1098 375 1098 342.5 1091 c 128,-1,49
 310 1084 310 1084 269 1063.5 c 0,50,51
 228 1042 228 1042 197 1014 c 0,52,53
 124 946 124 946 124 814 c 0,12,13
EndSplineSet
EndChar

StartChar: guillemotleft
Encoding: 171 171 108
Width: 714
GlyphClass: 2
Flags: MW
LayerCount: 2
Fore
SplineSet
647 234 m 2,0,-1
 648 234 l 2,1,2
 654 234 654 234 654 258 c 1,3,4
 657 258 657 258 657 304.5 c 128,-1,5
 657 351 657 351 638 370 c 1,6,7
 638 382 638 382 521.5 498.5 c 128,-1,8
 405 615 405 615 405 618 c 0,9,10
 405 628 405 628 406 630.5 c 128,-1,11
 407 633 407 633 502.5 735.5 c 128,-1,12
 598 838 598 838 600 840 c 0,13,14
 643 883 643 883 648 897.5 c 128,-1,15
 653 912 653 912 653 922 c 1,16,17
 657 930 657 930 657 972.5 c 128,-1,18
 657 1015 657 1015 649 1015 c 1,19,20
 646 1020 646 1020 641.5 1020 c 128,-1,21
 637 1020 637 1020 635 1018 c 2,22,-1
 414 785 l 2,23,24
 337 704 337 704 337 682 c 1,25,26
 332 678 332 678 332 617.5 c 128,-1,27
 332 557 332 557 353 537 c 1,28,29
 353 531 353 531 462.5 418.5 c 128,-1,30
 572 306 572 306 578 300.5 c 128,-1,31
 584 295 584 295 614 264.5 c 128,-1,32
 644 234 644 234 647 234 c 2,0,-1
82 537 m 1,33,34
 82 527 82 527 228 381 c 128,-1,35
 374 235 374 235 378.5 234 c 128,-1,36
 383 233 383 233 384 258 c 1,37,38
 387 258 387 258 387 304.5 c 128,-1,39
 387 351 387 351 368 370 c 1,40,41
 368 381 368 381 251.5 497.5 c 128,-1,42
 135 614 135 614 134 620.5 c 128,-1,43
 133 627 133 627 134.5 630 c 128,-1,44
 136 633 136 633 231.5 735.5 c 128,-1,45
 327 838 327 838 329 840 c 0,46,47
 372 883 372 883 377 897.5 c 128,-1,48
 382 912 382 912 382 922 c 1,49,50
 387 929 387 929 387 972 c 128,-1,51
 387 1015 387 1015 378 1015 c 1,52,53
 376 1020 376 1020 371 1020 c 128,-1,54
 366 1020 366 1020 364 1018 c 0,55,56
 144 785 144 785 143 785 c 0,57,58
 67 705 67 705 67 682 c 1,59,60
 62 678 62 678 62 617 c 128,-1,61
 62 556 62 556 82 537 c 1,33,34
EndSplineSet
EndChar

StartChar: logicalnot
Encoding: 172 172 109
Width: 895
GlyphClass: 2
Flags: MW
LayerCount: 2
Fore
SplineSet
674 339 m 2,0,1
 674 288 674 288 713 288 c 2,2,-1
 740 288 l 2,3,4
 777 288 777 288 777 339 c 2,5,-1
 777 635 l 2,6,7
 777 677 777 677 737 677 c 2,8,-1
 171 677 l 2,9,10
 133 677 133 677 133 636 c 2,11,-1
 133 613 l 2,12,13
 133 572 133 572 171 572 c 2,14,-1
 654 572 l 2,15,16
 674 572 674 572 674 547 c 2,17,-1
 674 339 l 2,0,1
EndSplineSet
EndChar

StartChar: uni00AD
Encoding: 173 173 110
Width: 540
GlyphClass: 2
Flags: MW
LayerCount: 2
Fore
SplineSet
98 590 m 2,0,-1
 462 590 l 2,1,2
 485 590 485 590 485 617 c 2,3,-1
 485 625 l 2,4,5
 485 642 485 642 479.5 646 c 128,-1,6
 474 650 474 650 462 650 c 2,7,-1
 98 650 l 2,8,9
 75 650 75 650 75 623 c 2,10,-1
 75 615 l 2,11,12
 75 598 75 598 80.5 594 c 128,-1,13
 86 590 86 590 98 590 c 2,0,-1
EndSplineSet
EndChar

StartChar: registered
Encoding: 174 174 111
Width: 1348
GlyphClass: 2
Flags: MW
LayerCount: 2
Fore
SplineSet
674 -14 m 128,-1,1
 822 -14 822 -14 936.5 45.5 c 0,2,3
 1052 105 1052 105 1120 208 c 0,4,5
 1258 415 1258 415 1257 719 c 0,6,7
 1257 1102 1257 1102 1056 1306 c 0,8,9
 911 1453 911 1453 674 1453 c 1,10,11
 331 1452 331 1452 179 1144 c 0,12,13
 91 965 91 965 91 719 c 0,14,15
 91 414 91 414 229 208 c 0,16,17
 298 105 298 105 412 45.5 c 128,-1,0
 526 -14 526 -14 674 -14 c 128,-1,1
676 64 m 128,-1,19
 570 64 570 64 484.5 102 c 128,-1,20
 399 140 399 140 343.5 202.5 c 128,-1,21
 288 265 288 265 251 350 c 0,22,23
 182 509 182 509 182 715 c 0,24,25
 182 1054 182 1054 344 1237 c 0,26,27
 466 1375 466 1375 676 1375 c 0,28,29
 978 1375 978 1375 1101 1088 c 0,30,31
 1170 928 1170 928 1170 715 c 0,32,33
 1170 384 1170 384 1008 202 c 0,34,35
 952 140 952 140 867 102 c 128,-1,18
 782 64 782 64 676 64 c 128,-1,19
552 777 m 2,36,37
 548 777 548 777 548 784 c 2,38,-1
 548 1049 l 2,39,40
 548 1057 548 1057 553 1057 c 2,41,-1
 651 1057 l 2,42,43
 765 1056 765 1056 788 1026 c 0,44,45
 815 990 815 990 815 931 c 128,-1,46
 815 872 815 872 807.5 843.5 c 0,47,48
 800 814 800 814 781 800 c 0,49,50
 750 776 750 776 672 777 c 2,51,-1
 552 777 l 2,36,37
486 334 m 2,52,-1
 533 334 l 2,53,54
 548 334 548 334 548 360 c 2,55,-1
 548 700 l 2,56,57
 548 710 548 710 553 710 c 2,58,-1
 665 710 l 2,59,60
 737 710 737 710 770.5 690 c 128,-1,61
 804 670 804 670 807 600 c 0,62,63
 808 598 808 598 810.5 493.5 c 128,-1,64
 813 389 813 389 813.5 361.5 c 128,-1,65
 814 334 814 334 828 334 c 2,66,-1
 875 334 l 2,67,68
 888 334 888 334 888 365 c 2,69,-1
 888 571 l 1,70,71
 887 650 887 650 859.5 684.5 c 128,-1,72
 832 719 832 719 785 736 c 1,73,74
 778 740 778 740 784 742 c 0,75,76
 889 764 889 764 889 921 c 0,77,78
 888 1071 888 1071 786 1103 c 0,79,80
 738 1118 738 1118 647 1118 c 2,81,-1
 486 1118 l 2,82,83
 470 1118 470 1118 470 1090 c 2,84,-1
 470 360 l 2,85,86
 470 334 470 334 486 334 c 2,52,-1
EndSplineSet
EndChar

StartChar: macron
Encoding: 175 175 112
Width: 648
GlyphClass: 2
Flags: MW
LayerCount: 2
Fore
SplineSet
125 247 m 2,0,1
 125 217 125 217 152 217 c 2,2,-1
 514 217 l 2,3,4
 528 217 528 217 534.5 223 c 128,-1,5
 541 229 541 229 541 249 c 2,6,-1
 541 264 l 2,7,8
 541 294 541 294 514 294 c 2,9,-1
 152 294 l 2,10,11
 125 294 125 294 125 262 c 2,12,-1
 125 247 l 2,0,1
EndSplineSet
EndChar

StartChar: degree
Encoding: 176 176 113
Width: 647
GlyphClass: 2
Flags: MW
LayerCount: 2
Fore
SplineSet
276 1120 m 0,0,1
 300 1112 300 1112 321 1112 c 128,-1,2
 342 1112 342 1112 360.5 1116 c 128,-1,3
 379 1120 379 1120 401 1131.5 c 0,4,5
 424 1142 424 1142 440 1160 c 0,6,7
 478 1201 478 1201 478 1261.5 c 128,-1,8
 478 1322 478 1322 462.5 1356.5 c 0,9,10
 447 1392 447 1392 422 1408 c 0,11,12
 376 1438 376 1438 337 1438 c 128,-1,13
 298 1438 298 1438 273.5 1431 c 128,-1,14
 249 1424 249 1424 224 1408 c 0,15,16
 168 1371 168 1371 168 1274 c 0,17,18
 168 1153 168 1153 276 1120 c 0,0,1
324 1160 m 128,-1,20
 287 1160 287 1160 257.5 1187 c 128,-1,21
 228 1214 228 1214 228 1276.5 c 128,-1,22
 228 1339 228 1339 257 1364 c 128,-1,23
 286 1389 286 1389 323 1389 c 128,-1,24
 360 1389 360 1389 390 1364 c 128,-1,25
 420 1339 420 1339 420 1276 c 128,-1,26
 420 1213 420 1213 390.5 1186.5 c 128,-1,19
 361 1160 361 1160 324 1160 c 128,-1,20
EndSplineSet
EndChar

StartChar: plusminus
Encoding: 177 177 114
Width: 801
GlyphClass: 2
Flags: MW
LayerCount: 2
Fore
SplineSet
127 132 m 2,0,1
 127 95 127 95 158 95 c 2,2,-1
 660 95 l 2,3,4
 691 95 691 95 691 132 c 2,5,-1
 691 147 l 2,6,7
 691 184 691 184 660 184 c 2,8,-1
 158 184 l 2,9,10
 138 184 138 184 132.5 173.5 c 128,-1,11
 127 163 127 163 127 147 c 2,12,-1
 127 132 l 2,0,1
347 601 m 2,13,14
 362 601 362 601 362 579 c 2,15,-1
 362 381 l 2,16,17
 362 353 362 353 370 344.5 c 128,-1,18
 378 336 378 336 395 336 c 2,19,-1
 427 336 l 2,20,21
 443 336 443 336 450.5 344.5 c 128,-1,22
 458 353 458 353 458 381 c 2,23,-1
 458 579 l 2,24,25
 458 601 458 601 475 601 c 2,26,-1
 660 601 l 2,27,28
 691 601 691 601 691 638 c 2,29,-1
 691 653 l 2,30,31
 691 690 691 690 660 690 c 2,32,-1
 475 690 l 2,33,34
 458 690 458 690 458 712 c 2,35,-1
 458 905 l 2,36,37
 458 933 458 933 450.5 941.5 c 128,-1,38
 443 950 443 950 427 950 c 2,39,-1
 395 950 l 2,40,41
 378 950 378 950 370 941.5 c 128,-1,42
 362 933 362 933 362 905 c 2,43,-1
 362 712 l 2,44,45
 362 690 362 690 347 690 c 2,46,-1
 159 690 l 2,47,48
 139 690 139 690 133.5 679.5 c 128,-1,49
 128 669 128 669 128 653 c 2,50,-1
 128 638 l 2,51,52
 128 601 128 601 159 601 c 2,53,-1
 347 601 l 2,13,14
EndSplineSet
EndChar

StartChar: acute
Encoding: 180 180 115
Width: 596
GlyphClass: 2
Flags: MW
LayerCount: 2
Fore
SplineSet
376 1167 m 2,0,-1
 396 1167 l 2,1,2
 409 1167 409 1167 416 1206 c 2,3,-1
 478 1538 l 2,4,5
 482 1562 482 1562 482 1582.5 c 128,-1,6
 482 1603 482 1603 472 1603 c 2,7,-1
 409 1603 l 2,8,9
 386 1603 386 1603 383 1548 c 2,10,-1
 362 1234 l 2,11,12
 361 1220 361 1220 361 1193.5 c 128,-1,13
 361 1167 361 1167 376 1167 c 2,0,-1
EndSplineSet
EndChar

StartChar: paragraph
Encoding: 182 182 116
Width: 1002
GlyphClass: 2
Flags: MW
LayerCount: 2
Fore
SplineSet
745 863 m 2,0,1
 764 863 764 863 764 842 c 2,2,-1
 764 68 l 2,3,4
 764 33 764 33 772.5 16 c 128,-1,5
 781 -1 781 -1 806 -1 c 2,6,-1
 819 -1 l 2,7,8
 844 -1 844 -1 853 16 c 128,-1,9
 862 33 862 33 862 68 c 2,10,-1
 862 1359 l 2,11,12
 862 1384 862 1384 855 1396 c 0,13,14
 832 1437 832 1437 573.5 1437.5 c 128,-1,15
 315 1438 315 1438 212 1370.5 c 128,-1,16
 109 1303 109 1303 109 1149 c 0,17,18
 109 972 109 972 266 902 c 0,19,20
 353 863 353 863 467 863 c 2,21,-1
 488 863 l 1,22,-1
 488 68 l 2,23,24
 488 33 488 33 496.5 16 c 128,-1,25
 505 -1 505 -1 530 -1 c 2,26,-1
 546 -1 l 2,27,28
 571 -1 571 -1 579.5 16 c 128,-1,29
 588 33 588 33 588 68 c 2,30,-1
 588 863 l 1,31,-1
 745 863 l 2,0,1
EndSplineSet
EndChar

StartChar: cedilla
Encoding: 184 184 117
Width: 339
GlyphClass: 2
Flags: MW
LayerCount: 2
Fore
SplineSet
135 -448 m 1,0,-1
 138 -395 l 1,1,2
 138 -361 138 -361 124 -361 c 2,3,-1
 93 -361 l 2,4,5
 72 -361 72 -361 72 -444.5 c 128,-1,6
 72 -528 72 -528 106 -567 c 128,-1,7
 140 -606 140 -606 199 -606 c 0,8,9
 316 -606 316 -606 316 -383 c 0,10,11
 316 -299 316 -299 281.5 -221.5 c 128,-1,12
 247 -144 247 -144 209 -144 c 2,13,-1
 172 -144 l 2,14,15
 165 -144 165 -144 165 -161 c 2,16,-1
 165 -208 l 2,17,18
 165 -218 165 -218 170 -218 c 2,19,-1
 190 -218 l 2,20,21
 208 -218 208 -218 230.5 -278.5 c 128,-1,22
 253 -339 253 -339 253 -395 c 0,23,24
 253 -543 253 -543 195 -543 c 0,25,26
 166 -543 166 -543 150.5 -516 c 128,-1,27
 135 -489 135 -489 135 -448 c 1,0,-1
EndSplineSet
EndChar

StartChar: ordmasculine
Encoding: 186 186 118
Width: 702
GlyphClass: 2
Flags: MW
LayerCount: 2
Fore
SplineSet
404 619 m 128,-1,1
 427 625 427 625 453 640 c 128,-1,2
 479 655 479 655 498.5 684.5 c 128,-1,3
 518 714 518 714 534 758 c 0,4,5
 568 847 568 847 568 989.5 c 128,-1,6
 568 1132 568 1132 555.5 1209 c 128,-1,7
 543 1286 543 1286 523.5 1329.5 c 128,-1,8
 504 1373 504 1373 474 1398 c 128,-1,9
 444 1423 444 1423 416.5 1430.5 c 128,-1,10
 389 1438 389 1438 353 1438 c 128,-1,11
 317 1438 317 1438 289 1430.5 c 128,-1,12
 261 1423 261 1423 230.5 1398 c 0,13,14
 200 1374 200 1374 180 1330 c 0,15,16
 134 1230 134 1230 134 1026 c 0,17,18
 134 736 134 736 232 654 c 0,19,20
 282 612 282 612 331.5 612.5 c 128,-1,0
 381 613 381 613 404 619 c 128,-1,1
403 693.5 m 128,-1,22
 382 681 382 681 351.5 681 c 128,-1,23
 321 681 321 681 299.5 694 c 128,-1,24
 278 707 278 707 259 742 c 0,25,26
 221 812 221 812 221 1026 c 0,27,28
 221 1200 221 1200 239.5 1258 c 128,-1,29
 258 1316 258 1316 276 1337 c 0,30,31
 304 1370 304 1370 339.5 1370 c 128,-1,32
 375 1370 375 1370 392 1364 c 128,-1,33
 409 1358 409 1358 427 1337.5 c 0,34,35
 444 1317 444 1317 456 1281 c 0,36,37
 482 1201 482 1201 482 1059.5 c 128,-1,38
 482 918 482 918 472.5 847 c 128,-1,39
 463 776 463 776 443.5 741 c 128,-1,21
 424 706 424 706 403 693.5 c 128,-1,22
EndSplineSet
EndChar

StartChar: guillemotright
Encoding: 187 187 119
Width: 714
GlyphClass: 2
Flags: MW
LayerCount: 2
Fore
SplineSet
342 233 m 0,0,1
 345 233 345 233 355 243 c 2,2,-1
 632 512 l 2,3,4
 657 535 657 535 657 581 c 2,5,-1
 657 657 l 2,6,7
 657 701 657 701 632 727 c 2,8,-1
 356 1016 l 2,9,10
 349 1024 349 1024 344 1024 c 0,11,12
 332 1024 332 1024 332 984 c 2,13,-1
 332 940 l 2,14,15
 332 909 332 909 336.5 896.5 c 128,-1,16
 341 884 341 884 356 867 c 2,17,-1
 582 631 l 2,18,19
 585 628 585 628 585 618 c 0,20,21
 585 608 585 608 581 604 c 2,22,-1
 356 388 l 1,23,24
 341 372 341 372 336.5 360.5 c 128,-1,25
 332 349 332 349 332 319 c 2,26,-1
 332 268 l 2,27,28
 332 233 332 233 342 233 c 0,0,1
71 233 m 0,29,30
 73 233 73 233 85 243 c 1,31,-1
 362 512 l 2,32,33
 387 535 387 535 387 581 c 2,34,-1
 387 657 l 2,35,36
 387 701 387 701 361 727 c 2,37,-1
 86 1016 l 2,38,39
 78 1024 78 1024 70 1024 c 0,40,41
 62 1024 62 1024 62 984 c 2,42,-1
 62 940 l 2,43,44
 62 909 62 909 66.5 896.5 c 128,-1,45
 71 884 71 884 85 867 c 1,46,-1
 311 631 l 2,47,48
 315 628 315 628 315 618 c 0,49,50
 315 608 315 608 311 604 c 2,51,-1
 86 388 l 2,52,53
 71 373 71 373 66.5 361.5 c 128,-1,54
 62 350 62 350 62 319 c 2,55,-1
 62 268 l 2,56,57
 62 233 62 233 71 233 c 0,29,30
EndSplineSet
EndChar

StartChar: onequarter
Encoding: 188 188 120
Width: 1727
GlyphClass: 2
Flags: MW
LayerCount: 2
Fore
SplineSet
1342 327 m 2,0,1
 1342 286 1342 286 1370 286 c 2,2,-1
 1399 286 l 2,3,4
 1427 286 1427 286 1427 327 c 2,5,-1
 1427 513 l 1,6,-1
 1556 513 l 2,7,8
 1580 513 1580 513 1589 519.5 c 128,-1,9
 1598 526 1598 526 1598 547 c 2,10,-1
 1598 565 l 2,11,12
 1598 586 1598 586 1589.5 592 c 128,-1,13
 1581 598 1581 598 1556 598 c 2,14,-1
 1427 598 l 1,15,-1
 1427 1394 l 2,16,17
 1427 1437 1427 1437 1399 1437 c 2,18,-1
 1370 1437 l 2,19,20
 1342 1437 1342 1437 1342 1394 c 2,21,-1
 1342 598 l 1,22,-1
 1107 598 l 2,23,24
 1088 598 1088 598 1091 617 c 2,25,-1
 1183 1383 l 2,26,27
 1185 1393 1185 1393 1185 1401 c 0,28,29
 1185 1437 1185 1437 1163 1437 c 2,30,-1
 1131 1437 l 2,31,32
 1117 1437 1117 1437 1111.5 1425 c 128,-1,33
 1106 1413 1106 1413 1102 1383 c 2,34,-1
 994 567 l 2,35,36
 993 563 993 563 993 557 c 0,37,38
 993 513 993 513 1043 513 c 2,39,-1
 1342 513 l 1,40,-1
 1342 327 l 2,0,1
554 122 m 2,41,-1
 601 122 l 2,42,43
 612 122 612 122 615 149 c 1,44,-1
 855 1577 l 2,45,46
 856 1581 856 1581 856 1585.5 c 128,-1,47
 856 1590 856 1590 855 1595 c 0,48,49
 853 1604 853 1604 849 1604 c 2,50,-1
 803 1604 l 2,51,52
 792 1604 792 1604 789 1577 c 1,53,-1
 548 149 l 2,54,55
 547 146 547 146 547 134 c 128,-1,56
 547 122 547 122 554 122 c 2,41,-1
309 286 m 2,57,-1
 363 286 l 2,58,59
 381 286 381 286 381 340 c 2,60,-1
 381 1405 l 2,61,62
 382 1429 382 1429 374 1434 c 0,63,64
 371 1436 371 1436 365 1436 c 0,65,66
 359 1436 359 1436 352 1433 c 1,67,-1
 206 1393 l 2,68,69
 188 1388 188 1388 188 1371 c 2,70,-1
 188 1328 l 2,71,72
 188 1312 188 1312 192.5 1307.5 c 128,-1,73
 197 1303 197 1303 206 1305 c 2,74,-1
 280 1324 l 1,75,76
 291 1328 291 1328 291 1305 c 2,77,-1
 291 340 l 2,78,79
 291 286 291 286 309 286 c 2,57,-1
EndSplineSet
EndChar

StartChar: onehalf
Encoding: 189 189 121
Width: 1639
GlyphClass: 2
Flags: MW
LayerCount: 2
Fore
SplineSet
1088 660 m 0,0,1
 1012 523 1012 523 1012 327 c 0,2,3
 1012 286 1012 286 1031 286 c 2,4,-1
 1420 286 l 2,5,6
 1437 286 1437 286 1437 313 c 2,7,-1
 1437 347 l 2,8,9
 1437 375 1437 375 1421 375 c 2,10,-1
 1116 375 l 2,11,12
 1115 375 1115 375 1113.5 384 c 128,-1,13
 1112 393 1112 393 1113 395 c 0,14,15
 1124 570 1124 570 1252 732 c 0,16,17
 1304 798 1304 798 1356 863 c 0,18,19
 1478 1018 1478 1018 1478 1167 c 0,20,21
 1478 1378 1478 1378 1312 1433 c 0,22,23
 1266 1448 1266 1448 1208 1448 c 0,24,25
 1115 1448 1115 1448 990 1397 c 1,26,27
 986 1394 986 1394 986 1375 c 0,28,29
 986 1335 986 1335 1003 1315 c 1,30,31
 1005 1307 1005 1307 1016.5 1312.5 c 128,-1,32
 1028 1318 1028 1318 1056 1329.5 c 0,33,34
 1084 1340 1084 1340 1100 1346 c 0,35,36
 1146 1362 1146 1362 1216.5 1362 c 128,-1,37
 1287 1362 1287 1362 1330.5 1307 c 128,-1,38
 1374 1252 1374 1252 1374 1183.5 c 128,-1,39
 1374 1115 1374 1115 1354.5 1063 c 128,-1,40
 1335 1011 1335 1011 1303.5 965.5 c 128,-1,41
 1272 920 1272 920 1234 872 c 0,42,43
 1139 751 1139 751 1088 660 c 0,0,1
573 122 m 2,44,-1
 620 122 l 2,45,46
 631 122 631 122 634 149 c 1,47,-1
 874 1577 l 2,48,49
 875 1581 875 1581 875 1585.5 c 128,-1,50
 875 1590 875 1590 874 1595 c 0,51,52
 872 1604 872 1604 868 1604 c 2,53,-1
 822 1604 l 2,54,55
 811 1604 811 1604 808 1577 c 1,56,-1
 567 149 l 1,57,-1
 567 141 l 2,58,59
 567 122 567 122 573 122 c 2,44,-1
328 286 m 2,60,-1
 382 286 l 2,61,62
 400 286 400 286 400 340 c 2,63,-1
 400 1405 l 2,64,65
 400 1429 400 1429 392 1434 c 0,66,67
 389 1436 389 1436 384 1436 c 0,68,69
 378 1436 378 1436 371 1433 c 1,70,-1
 225 1393 l 2,71,72
 207 1388 207 1388 207 1371 c 2,73,-1
 207 1328 l 2,74,75
 207 1312 207 1312 211.5 1307.5 c 128,-1,76
 216 1303 216 1303 225 1305 c 2,77,-1
 299 1324 l 1,78,79
 310 1328 310 1328 310 1305 c 2,80,-1
 310 340 l 2,81,82
 310 286 310 286 328 286 c 2,60,-1
EndSplineSet
EndChar

StartChar: threequarters
Encoding: 190 190 122
Width: 1869
GlyphClass: 2
Flags: MW
LayerCount: 2
Fore
SplineSet
1523 326 m 2,0,1
 1523 285 1523 285 1551 285 c 2,2,-1
 1581 285 l 2,3,4
 1609 285 1609 285 1609 326 c 2,5,-1
 1609 512 l 1,6,-1
 1738 512 l 2,7,8
 1762 512 1762 512 1770.5 518.5 c 128,-1,9
 1779 525 1779 525 1779 546 c 2,10,-1
 1779 564 l 2,11,12
 1779 585 1779 585 1770.5 591 c 128,-1,13
 1762 597 1762 597 1738 597 c 2,14,-1
 1609 597 l 1,15,-1
 1609 1393 l 2,16,17
 1609 1436 1609 1436 1581 1436 c 2,18,-1
 1551 1436 l 2,19,20
 1523 1436 1523 1436 1523 1393 c 2,21,-1
 1523 597 l 1,22,-1
 1288 597 l 2,23,24
 1270 597 1270 597 1273 616 c 2,25,-1
 1365 1382 l 2,26,27
 1366 1387 1366 1387 1366 1400 c 0,28,29
 1366 1436 1366 1436 1344 1436 c 2,30,-1
 1313 1436 l 2,31,32
 1299 1436 1299 1436 1293 1423.5 c 128,-1,33
 1287 1411 1287 1411 1283 1382 c 2,34,-1
 1175 566 l 2,35,36
 1174 562 1174 562 1174 556 c 0,37,38
 1174 512 1174 512 1224 512 c 2,39,-1
 1523 512 l 1,40,-1
 1523 326 l 2,0,1
735 121 m 2,41,-1
 782 121 l 2,42,43
 793 121 793 121 796 148 c 1,44,-1
 1036 1576 l 2,45,46
 1037 1580 1037 1580 1037 1585 c 128,-1,47
 1037 1590 1037 1590 1036 1594 c 0,48,49
 1034 1603 1034 1603 1030 1603 c 2,50,-1
 985 1603 l 2,51,52
 973 1603 973 1603 970 1576 c 1,53,-1
 730 148 l 2,54,55
 729 145 729 145 729 133 c 128,-1,56
 729 121 729 121 735 121 c 2,41,-1
186 1402 m 1,57,58
 173 1393 173 1393 173 1363 c 128,-1,59
 173 1333 173 1333 182 1333 c 1,60,61
 183 1328 183 1328 184 1327 c 0,62,63
 185 1327 185 1327 187 1328 c 0,64,65
 263 1372 263 1372 350.5 1372 c 128,-1,66
 438 1372 438 1372 477.5 1317 c 128,-1,67
 517 1262 517 1262 517 1137.5 c 128,-1,68
 517 1013 517 1013 474.5 964 c 128,-1,69
 432 915 432 915 331 915 c 0,70,71
 314 915 314 915 314 895 c 2,72,-1
 314 853 l 2,73,74
 314 832 314 832 331 832 c 2,75,-1
 360 832 l 1,76,77
 446 829 446 829 487 777 c 0,78,79
 529 724 529 724 529 592 c 0,80,81
 529 464 529 464 486 406 c 0,82,83
 443 348 443 348 350.5 348.5 c 128,-1,84
 258 349 258 349 193 386 c 1,85,86
 189 390 189 390 187 380 c 1,87,88
 178 380 178 380 178 348.5 c 128,-1,89
 178 317 178 317 188 310 c 1,90,91
 248 275 248 275 352 275 c 0,92,93
 614 275 614 275 614 582 c 0,94,95
 614 844 614 844 449 873 c 1,96,97
 528 896 528 896 566.5 958.5 c 128,-1,98
 605 1021 605 1021 605 1135 c 0,99,100
 605 1447 605 1447 364 1447 c 0,101,102
 263 1447 263 1447 186 1402 c 1,57,58
EndSplineSet
EndChar

StartChar: AE
Encoding: 198 198 130
Width: 993
GlyphClass: 2
Flags: MW
LayerCount: 2
Fore
SplineSet
294 427 m 2,0,1
 283 427 283 427 283 432 c 128,-1,2
 283 437 283 437 285 447 c 2,3,-1
 522 1324 l 1,4,-1
 526 1335 l 2,5,6
 527 1335 527 1335 527 1321 c 2,7,-1
 527 445 l 2,8,9
 527 427 527 427 525 427 c 2,10,-1
 294 427 l 2,0,1
56 44 m 2,11,-1
 58 31 l 1,12,13
 58 0 58 0 70 0 c 2,14,-1
 131 0 l 2,15,16
 160 0 160 0 170 50 c 1,17,-1
 251 336 l 2,18,19
 254 347 254 347 257 347 c 2,20,-1
 527 347 l 1,21,-1
 527 35 l 2,22,23
 527 5 527 5 534 2.5 c 128,-1,24
 541 0 541 0 550 0 c 2,25,-1
 907 0 l 2,26,27
 920 0 920 0 925 5 c 128,-1,28
 930 10 930 10 930 31 c 2,29,-1
 930 59 l 2,30,31
 930 86 930 86 923 88 c 128,-1,32
 916 90 916 90 907 90 c 2,33,-1
 642 90 l 1,34,-1
 642 673 l 2,35,36
 642 676 642 676 644.5 685 c 128,-1,37
 647 694 647 694 648 694 c 2,38,-1
 872 694 l 2,39,40
 885 694 885 694 890.5 700 c 128,-1,41
 896 706 896 706 896 727 c 2,42,-1
 896 756 l 2,43,44
 896 775 896 775 890.5 781 c 128,-1,45
 885 787 885 787 872 787 c 2,46,-1
 648 787 l 2,47,48
 642 787 642 787 642 801 c 2,49,-1
 642 1320 l 2,50,51
 642 1348 642 1348 652 1348 c 2,52,-1
 874 1348 l 2,53,54
 889 1348 889 1348 893 1356 c 128,-1,55
 897 1364 897 1364 897 1379 c 2,56,-1
 897 1407 l 2,57,58
 897 1428 897 1428 891.5 1433 c 128,-1,59
 886 1438 886 1438 874 1438 c 2,60,-1
 480 1438 l 2,61,62
 453 1438 453 1438 438 1383 c 2,63,-1
 61 56 l 1,64,65
 56 50 56 50 56 44 c 2,11,-1
EndSplineSet
EndChar

StartChar: Eth
Encoding: 208 208 140
Width: 899
GlyphClass: 2
Flags: MW
LayerCount: 2
Fore
SplineSet
6 718 m 2,0,1
 6 686 6 686 37 686 c 2,2,-1
 108 686 l 1,3,-1
 108 39 l 2,4,5
 108 15 108 15 113 7.5 c 128,-1,6
 118 0 118 0 131 0 c 2,7,-1
 426 0 l 2,8,9
 513 0 513 0 571.5 17 c 128,-1,10
 630 34 630 34 679 79.5 c 0,11,12
 728 124 728 124 756 206 c 0,13,14
 812 373 812 373 812 723 c 0,15,16
 812 1200 812 1200 669 1348 c 0,17,18
 582 1438 582 1438 434 1438 c 2,19,-1
 131 1438 l 2,20,21
 108 1438 108 1438 108 1407 c 2,22,-1
 108 770 l 1,23,-1
 37 770 l 2,24,25
 21 770 21 770 13.5 764 c 128,-1,26
 6 758 6 758 6 737 c 2,27,-1
 6 718 l 2,0,1
234 90 m 2,28,29
 222 90 222 90 222 110 c 2,30,-1
 222 686 l 1,31,-1
 395 686 l 2,32,33
 423 686 423 686 426 711 c 1,34,-1
 426 738 l 2,35,36
 426 758 426 758 418.5 764 c 128,-1,37
 411 770 411 770 395 770 c 2,38,-1
 222 770 l 1,39,-1
 222 1331 l 2,40,41
 222 1348 222 1348 233 1348 c 2,42,-1
 426 1348 l 2,43,44
 574 1348 574 1348 635.5 1202.5 c 128,-1,45
 697 1057 697 1057 697 723 c 0,46,47
 697 431 697 431 671.5 322.5 c 128,-1,48
 646 214 646 214 614 172 c 0,49,50
 552 91 552 91 423 90 c 2,51,-1
 234 90 l 2,28,29
EndSplineSet
EndChar

StartChar: multiply
Encoding: 215 215 147
Width: 801
GlyphClass: 2
Flags: MW
LayerCount: 2
Fore
SplineSet
203 377 m 1,0,1
 217 365 217 365 227 365 c 0,2,3
 237 365 237 365 258 386 c 2,4,-1
 410 537 l 1,5,-1
 561 386 l 2,6,7
 581 366 581 366 593 366 c 0,8,9
 605 366 605 366 616 377 c 2,10,-1
 639 401 l 2,11,12
 650 412 650 412 650 422 c 0,13,14
 650 432 650 432 629 454 c 2,15,-1
 478 605 l 1,16,-1
 629 756 l 2,17,18
 649 776 649 776 649 788 c 0,19,20
 649 800 649 800 638 811 c 2,21,-1
 615 834 l 2,22,23
 605 844 605 844 593 844 c 0,24,25
 581 844 581 844 561 824 c 2,26,-1
 410 673 l 1,27,-1
 258 824 l 2,28,29
 238 845 238 845 227 845 c 0,30,31
 216 845 216 845 205 834 c 2,32,-1
 182 811 l 2,33,34
 171 800 171 800 171 788 c 0,35,36
 171 776 171 776 191 756 c 2,37,-1
 342 605 l 1,38,-1
 191 454 l 2,39,40
 170 433 170 433 170 422 c 0,41,42
 170 411 170 411 181 400 c 2,43,-1
 203 377 l 1,0,1
EndSplineSet
EndChar

StartChar: Oslash
Encoding: 216 216 148
Width: 870
GlyphClass: 2
Flags: MW
LayerCount: 2
Fore
SplineSet
434 80 m 0,0,1
 412 80 412 80 393 83 c 1,2,-1
 564 1297 l 1,3,4
 619 1241 619 1241 642.5 1107 c 128,-1,5
 666 973 666 973 666 714 c 128,-1,6
 666 455 666 455 642.5 316 c 128,-1,7
 619 177 619 177 572 128.5 c 128,-1,8
 525 80 525 80 434 80 c 0,0,1
328 119 m 1,9,10
 261 163 261 163 232.5 300 c 128,-1,11
 204 437 204 437 204 702 c 128,-1,12
 204 967 204 967 226 1102.5 c 128,-1,13
 248 1238 248 1238 297 1299 c 128,-1,14
 346 1360 346 1360 434 1360 c 0,15,16
 466 1360 466 1360 502 1351 c 1,17,-1
 328 119 l 1,9,10
293 -205 m 2,18,-1
 342 -205 l 2,19,20
 352 -205 352 -205 357 -172 c 2,21,-1
 379 -11 l 1,22,23
 404 -14 404 -14 459 -14 c 128,-1,24
 514 -14 514 -14 568.5 5 c 128,-1,25
 623 24 623 24 666 71.5 c 128,-1,26
 709 119 709 119 733 204 c 0,27,28
 781 374 781 374 781 713.5 c 128,-1,29
 781 1053 781 1053 735 1214.5 c 128,-1,30
 689 1376 689 1376 582 1426 c 1,31,-1
 609 1614 l 2,32,33
 611 1625 611 1625 609 1636 c 128,-1,34
 607 1647 607 1647 603 1647 c 2,35,-1
 555 1647 l 2,36,37
 542 1647 542 1647 539 1614 c 1,38,-1
 516 1446 l 1,39,40
 481 1453 481 1453 434 1453 c 0,41,42
 306 1453 306 1453 232.5 1387 c 128,-1,43
 159 1321 159 1321 124 1163 c 128,-1,44
 89 1005 89 1005 89 742.5 c 128,-1,45
 89 480 89 480 111.5 331 c 128,-1,46
 134 182 134 182 182 105 c 128,-1,47
 230 28 230 28 312 2 c 1,48,-1
 287 -172 l 2,49,50
 285 -181 285 -181 287.5 -193 c 128,-1,51
 290 -205 290 -205 293 -205 c 2,18,-1
EndSplineSet
EndChar

StartChar: Thorn
Encoding: 222 222 154
Width: 796
GlyphClass: 2
Flags: MW
LayerCount: 2
Fore
SplineSet
229 469 m 2,0,1
 222 469 222 469 222 481 c 2,2,-1
 222 1077 l 2,3,4
 222 1090 222 1090 230 1090 c 2,5,-1
 360 1090 l 2,6,7
 459 1090 459 1090 485 1080 c 128,-1,8
 511 1070 511 1070 531 1059 c 128,-1,9
 551 1048 551 1048 563 1032 c 128,-1,10
 575 1016 575 1016 587.5 992 c 128,-1,11
 600 968 600 968 606 937 c 0,12,13
 622 863 622 863 622 782.5 c 128,-1,14
 622 702 622 702 616 652.5 c 128,-1,15
 610 603 610 603 596 569.5 c 128,-1,16
 582 536 582 536 565 516 c 128,-1,17
 548 496 548 496 518 486 c 0,18,19
 472 470 472 470 388 469 c 2,20,-1
 229 469 l 2,0,1
108 45 m 2,21,22
 108 0 108 0 131 0 c 2,23,-1
 199 0 l 2,24,25
 222 0 222 0 222 45 c 2,26,-1
 222 364 l 2,27,28
 222 378 222 378 230 378 c 2,29,-1
 396 378 l 2,30,31
 544 378 544 378 606 416 c 0,32,33
 672 457 672 457 700 532 c 0,34,35
 736 626 736 626 736 756 c 128,-1,36
 736 886 736 886 713.5 965.5 c 128,-1,37
 691 1045 691 1045 660.5 1086.5 c 128,-1,38
 630 1128 630 1128 574 1150 c 128,-1,39
 518 1172 518 1172 476 1176 c 128,-1,40
 434 1180 434 1180 364 1180 c 2,41,-1
 222 1180 l 1,42,-1
 222 1361 l 2,43,44
 222 1406 222 1406 199 1406 c 2,45,-1
 131 1406 l 2,46,47
 108 1406 108 1406 108 1361 c 2,48,-1
 108 45 l 2,21,22
EndSplineSet
EndChar

StartChar: germandbls
Encoding: 223 223 155
Width: 812
GlyphClass: 2
Flags: MW
LayerCount: 2
Fore
SplineSet
176 0 m 2,0,-1
 111 0 l 2,1,2
 93 0 93 0 88.5 10.5 c 128,-1,3
 84 21 84 21 84 39 c 2,4,-1
 84 1045 l 2,5,6
 84 1438 84 1438 381 1438 c 0,7,8
 519 1438 519 1438 599 1357.5 c 128,-1,9
 679 1277 679 1277 679 1117 c 0,10,11
 679 1014 679 1014 644 950 c 128,-1,12
 609 886 609 886 526 855 c 0,13,14
 515 851 515 851 518 845.5 c 128,-1,15
 521 840 521 840 527 838 c 0,16,17
 652 794 652 794 696 680 c 0,18,19
 736 578 736 578 736 447.5 c 128,-1,20
 736 317 736 317 705 228.5 c 128,-1,21
 674 140 674 140 616 91 c 0,22,23
 507 0 507 0 313 0 c 1,24,25
 297 0 297 0 297 44 c 128,-1,26
 297 88 297 88 313 88 c 0,27,28
 478 88 478 88 551 174.5 c 128,-1,29
 624 261 624 261 624 440 c 0,30,31
 624 801 624 801 386 801 c 0,32,33
 369 801 369 801 369 844 c 128,-1,34
 369 887 369 887 386 887 c 0,35,36
 494 887 494 887 534 954 c 0,37,38
 568 1012 568 1012 568.5 1122 c 128,-1,39
 569 1232 569 1232 526 1290 c 128,-1,40
 483 1348 483 1348 383 1348 c 0,41,42
 254 1348 254 1348 217 1224 c 0,43,44
 196 1153 196 1153 196 1038 c 2,45,-1
 196 38 l 2,46,47
 196 0 196 0 176 0 c 2,0,-1
EndSplineSet
EndChar

StartChar: ae
Encoding: 230 230 162
Width: 1052
GlyphClass: 2
Flags: MW
LayerCount: 2
Fore
SplineSet
570 549 m 2,0,1
 567 549 567 549 567 608 c 1,2,3
 574 776 574 776 613 855 c 128,-1,4
 652 934 652 934 720 934 c 128,-1,5
 788 934 788 934 817.5 842.5 c 128,-1,6
 847 751 847 751 854 558 c 0,7,8
 854 549 854 549 853 549 c 2,9,-1
 570 549 l 2,0,1
461 473 m 0,10,11
 461 69 461 69 291 69 c 0,12,13
 225 69 225 69 196 113.5 c 128,-1,14
 167 158 167 158 166 244 c 1,15,16
 166 473 166 473 395 527 c 0,17,18
 397 528 397 528 425 532 c 128,-1,19
 453 536 453 536 457 536 c 128,-1,20
 461 536 461 536 461 473 c 0,10,11
73 238 m 0,21,22
 73 -12 73 -12 276 -12 c 0,23,24
 454 -12 454 -12 508 228 c 1,25,26
 535 112 535 112 591 50 c 128,-1,27
 647 -12 647 -12 721.5 -12 c 128,-1,28
 796 -12 796 -12 844 26 c 0,29,30
 930 94 930 94 930 252 c 0,31,32
 930 289 930 289 929 291 c 1,33,34
 929 304 929 304 916 304 c 2,35,-1
 868 304 l 2,36,37
 862 304 862 304 861 292 c 128,-1,38
 860 280 860 280 858.5 263 c 128,-1,39
 857 246 857 246 855.5 233.5 c 128,-1,40
 854 221 854 221 850 197 c 128,-1,41
 846 173 846 173 840.5 158.5 c 128,-1,42
 835 144 835 144 825.5 126 c 128,-1,43
 816 108 816 108 804 98 c 0,44,45
 773 73 773 73 729 73 c 0,46,47
 568 73 568 73 566 466 c 0,48,49
 566 481 566 481 572 481 c 2,50,-1
 901 481 l 2,51,52
 916 482 916 482 926 510 c 0,53,54
 940 550 940 550 940 590 c 1,55,56
 932 810 932 810 879.5 914.5 c 128,-1,57
 827 1019 827 1019 714 1019 c 0,58,59
 652 1019 652 1019 599 971.5 c 128,-1,60
 546 924 546 924 525 828 c 1,61,62
 490 1018 490 1018 325 1018 c 0,63,64
 185 1018 185 1018 120 883 c 0,65,66
 105 852 105 852 97 818 c 0,67,68
 88 784 88 784 92 775 c 0,69,70
 98 759 98 759 148 748 c 1,71,72
 169 742 169 742 177 773 c 128,-1,73
 185 804 185 804 192.5 825 c 128,-1,74
 200 846 200 846 216 874 c 0,75,76
 251 934 251 934 327 934 c 0,77,78
 411 934 411 934 437 848 c 0,79,80
 459 776 459 776 459 654 c 2,81,-1
 459 610 l 1,82,83
 451 607 451 607 412 600 c 128,-1,84
 373 593 373 593 334 584 c 128,-1,85
 295 575 295 575 246 550 c 128,-1,86
 197 525 197 525 160.5 489 c 128,-1,87
 124 453 124 453 98.5 388 c 128,-1,88
 73 323 73 323 73 238 c 0,21,22
EndSplineSet
EndChar

StartChar: eth
Encoding: 240 240 172
Width: 758
GlyphClass: 2
Flags: MW
LayerCount: 2
Fore
SplineSet
167 439 m 0,0,1
 167 775 167 775 357 775 c 0,2,3
 573 775 573 775 573 478 c 0,4,5
 573 120 573 120 428 78 c 0,6,7
 402 70 402 70 350.5 70 c 0,8,9
 298 70 298 70 256 103 c 0,10,11
 166 172 166 172 167 439 c 0,0,1
274 -2 m 0,12,13
 318 -14 318 -14 380 -14 c 128,-1,14
 442 -14 442 -14 494.5 9 c 128,-1,15
 547 32 547 32 582 74 c 128,-1,16
 617 116 617 116 638 183 c 0,17,18
 676 304 676 304 676 516 c 0,19,20
 676 865 676 865 466 1139 c 1,21,-1
 623 1217 l 1,22,23
 650 1232 650 1232 624 1268 c 1,24,25
 609 1297 609 1297 587 1282 c 1,26,-1
 415 1193 l 1,27,28
 329 1281 329 1281 209 1353 c 0,29,30
 207 1354 207 1354 200.5 1354 c 128,-1,31
 194 1354 194 1354 190 1345 c 1,32,33
 179 1345 179 1345 166.5 1331.5 c 128,-1,34
 154 1318 154 1318 154 1309.5 c 128,-1,35
 154 1301 154 1301 162 1296 c 0,36,37
 260 1233 260 1233 344 1147 c 1,38,-1
 194 1072 l 1,39,40
 168 1056 168 1056 188 1026 c 128,-1,41
 208 996 208 996 229 1008 c 1,42,-1
 396 1094 l 1,43,44
 515 931 515 931 545 783 c 1,45,46
 468 861 468 861 364 861 c 0,47,48
 64 861 64 861 64 427 c 0,49,50
 64 53 64 53 274 -2 c 0,12,13
EndSplineSet
EndChar

StartChar: divide
Encoding: 247 247 179
Width: 310
GlyphClass: 2
Flags: MW
LayerCount: 2
Fore
SplineSet
440 450 m 2,0,1
 493 450 493 450 493 473 c 2,2,-1
 493 533 l 2,3,4
 493 556 493 556 440 556 c 2,5,-1
 -117 556 l 2,6,7
 -170 556 -170 556 -170 533 c 2,8,-1
 -170 473 l 2,9,10
 -170 450 -170 450 -117 450 c 2,11,-1
 440 450 l 2,0,1
122 868 m 2,12,13
 99 868 99 868 99 819 c 2,14,-1
 99 747 l 2,15,16
 99 704 99 704 112 700 c 0,17,18
 116 698 116 698 122 698 c 2,19,-1
 198 698 l 2,20,21
 221 698 221 698 221 747 c 2,22,-1
 221 819 l 2,23,24
 221 868 221 868 198 868 c 2,25,-1
 122 868 l 2,12,13
122 320 m 2,26,27
 99 320 99 320 99 271 c 2,28,-1
 99 199 l 2,29,30
 99 160 99 160 106.5 155 c 128,-1,31
 114 150 114 150 122 150 c 2,32,-1
 198 150 l 2,33,34
 221 150 221 150 221 199 c 2,35,-1
 221 271 l 2,36,37
 221 320 221 320 198 320 c 2,38,-1
 122 320 l 2,26,27
EndSplineSet
EndChar

StartChar: oslash
Encoding: 248 248 180
Width: 702
GlyphClass: 2
Flags: MW
LayerCount: 2
Fore
SplineSet
204 39 m 1,0,1
 266 -12 266 -12 353 -12 c 1,2,3
 500 -12 500 -12 564 127 c 0,4,5
 622 252 622 252 622 529.5 c 128,-1,6
 622 807 622 807 544 925 c 1,7,-1
 597 1063 l 1,8,9
 602 1073 602 1073 602 1079 c 128,-1,10
 602 1085 602 1085 600 1085 c 2,11,-1
 567 1098 l 1,12,-1
 566 1098 l 2,13,14
 562 1098 562 1098 552 1079 c 1,15,-1
 509 966 l 1,16,17
 471 1000 471 1000 434.5 1009.5 c 128,-1,18
 398 1019 398 1019 353 1019 c 128,-1,19
 308 1019 308 1019 273 1010 c 128,-1,20
 238 1001 238 1001 200 969.5 c 128,-1,21
 162 938 162 938 137 884 c 0,22,23
 80 761 80 761 80 478.5 c 128,-1,24
 80 196 80 196 167 78 c 1,25,-1
 123 -37 l 1,26,27
 119 -51 119 -51 119 -55 c 128,-1,28
 119 -59 119 -59 120 -59 c 2,29,-1
 154 -74 l 1,30,-1
 155 -74 l 2,31,32
 162 -74 162 -74 168 -55 c 1,33,-1
 204 39 l 1,0,1
492 789 m 1,34,35
 515 681 515 681 515 525 c 128,-1,36
 515 369 515 369 503 280 c 128,-1,37
 491 191 491 191 467 147.5 c 128,-1,38
 443 104 443 104 416.5 88.5 c 128,-1,39
 390 73 390 73 352 73 c 0,40,41
 282 73 282 73 242 138 c 1,42,-1
 492 789 l 1,34,35
215 203 m 1,43,44
 188 302 188 302 188 459 c 128,-1,45
 188 616 188 616 197 696 c 128,-1,46
 206 776 206 776 220 821.5 c 128,-1,47
 234 867 234 867 257 893 c 128,-1,48
 280 919 280 919 301.5 926.5 c 128,-1,49
 323 934 323 934 352 934 c 0,50,51
 431 934 431 934 468 861 c 1,52,-1
 215 203 l 1,43,44
EndSplineSet
EndChar

StartChar: thorn
Encoding: 254 254 186
Width: 709
GlyphClass: 2
Flags: MW
LayerCount: 2
Fore
SplineSet
483.5 177 m 128,-1,1
 440 73 440 73 368.5 73 c 128,-1,2
 297 73 297 73 249 198 c 128,-1,3
 201 323 201 323 201 509 c 128,-1,4
 201 695 201 695 253 814.5 c 128,-1,5
 305 934 305 934 374.5 934 c 128,-1,6
 444 934 444 934 485.5 831 c 128,-1,7
 527 728 527 728 527 504.5 c 128,-1,0
 527 281 527 281 483.5 177 c 128,-1,1
121 -469 m 2,8,-1
 178 -469 l 2,9,10
 201 -469 201 -469 201 -400 c 2,11,-1
 201 166 l 1,12,13
 232 76 232 76 281.5 32 c 128,-1,14
 331 -12 331 -12 381.5 -12 c 128,-1,15
 432 -12 432 -12 473.5 14.5 c 0,16,17
 516 42 516 42 552 98 c 0,18,19
 632 223 632 223 632 503 c 0,20,21
 632 902 632 902 486 994 c 0,22,23
 446 1019 446 1019 393 1019 c 128,-1,24
 340 1019 340 1019 288.5 973 c 128,-1,25
 237 927 237 927 207 839 c 1,26,27
 207 834 207 834 204 834 c 128,-1,28
 201 834 201 834 201 845 c 2,29,-1
 201 1366 l 2,30,31
 201 1435 201 1435 178 1435 c 2,32,-1
 121 1435 l 2,33,34
 98 1435 98 1435 98 1366 c 2,35,-1
 98 -400 l 2,36,37
 98 -469 98 -469 121 -469 c 2,8,-1
EndSplineSet
EndChar

StartChar: Dcroat
Encoding: 272 272 204
Width: 899
GlyphClass: 2
Flags: MW
LayerCount: 2
Fore
SplineSet
39 766 m 2,0,1
 12 766 12 766 12 735 c 2,2,-1
 12 721 l 2,3,4
 12 703 12 703 18.5 697.5 c 128,-1,5
 25 692 25 692 39 692 c 2,6,-1
 108 692 l 1,7,-1
 108 39 l 2,8,9
 108 15 108 15 113 7.5 c 128,-1,10
 118 0 118 0 131 0 c 2,11,-1
 426 0 l 2,12,13
 513 0 513 0 571.5 17 c 128,-1,14
 630 34 630 34 679 79.5 c 0,15,16
 728 124 728 124 756 206 c 0,17,18
 812 373 812 373 812 723 c 0,19,20
 812 1200 812 1200 669 1348 c 0,21,22
 582 1438 582 1438 434 1438 c 2,23,-1
 131 1438 l 2,24,25
 108 1438 108 1438 108 1407 c 2,26,-1
 108 766 l 1,27,-1
 39 766 l 2,0,1
445 737 m 2,28,29
 445 766 445 766 418 766 c 2,30,-1
 222 766 l 1,31,-1
 222 1331 l 2,32,33
 222 1348 222 1348 233 1348 c 2,34,-1
 426 1348 l 2,35,36
 574 1348 574 1348 635.5 1202.5 c 128,-1,37
 697 1057 697 1057 697 723 c 0,38,39
 697 431 697 431 671.5 322.5 c 128,-1,40
 646 214 646 214 614 172 c 0,41,42
 552 91 552 91 423 90 c 2,43,-1
 234 90 l 2,44,45
 222 90 222 90 222 110 c 2,46,-1
 222 692 l 1,47,-1
 418 692 l 2,48,49
 432 692 432 692 438.5 697.5 c 128,-1,50
 445 703 445 703 445 722 c 2,51,-1
 445 737 l 2,28,29
EndSplineSet
EndChar

StartChar: dcroat
Encoding: 273 273 205
Width: 718
GlyphClass: 2
Flags: MW
LayerCount: 2
Fore
SplineSet
465 820.5 m 128,-1,1
 512 707 512 707 512 508.5 c 128,-1,2
 512 310 512 310 465.5 191.5 c 128,-1,3
 419 73 419 73 345 73 c 0,4,5
 294 73 294 73 260 108 c 0,6,7
 186 186 186 186 186 507 c 0,8,9
 186 874 186 874 295 924 c 0,10,11
 317 934 317 934 346 934 c 0,12,0
 418 934 418 934 465 820.5 c 128,-1,1
506 842 m 0,13,14
 416 990 416 990 327 1019 c 1,15,16
 182 1020 182 1020 128 878 c 0,17,18
 78 750 78 750 78 504 c 0,19,20
 78 144 78 144 190 40 c 0,21,22
 245 -12 245 -12 325.5 -12 c 129,-1,23
 406 -12 406 -12 457 43.5 c 128,-1,24
 508 99 508 99 539 224 c 1,25,26
 542 216 542 216 547 165 c 0,27,28
 561 26 561 26 580 7 c 1,29,-1
 600 0 l 1,30,31
 620 0 620 0 620 67 c 2,32,-1
 620 1186 l 1,33,-1
 688 1186 l 2,34,35
 702 1186 702 1186 708.5 1191.5 c 128,-1,36
 715 1197 715 1197 715 1216 c 2,37,-1
 715 1231 l 2,38,39
 715 1260 715 1260 688 1260 c 2,40,-1
 620 1260 l 1,41,-1
 620 1370 l 2,42,43
 620 1435 620 1435 596 1435 c 2,44,-1
 537 1435 l 2,45,46
 512 1435 512 1435 512 1370 c 2,47,-1
 512 1260 l 1,48,-1
 309 1260 l 2,49,50
 282 1260 282 1260 282 1229 c 2,51,-1
 282 1215 l 2,52,53
 282 1197 282 1197 288.5 1191.5 c 128,-1,54
 295 1186 295 1186 309 1186 c 2,55,-1
 512 1186 l 1,56,-1
 512 852 l 2,57,58
 512 830 512 830 511 830 c 0,59,60
 506 840 506 840 506 842 c 0,13,14
EndSplineSet
EndChar

StartChar: Hbar
Encoding: 294 294 224
Width: 881
GlyphClass: 2
Flags: MW
LayerCount: 2
Fore
SplineSet
228 787 m 2,0,1
 222 787 222 787 222 804 c 2,2,-1
 222 1186 l 1,3,-1
 658 1186 l 1,4,-1
 658 807 l 2,5,6
 658 804 658 804 654 795.5 c 128,-1,7
 650 787 650 787 649 787 c 2,8,-1
 228 787 l 2,0,1
45 1260 m 2,9,10
 18 1260 18 1260 18 1229 c 2,11,-1
 18 1215 l 2,12,13
 18 1197 18 1197 24.5 1191.5 c 128,-1,14
 31 1186 31 1186 45 1186 c 2,15,-1
 108 1186 l 1,16,-1
 108 47 l 2,17,18
 108 17 108 17 113.5 8.5 c 128,-1,19
 119 0 119 0 132 0 c 2,20,-1
 197 0 l 2,21,22
 211 0 211 0 217 8.5 c 128,-1,23
 223 17 223 17 223 47 c 2,24,-1
 223 674 l 2,25,26
 223 691 223 691 229 691 c 2,27,-1
 650 691 l 2,28,29
 651 691 651 691 654.5 683 c 128,-1,30
 658 675 658 675 658 672 c 2,31,-1
 658 47 l 2,32,33
 658 17 658 17 664 8.5 c 128,-1,34
 670 0 670 0 685 0 c 2,35,-1
 751 0 l 2,36,37
 763 0 763 0 768.5 8.5 c 128,-1,38
 774 17 774 17 774 47 c 2,39,-1
 774 1186 l 1,40,-1
 836 1186 l 2,41,42
 850 1186 850 1186 856 1191.5 c 128,-1,43
 862 1197 862 1197 862 1216 c 2,44,-1
 862 1231 l 2,45,46
 862 1260 862 1260 836 1260 c 2,47,-1
 774 1260 l 1,48,-1
 774 1391 l 2,49,50
 774 1421 774 1421 768.5 1429.5 c 128,-1,51
 763 1438 763 1438 751 1438 c 2,52,-1
 685 1438 l 2,53,54
 670 1438 670 1438 664 1429.5 c 128,-1,55
 658 1421 658 1421 658 1391 c 2,56,-1
 658 1260 l 1,57,-1
 222 1260 l 1,58,-1
 222 1391 l 2,59,60
 222 1421 222 1421 216 1429.5 c 128,-1,61
 210 1438 210 1438 196 1438 c 2,62,-1
 132 1438 l 2,63,64
 119 1438 119 1438 113.5 1429.5 c 128,-1,65
 108 1421 108 1421 108 1391 c 2,66,-1
 108 1260 l 1,67,-1
 45 1260 l 2,9,10
EndSplineSet
EndChar

StartChar: hbar
Encoding: 295 295 225
Width: 684
GlyphClass: 2
Flags: MW
LayerCount: 2
Fore
SplineSet
99 51 m 2,0,1
 99 0 99 0 122 0 c 2,2,-1
 184 0 l 2,3,4
 207 0 207 0 207 51 c 2,5,-1
 207 605 l 2,6,7
 207 730 207 730 262 832 c 128,-1,8
 317 934 317 934 380 934 c 128,-1,9
 443 934 443 934 465.5 861.5 c 128,-1,10
 488 789 488 789 488 621 c 2,11,-1
 488 51 l 2,12,13
 488 0 488 0 511 0 c 2,14,-1
 573 0 l 2,15,16
 596 0 596 0 596 51 c 2,17,-1
 596 591 l 2,18,19
 596 910 596 910 514 984 c 0,20,21
 475 1020 475 1020 413.5 1019.5 c 128,-1,22
 352 1019 352 1019 299 975 c 128,-1,23
 246 931 246 931 215 835 c 0,24,25
 214 831 214 831 210.5 831 c 128,-1,26
 207 831 207 831 207 839 c 2,27,-1
 207 1186 l 1,28,-1
 447 1186 l 2,29,30
 461 1186 461 1186 467.5 1191.5 c 128,-1,31
 474 1197 474 1197 474 1216 c 2,32,-1
 474 1231 l 2,33,34
 474 1260 474 1260 447 1260 c 2,35,-1
 207 1260 l 1,36,-1
 207 1383 l 2,37,38
 207 1438 207 1438 183 1438 c 2,39,-1
 122 1438 l 2,40,41
 99 1438 99 1438 99 1383 c 2,42,-1
 99 1260 l 1,43,-1
 41 1260 l 2,44,45
 14 1260 14 1260 14 1229 c 2,46,-1
 14 1215 l 2,47,48
 14 1197 14 1197 20.5 1191.5 c 128,-1,49
 27 1186 27 1186 41 1186 c 2,50,-1
 99 1186 l 1,51,-1
 99 51 l 2,0,1
EndSplineSet
EndChar

StartChar: dotlessi
Encoding: 305 305 235
Width: 306
GlyphClass: 2
Flags: MW
LayerCount: 2
Fore
SplineSet
107 53 m 2,0,1
 107 0 107 0 130 0 c 2,2,-1
 187 0 l 2,3,4
 210 0 210 0 210 53 c 2,5,-1
 210 953 l 2,6,7
 210 1006 210 1006 187 1006 c 2,8,-1
 130 1006 l 2,9,10
 107 1006 107 1006 107 953 c 2,11,-1
 107 53 l 2,0,1
EndSplineSet
EndChar

StartChar: kgreenlandic
Encoding: 312 312 242
Width: 654
GlyphClass: 2
Flags: MW
LayerCount: 2
Fore
SplineSet
382 544 m 1,0,-1
 378 555 l 1,1,2
 378 559 378 559 382 567 c 2,3,-1
 596 943 l 2,4,5
 610 967 610 967 610 986.5 c 128,-1,6
 610 1006 610 1006 600 1006 c 2,7,-1
 538 1006 l 2,8,9
 522 1006 522 1006 511 994 c 128,-1,10
 500 982 500 982 478 943 c 2,11,-1
 212 473 l 1,12,-1
 209 470 l 1,13,14
 205 470 205 470 205 481 c 2,15,-1
 205 941 l 2,16,17
 205 1006 205 1006 181 1006 c 2,18,-1
 123 1006 l 2,19,20
 100 1006 100 1006 100 941 c 2,21,-1
 100 65 l 2,22,23
 100 0 100 0 123 0 c 2,24,-1
 181 0 l 2,25,26
 205 0 205 0 205 65 c 2,27,-1
 205 302 l 2,28,29
 205 320 205 320 208 326 c 128,-1,30
 211 332 211 332 228 362 c 0,31,32
 297 486 297 486 303 486.5 c 129,-1,33
 309 487 309 487 311 479 c 1,34,-1
 498 61 l 1,35,36
 523 0 523 0 540 0 c 2,37,-1
 610 0 l 2,38,39
 622 0 622 0 622 22 c 128,-1,40
 622 44 622 44 612 64 c 2,41,-1
 382 544 l 1,0,-1
EndSplineSet
EndChar

StartChar: Lslash
Encoding: 321 321 251
Width: 574
GlyphClass: 2
Flags: MW
LayerCount: 2
Fore
SplineSet
500 0 m 2,0,1
 524 0 524 0 524 31 c 2,2,-1
 524 61 l 2,3,4
 524 81 524 81 518.5 85.5 c 128,-1,5
 513 90 513 90 500 90 c 2,6,-1
 236 90 l 2,7,8
 222 90 222 90 222 110 c 2,9,-1
 222 744 l 1,10,-1
 390 794 l 2,11,12
 392 794 392 794 396 795.5 c 128,-1,13
 400 797 400 797 401.5 797.5 c 128,-1,14
 403 798 403 798 406 800 c 128,-1,15
 409 802 409 802 410 804 c 0,16,17
 413 812 413 812 413 824 c 2,18,-1
 413 861 l 2,19,20
 413 880 413 880 406.5 887 c 128,-1,21
 400 894 400 894 390 891 c 2,22,-1
 222 841 l 1,23,-1
 222 1391 l 2,24,25
 222 1421 222 1421 217 1429.5 c 128,-1,26
 212 1438 212 1438 199 1438 c 2,27,-1
 131 1438 l 2,28,29
 118 1438 118 1438 113 1429.5 c 128,-1,30
 108 1421 108 1421 108 1391 c 2,31,-1
 108 808 l 1,32,-1
 27 784 l 1,33,34
 11 784 11 784 8 777 c 0,35,36
 3 765 3 765 3 753 c 2,37,-1
 3 717 l 2,38,39
 3 680 3 680 27 687 c 2,40,-1
 108 711 l 1,41,-1
 108 47 l 2,42,43
 108 17 108 17 113 8.5 c 128,-1,44
 118 0 118 0 131 0 c 2,45,-1
 500 0 l 2,0,1
EndSplineSet
EndChar

StartChar: lslash
Encoding: 322 322 252
Width: 306
GlyphClass: 2
Flags: MW
LayerCount: 2
Fore
SplineSet
189 0 m 2,0,1
 212 0 212 0 212 63 c 2,2,-1
 212 799 l 1,3,-1
 325 828 l 1,4,5
 341 828 341 828 343 832 c 0,6,7
 352 844 352 844 352 867 c 2,8,-1
 352 897 l 2,9,10
 352 926 352 926 345 933 c 128,-1,11
 338 940 338 940 325 936 c 2,12,-1
 212 907 l 1,13,-1
 212 1380 l 2,14,15
 212 1445 212 1445 189 1445 c 2,16,-1
 132 1445 l 2,17,18
 109 1445 109 1445 109 1380 c 2,19,-1
 109 880 l 1,20,-1
 -7 850 l 1,21,22
 -23 850 -23 850 -25 846 c 0,23,24
 -34 834 -34 834 -34 811 c 2,25,-1
 -34 781 l 2,26,27
 -34 752 -34 752 -27 745 c 128,-1,28
 -20 738 -20 738 -7 742 c 2,29,-1
 109 772 l 1,30,-1
 109 63 l 2,31,32
 109 0 109 0 132 0 c 2,33,-1
 189 0 l 2,0,1
EndSplineSet
EndChar

StartChar: OE
Encoding: 338 338 265
Width: 1013
GlyphClass: 2
Flags: MW
LayerCount: 2
Fore
SplineSet
540 89 m 2,0,1
 542 89 542 89 542 718.5 c 128,-1,2
 542 1348 542 1348 540 1348 c 2,3,-1
 443 1348 l 1,4,5
 358 1348 358 1348 306 1288 c 0,6,7
 204 1171 204 1171 204 723 c 0,8,9
 204 242 204 242 306 140 c 0,10,11
 356 90 356 90 443 90 c 2,12,-1
 540 89 l 2,0,1
924 90 m 2,13,14
 946 90 946 90 946 53 c 2,15,-1
 946 37 l 2,16,17
 946 0 946 0 924 0 c 2,18,-1
 445 0 l 2,19,20
 370 0 370 0 317 17.5 c 128,-1,21
 264 35 264 35 218.5 81.5 c 128,-1,22
 173 128 173 128 146 209 c 0,23,24
 89 380 89 380 89 686.5 c 128,-1,25
 89 993 89 993 129 1152 c 128,-1,26
 169 1311 169 1311 243.5 1374.5 c 128,-1,27
 318 1438 318 1438 440 1438 c 2,28,-1
 917 1438 l 2,29,30
 940 1438 940 1438 940 1401 c 2,31,-1
 940 1385 l 2,32,33
 940 1348 940 1348 917 1348 c 2,34,-1
 667 1348 l 2,35,36
 657 1348 657 1348 657 1320 c 2,37,-1
 657 800 l 2,38,39
 657 786 657 786 663 786 c 2,40,-1
 897 786 l 2,41,42
 921 786 921 786 921 751 c 2,43,-1
 921 734 l 2,44,45
 921 697 921 697 897 697 c 2,46,-1
 664 697 l 2,47,48
 663 697 663 697 660 688 c 128,-1,49
 657 679 657 679 657 676 c 2,50,-1
 657 109 l 2,51,52
 657 90 657 90 660 90 c 2,53,-1
 924 90 l 2,13,14
EndSplineSet
EndChar

StartChar: oe
Encoding: 339 339 266
Width: 1065
GlyphClass: 2
Flags: MW
LayerCount: 2
Fore
SplineSet
402.5 88.5 m 128,-1,1
 377 73 377 73 339.5 73 c 128,-1,2
 302 73 302 73 276 89 c 128,-1,3
 250 105 250 105 228 149 c 0,4,5
 184 237 184 237 184 504 c 0,6,7
 184 783 184 783 230 864 c 0,8,9
 254 906 254 906 278 920 c 128,-1,10
 302 934 302 934 333 934 c 128,-1,11
 364 934 364 934 381.5 928.5 c 128,-1,12
 399 923 399 923 418 908.5 c 128,-1,13
 437 894 437 894 450 863.5 c 0,14,15
 464 833 464 833 474 787 c 0,16,17
 496 693 496 693 495.5 531 c 128,-1,18
 495 369 495 369 484 280.5 c 128,-1,19
 473 192 473 192 450.5 148 c 128,-1,0
 428 104 428 104 402.5 88.5 c 128,-1,1
601 549 m 2,20,21
 599 549 599 549 599 608 c 1,22,23
 616 854 616 854 682 910 c 0,24,25
 710 934 710 934 750.5 934 c 128,-1,26
 791 934 791 934 818.5 909 c 128,-1,27
 846 884 846 884 862 833 c 0,28,29
 892 742 892 742 898 558 c 0,30,31
 898 549 898 549 897 549 c 2,32,-1
 601 549 l 2,20,21
343 -12 m 0,33,34
 501 -12 501 -12 550 202 c 1,35,36
 583 90 583 90 635 39 c 128,-1,37
 687 -12 687 -12 778.5 -12 c 128,-1,38
 870 -12 870 -12 922.5 64 c 128,-1,39
 975 140 975 140 975 252 c 0,40,41
 975 287 975 287 973 291 c 1,42,43
 973 304 973 304 961 304 c 2,44,-1
 912 304 l 2,45,46
 906 304 906 304 905 293 c 128,-1,47
 904 282 904 282 902 262.5 c 128,-1,48
 900 243 900 243 897.5 223.5 c 128,-1,49
 895 204 895 204 886 171.5 c 0,50,51
 877 138 877 138 864 120 c 0,52,53
 831 73 831 73 775 73 c 128,-1,54
 719 73 719 73 683.5 109 c 128,-1,55
 648 145 648 145 630 206 c 0,56,57
 596 323 596 323 597 466 c 0,58,59
 597 481 597 481 604 481 c 2,60,-1
 945 481 l 2,61,62
 960 482 960 482 970 510 c 0,63,64
 984 550 984 550 984 590 c 1,65,66
 976 809 976 809 921.5 914 c 128,-1,67
 867 1019 867 1019 753 1019 c 0,68,69
 680 1019 680 1019 631 974.5 c 128,-1,70
 582 930 582 930 547 830 c 1,71,72
 490 1019 490 1019 345 1019 c 0,73,74
 299 1019 299 1019 265 1010 c 128,-1,75
 231 1001 231 1001 194.5 969.5 c 128,-1,76
 158 938 158 938 134 884 c 0,77,78
 80 758 80 758 80 504 c 0,79,80
 80 53 80 53 266 -2 c 0,81,82
 300 -12 300 -12 343 -12 c 0,33,34
EndSplineSet
EndChar

StartChar: florin
Encoding: 402 402 305
Width: 447
GlyphClass: 2
Flags: MW
LayerCount: 2
Fore
SplineSet
-30 -17 m 2,0,1
 -45 -17 -45 -17 -46 -57 c 0,2,3
 -46 -63 -46 -63 -46 -67 c 0,4,5
 -46 -97 -46 -97 -41 -97 c 1,6,7
 -40 -106 -40 -106 -23 -106 c 2,8,-1
 -13 -106 l 2,9,10
 64 -106 64 -106 110 -72 c 0,11,12
 197 -7 197 -7 226 291 c 2,13,-1
 270 751 l 1,14,15
 271 776 271 776 281 776 c 2,16,-1
 383 776 l 2,17,18
 406 776 406 776 408 804 c 1,19,-1
 412 844 l 2,20,21
 415 870 415 870 394 870 c 2,22,-1
 284 870 l 2,23,24
 281 870 281 870 281 876 c 2,25,-1
 292 979 l 2,26,27
 308 1132 308 1132 333.5 1180.5 c 128,-1,28
 359 1229 359 1229 426 1229 c 2,29,-1
 447 1229 l 2,30,31
 465 1229 465 1229 465 1270.5 c 128,-1,32
 465 1312 465 1312 453 1312 c 1,33,34
 453 1319 453 1319 397 1319 c 128,-1,35
 341 1319 341 1319 297.5 1286.5 c 128,-1,36
 254 1254 254 1254 227 1170 c 128,-1,37
 200 1086 200 1086 189 978 c 128,-1,38
 178 870 178 870 170 870 c 2,39,-1
 90 870 l 2,40,41
 65 870 65 870 62 841 c 1,42,-1
 59 804 l 2,43,44
 57 787 57 787 61.5 781.5 c 128,-1,45
 66 776 66 776 79 776 c 2,46,-1
 159 776 l 2,47,48
 167 776 167 776 165 751 c 2,49,-1
 115 234 l 2,50,51
 100 79 100 79 74.5 31 c 128,-1,52
 49 -17 49 -17 -19 -17 c 2,53,-1
 -30 -17 l 2,0,1
EndSplineSet
EndChar

StartChar: uni0237
Encoding: 567 567 348
Width: 343
GlyphClass: 2
Flags: MW
LayerCount: 2
Fore
SplineSet
245 953 m 2,0,1
 245 1006 245 1006 221 1006 c 2,2,-1
 165 1006 l 2,3,4
 142 1006 142 1006 142 953 c 2,5,-1
 142 11 l 2,6,7
 142 -117 142 -117 129 -157.5 c 128,-1,8
 116 -198 116 -198 76 -198 c 2,9,-1
 37 -198 l 2,10,11
 16 -198 16 -198 16 -229 c 2,12,-1
 16 -269 l 2,13,14
 16 -304 16 -304 37 -304 c 2,15,-1
 90 -304 l 2,16,17
 134 -304 134 -304 159.5 -295 c 0,18,19
 184 -286 184 -286 206 -255 c 0,20,21
 244 -199 244 -199 245 3 c 2,22,-1
 245 953 l 2,0,1
EndSplineSet
EndChar

StartChar: circumflex
Encoding: 710 710 349
Width: 298
GlyphClass: 2
Flags: MW
LayerCount: 2
Fore
SplineSet
39 1240.5 m 128,-1,1
 51 1235 51 1235 63.5 1235 c 128,-1,2
 76 1235 76 1235 86 1253 c 1,3,-1
 139 1363 l 1,4,5
 146 1375 146 1375 149.5 1375 c 128,-1,6
 153 1375 153 1375 158 1363 c 2,7,-1
 212 1253 l 1,8,9
 222 1235 222 1235 234.5 1235 c 128,-1,10
 247 1235 247 1235 259 1240.5 c 128,-1,11
 271 1246 271 1246 271 1254 c 1,12,13
 275 1254 275 1254 275 1260.5 c 128,-1,14
 275 1267 275 1267 273 1275 c 1,15,-1
 212 1433 l 2,16,17
 185 1502 185 1502 158 1502 c 2,18,-1
 139 1502 l 2,19,20
 124 1502 124 1502 112.5 1486 c 128,-1,21
 101 1470 101 1470 86 1433 c 2,22,-1
 25 1275 l 1,23,24
 23 1267 23 1267 23 1261 c 128,-1,25
 23 1255 23 1255 27 1254 c 1,26,0
 27 1246 27 1246 39 1240.5 c 128,-1,1
EndSplineSet
EndChar

StartChar: caron
Encoding: 711 711 350
Width: 298
GlyphClass: 2
Flags: MW
LayerCount: 2
Fore
SplineSet
86 1484 m 2,0,1
 77 1502 77 1502 52 1502 c 128,-1,2
 27 1502 27 1502 27 1484 c 1,3,4
 23 1483 23 1483 23 1477 c 128,-1,5
 23 1471 23 1471 25 1463 c 1,6,-1
 86 1305 l 2,7,8
 101 1267 101 1267 112.5 1251 c 128,-1,9
 124 1235 124 1235 139 1235 c 2,10,-1
 158 1235 l 2,11,12
 184 1235 184 1235 212 1305 c 2,13,-1
 273 1463 l 2,14,15
 275 1469 275 1469 275 1476 c 128,-1,16
 275 1483 275 1483 270 1484 c 1,17,18
 270 1502 270 1502 245.5 1502 c 128,-1,19
 221 1502 221 1502 212 1484 c 2,20,-1
 158 1375 l 2,21,22
 153 1363 153 1363 149.5 1363 c 128,-1,23
 146 1363 146 1363 139 1375 c 1,24,-1
 86 1484 l 2,0,1
EndSplineSet
EndChar

StartChar: breve
Encoding: 728 728 351
Width: 1277
GlyphClass: 2
Flags: MW
LayerCount: 2
Fore
SplineSet
478.5 1338 m 128,-1,1
 530 1293 530 1293 601.5 1293 c 128,-1,2
 673 1293 673 1293 725.5 1338.5 c 128,-1,3
 778 1384 778 1384 778 1467 c 1,4,-1
 711 1467 l 1,5,6
 711 1421 711 1421 679 1396.5 c 128,-1,7
 647 1372 647 1372 602.5 1372 c 128,-1,8
 558 1372 558 1372 526.5 1396.5 c 128,-1,9
 495 1421 495 1421 495 1467 c 1,10,-1
 427 1467 l 1,11,0
 427 1383 427 1383 478.5 1338 c 128,-1,1
EndSplineSet
EndChar

StartChar: dotaccent
Encoding: 729 729 352
Width: 352
GlyphClass: 2
Flags: MW
LayerCount: 2
Fore
SplineSet
-3 98 m 2,0,-1
 97 98 l 2,1,2
 123 98 123 98 123 153 c 2,3,-1
 123 230 l 2,4,5
 123 285 123 285 97 285 c 2,6,-1
 -3 285 l 2,7,8
 -29 285 -29 285 -29 230 c 2,9,-1
 -29 153 l 2,10,11
 -29 98 -29 98 -3 98 c 2,0,-1
EndSplineSet
EndChar

StartChar: ring
Encoding: 730 730 353
Width: 803
GlyphClass: 2
Flags: MW
LayerCount: 2
Fore
SplineSet
352 498 m 0,0,1
 376 490 376 490 397 490.5 c 128,-1,2
 418 491 418 491 436.5 495 c 128,-1,3
 455 499 455 499 477 510.5 c 0,4,5
 500 522 500 522 516 540 c 0,6,7
 554 581 554 581 554 641 c 128,-1,8
 554 701 554 701 538.5 735.5 c 128,-1,9
 523 770 523 770 498 786 c 0,10,11
 452 816 452 816 413 816.5 c 128,-1,12
 374 817 374 817 349.5 810 c 0,13,14
 325 802 325 802 300 786 c 0,15,16
 244 749 244 749 244 653 c 0,17,18
 244 531 244 531 352 498 c 0,0,1
400 539 m 128,-1,20
 363 539 363 539 333 566 c 128,-1,21
 303 593 303 593 303 655.5 c 128,-1,22
 303 718 303 718 332.5 743 c 128,-1,23
 362 768 362 768 399 768 c 128,-1,24
 436 768 436 768 465.5 743 c 128,-1,25
 495 718 495 718 495 655 c 128,-1,26
 495 592 495 592 466 565.5 c 128,-1,19
 437 539 437 539 400 539 c 128,-1,20
EndSplineSet
EndChar

StartChar: ogonek
Encoding: 731 731 354
Width: 716
GlyphClass: 2
Flags: MW
LayerCount: 2
Fore
SplineSet
445 -328 m 1,0,-1
 479 -329 l 2,1,2
 495 -329 495 -329 495 -312 c 2,3,-1
 495 -265 l 2,4,5
 495 -255 495 -255 480 -255 c 2,6,-1
 475 -255 l 2,7,8
 405 -255 405 -255 371 -222 c 128,-1,9
 337 -189 337 -189 337 -142 c 0,10,11
 337 -44 337 -44 430 -6 c 1,12,-1
 430 22 l 1,13,14
 340 4 340 4 288.5 -48 c 128,-1,15
 237 -100 237 -100 237 -166 c 128,-1,16
 237 -232 237 -232 290.5 -278 c 128,-1,17
 344 -324 344 -324 445 -328 c 1,0,-1
EndSplineSet
EndChar

StartChar: tilde
Encoding: 732 732 355
Width: 476
GlyphClass: 2
Flags: MW
LayerCount: 2
Fore
SplineSet
60 972 m 0,0,1
 32 972 32 972 32 938 c 0,2,3
 32 926 32 926 39.5 912 c 128,-1,4
 47 898 47 898 54 886.5 c 0,5,6
 60 876 60 876 74 860 c 0,7,8
 101 828 101 828 146.5 828 c 128,-1,9
 192 828 192 828 255.5 864.5 c 128,-1,10
 319 901 319 901 331 901 c 128,-1,11
 343 901 343 901 348 898.5 c 128,-1,12
 353 896 353 896 357 893.5 c 128,-1,13
 361 891 361 891 366 884 c 128,-1,14
 371 877 371 877 373.5 873 c 128,-1,15
 376 869 376 869 382.5 859.5 c 128,-1,16
 389 850 389 850 397 837.5 c 128,-1,17
 405 825 405 825 419 825 c 0,18,19
 444 825 444 825 444 854 c 0,20,21
 444 867 444 867 428 895 c 0,22,23
 385 970 385 970 329 970 c 0,24,25
 293 970 293 970 229.5 933.5 c 128,-1,26
 166 897 166 897 143 897 c 0,27,28
 109 897 109 897 89 949 c 1,29,30
 78 972 78 972 60 972 c 0,0,1
EndSplineSet
EndChar

StartChar: hungarumlaut
Encoding: 733 733 356
Width: 595
GlyphClass: 2
Flags: MW
LayerCount: 2
Fore
SplineSet
362 1234 m 2,0,1
 361 1220 361 1220 361 1193.5 c 128,-1,2
 361 1167 361 1167 375 1167 c 2,3,-1
 389 1167 l 2,4,5
 406 1167 406 1167 406 1202 c 1,6,-1
 478 1538 l 1,7,8
 482 1562 482 1562 482 1582.5 c 128,-1,9
 482 1603 482 1603 472 1603 c 2,10,-1
 409 1603 l 2,11,12
 386 1603 386 1603 383 1548 c 2,13,-1
 362 1234 l 2,0,1
229 1234 m 2,14,15
 227 1206 227 1206 227 1186.5 c 128,-1,16
 227 1167 227 1167 241 1167 c 2,17,-1
 254 1167 l 2,18,19
 267 1167 267 1167 270 1185 c 128,-1,20
 273 1203 273 1203 274 1206 c 2,21,-1
 343 1538 l 2,22,23
 347 1554 347 1554 347 1578.5 c 128,-1,24
 347 1603 347 1603 338 1603 c 2,25,-1
 274 1603 l 2,26,27
 252 1603 252 1603 249 1548 c 2,28,-1
 229 1234 l 2,14,15
EndSplineSet
EndChar

StartChar: endash
Encoding: 8211 8211 379
Width: 1024
GlyphClass: 2
Flags: MW
LayerCount: 2
Fore
SplineSet
115 633 m 2,0,-1
 906 633 l 2,1,2
 939 633 939 633 939 672 c 2,3,-1
 939 694 l 2,4,5
 939 732 939 732 906 732 c 2,6,-1
 115 732 l 2,7,8
 82 732 82 732 82 693 c 2,9,-1
 82 670 l 2,10,11
 82 633 82 633 115 633 c 2,0,-1
EndSplineSet
EndChar

StartChar: emdash
Encoding: 8212 8212 380
Width: 2048
GlyphClass: 2
Flags: MW
LayerCount: 2
Fore
SplineSet
115 633 m 2,0,-1
 1930 633 l 2,1,2
 1962 633 1962 633 1962 672 c 2,3,-1
 1962 694 l 2,4,5
 1962 732 1962 732 1930 732 c 2,6,-1
 115 732 l 2,7,8
 82 732 82 732 82 693 c 2,9,-1
 82 670 l 2,10,11
 82 633 82 633 115 633 c 2,0,-1
EndSplineSet
EndChar

StartChar: quoteleft
Encoding: 8216 8216 381
Width: 310
GlyphClass: 2
Flags: MW
LayerCount: 2
Fore
SplineSet
88 968 m 2,0,1
 88 895 88 895 115 895 c 2,2,-1
 198 895 l 2,3,4
 219 895 219 895 219 957 c 2,5,-1
 219 1157 l 2,6,7
 219 1209 219 1209 198 1209 c 2,8,-1
 165 1209 l 2,9,10
 159 1209 159 1209 159 1237 c 128,-1,11
 159 1265 159 1265 169.5 1311 c 128,-1,12
 180 1357 180 1357 190 1374 c 128,-1,13
 200 1391 200 1391 205.5 1398.5 c 128,-1,14
 211 1406 211 1406 212.5 1408.5 c 0,15,16
 214 1410 214 1410 216 1418 c 0,17,18
 219 1429 219 1429 219 1461 c 2,19,-1
 219 1473 l 2,20,21
 219 1519 219 1519 200 1519 c 0,22,23
 197 1519 197 1519 195 1518 c 0,24,25
 154 1498 154 1498 121 1395 c 128,-1,26
 88 1292 88 1292 88 1128 c 2,27,-1
 88 968 l 2,0,1
EndSplineSet
EndChar

StartChar: quoteright
Encoding: 8217 8217 382
Width: 304
GlyphClass: 2
Flags: MW
LayerCount: 2
Fore
SplineSet
114 897 m 0,0,1
 155 917 155 917 188.5 1020 c 128,-1,2
 222 1123 222 1123 222 1287 c 2,3,-1
 222 1447 l 2,4,5
 222 1479 222 1479 214 1499.5 c 128,-1,6
 206 1520 206 1520 195 1520 c 2,7,-1
 112 1520 l 2,8,9
 91 1520 91 1520 91 1457 c 2,10,-1
 91 1258 l 2,11,12
 91 1206 91 1206 112 1206 c 2,13,-1
 145 1206 l 2,14,15
 151 1206 151 1206 151 1178 c 128,-1,16
 151 1150 151 1150 140.5 1103.5 c 128,-1,17
 130 1057 130 1057 120 1040.5 c 128,-1,18
 110 1024 110 1024 104.5 1016.5 c 128,-1,19
 99 1009 99 1009 97.5 1006.5 c 128,-1,20
 96 1004 96 1004 94 996 c 0,21,22
 91 985 91 985 91 954 c 2,23,-1
 91 942 l 2,24,25
 91 896 91 896 109 896 c 0,26,27
 112 896 112 896 114 897 c 0,0,1
EndSplineSet
EndChar

StartChar: quotesinglbase
Encoding: 8218 8218 383
Width: 374
GlyphClass: 2
Flags: MW
LayerCount: 2
Fore
SplineSet
241 276 m 2,0,1
 241 341 241 341 218 341 c 2,2,-1
 156 341 l 2,3,4
 146 341 146 341 139 323 c 128,-1,5
 132 305 132 305 132 282 c 2,6,-1
 132 272 l 1,7,-1
 160 -156 l 2,8,9
 163 -217 163 -217 178 -217 c 2,10,-1
 197 -217 l 2,11,12
 211 -217 211 -217 212.5 -196 c 128,-1,13
 214 -175 214 -175 215 -156 c 2,14,-1
 241 271 l 1,15,-1
 241 276 l 2,0,1
EndSplineSet
EndChar

StartChar: quotedblleft
Encoding: 8220 8220 384
Width: 530
GlyphClass: 2
Flags: MW
LayerCount: 2
Fore
SplineSet
313 968 m 2,0,1
 313 895 313 895 340 895 c 2,2,-1
 423 895 l 2,3,4
 444 895 444 895 444 957 c 2,5,-1
 444 1157 l 2,6,7
 444 1209 444 1209 423 1209 c 2,8,-1
 390 1209 l 2,9,10
 384 1209 384 1209 384 1237 c 128,-1,11
 384 1265 384 1265 394.5 1311 c 128,-1,12
 405 1357 405 1357 415 1374 c 128,-1,13
 425 1391 425 1391 430.5 1398.5 c 128,-1,14
 436 1406 436 1406 437.5 1408.5 c 0,15,16
 439 1410 439 1410 441 1418 c 0,17,18
 444 1429 444 1429 444 1461 c 2,19,-1
 444 1473 l 2,20,21
 444 1519 444 1519 425 1519 c 0,22,23
 422 1519 422 1519 420 1518 c 0,24,25
 379 1498 379 1498 346 1395 c 128,-1,26
 313 1292 313 1292 313 1128 c 2,27,-1
 313 968 l 2,0,1
88 968 m 2,28,29
 88 895 88 895 115 895 c 2,30,-1
 198 895 l 2,31,32
 219 895 219 895 219 957 c 2,33,-1
 219 1157 l 2,34,35
 219 1209 219 1209 198 1209 c 2,36,-1
 165 1209 l 2,37,38
 159 1209 159 1209 159 1237 c 128,-1,39
 159 1265 159 1265 169.5 1311 c 128,-1,40
 180 1357 180 1357 190 1374 c 128,-1,41
 200 1391 200 1391 205.5 1398.5 c 128,-1,42
 211 1406 211 1406 212.5 1408.5 c 0,43,44
 214 1410 214 1410 216 1418 c 0,45,46
 219 1429 219 1429 219 1461 c 2,47,-1
 219 1473 l 2,48,49
 219 1519 219 1519 200 1519 c 0,50,51
 197 1519 197 1519 195 1518 c 0,52,53
 154 1498 154 1498 121 1395 c 128,-1,54
 88 1292 88 1292 88 1128 c 2,55,-1
 88 968 l 2,28,29
EndSplineSet
EndChar

StartChar: quotedblright
Encoding: 8221 8221 385
Width: 531
GlyphClass: 2
Flags: MW
LayerCount: 2
Fore
SplineSet
440 1447 m 2,0,1
 440 1520 440 1520 414 1520 c 2,2,-1
 330 1520 l 2,3,4
 309 1520 309 1520 309 1457 c 2,5,-1
 309 1258 l 2,6,7
 309 1206 309 1206 330 1206 c 2,8,-1
 363 1206 l 2,9,10
 369 1206 369 1206 369 1178 c 128,-1,11
 369 1150 369 1150 358.5 1103.5 c 128,-1,12
 348 1057 348 1057 338 1041 c 128,-1,13
 328 1025 328 1025 321 1015 c 128,-1,14
 314 1005 314 1005 313.5 1001.5 c 128,-1,15
 313 998 313 998 311 986 c 128,-1,16
 309 974 309 974 309 954 c 2,17,-1
 309 942 l 2,18,19
 309 896 309 896 327 896 c 0,20,21
 330 896 330 896 332 897 c 0,22,23
 373 917 373 917 406.5 1020 c 128,-1,24
 440 1123 440 1123 440 1287 c 2,25,-1
 440 1447 l 2,0,1
114 897 m 0,26,27
 155 917 155 917 188.5 1020 c 128,-1,28
 222 1123 222 1123 222 1287 c 2,29,-1
 222 1447 l 2,30,31
 222 1479 222 1479 214 1499.5 c 128,-1,32
 206 1520 206 1520 195 1520 c 2,33,-1
 112 1520 l 2,34,35
 91 1520 91 1520 91 1457 c 2,36,-1
 91 1258 l 2,37,38
 91 1206 91 1206 112 1206 c 2,39,-1
 145 1206 l 2,40,41
 151 1206 151 1206 151 1178 c 128,-1,42
 151 1150 151 1150 140.5 1103.5 c 128,-1,43
 130 1057 130 1057 120 1040.5 c 128,-1,44
 110 1024 110 1024 104.5 1016.5 c 128,-1,45
 99 1009 99 1009 97.5 1006.5 c 128,-1,46
 96 1004 96 1004 94 996 c 0,47,48
 91 985 91 985 91 954 c 2,49,-1
 91 942 l 2,50,51
 91 896 91 896 109 896 c 0,52,53
 112 896 112 896 114 897 c 0,26,27
EndSplineSet
EndChar

StartChar: quotedblbase
Encoding: 8222 8222 386
Width: 560
GlyphClass: 2
Flags: MW
LayerCount: 2
Fore
SplineSet
241 276 m 2,0,1
 241 341 241 341 218 341 c 2,2,-1
 156 341 l 2,3,4
 146 341 146 341 139 323 c 128,-1,5
 132 305 132 305 132 282 c 2,6,-1
 132 272 l 1,7,-1
 160 -156 l 2,8,9
 163 -217 163 -217 178 -217 c 2,10,-1
 197 -217 l 2,11,12
 211 -217 211 -217 212.5 -196 c 128,-1,13
 214 -175 214 -175 215 -156 c 2,14,-1
 241 271 l 1,15,-1
 241 276 l 2,0,1
428 276 m 2,16,17
 428 341 428 341 405 341 c 2,18,-1
 343 341 l 2,19,20
 333 341 333 341 326 323 c 128,-1,21
 319 305 319 305 319 282 c 2,22,-1
 319 272 l 1,23,-1
 347 -156 l 2,24,25
 350 -217 350 -217 365 -217 c 2,26,-1
 384 -217 l 2,27,28
 398 -217 398 -217 399.5 -196 c 128,-1,29
 401 -175 401 -175 402 -156 c 2,30,-1
 428 271 l 1,31,-1
 428 276 l 2,16,17
EndSplineSet
EndChar

StartChar: dagger
Encoding: 8224 8224 387
Width: 672
GlyphClass: 2
Flags: MW
LayerCount: 2
Fore
SplineSet
316 0 m 2,0,-1
 372 0 l 2,1,2
 396 0 396 0 396 63 c 2,3,-1
 396 960 l 1,4,-1
 630 960 l 2,5,6
 686 960 686 960 686 983 c 2,7,-1
 686 1039 l 2,8,9
 686 1064 686 1064 630 1064 c 2,10,-1
 396 1064 l 1,11,-1
 396 1380 l 2,12,13
 396 1445 396 1445 372 1445 c 2,14,-1
 316 1445 l 2,15,16
 293 1445 293 1445 293 1380 c 2,17,-1
 293 1064 l 1,18,-1
 42 1064 l 2,19,20
 -14 1064 -14 1064 -14 1039 c 2,21,-1
 -14 983 l 2,22,23
 -14 960 -14 960 42 960 c 2,24,-1
 293 960 l 1,25,-1
 293 63 l 2,26,27
 293 0 293 0 316 0 c 2,0,-1
EndSplineSet
EndChar

StartChar: daggerdbl
Encoding: 8225 8225 388
Width: 672
GlyphClass: 2
Flags: MW
LayerCount: 2
Fore
SplineSet
316 0 m 2,0,-1
 372 0 l 2,1,2
 396 0 396 0 396 63 c 2,3,-1
 396 414 l 1,4,-1
 630 414 l 2,5,6
 686 414 686 414 686 437 c 2,7,-1
 686 493 l 2,8,9
 686 518 686 518 630 518 c 2,10,-1
 396 518 l 1,11,-1
 396 971 l 1,12,-1
 630 971 l 2,13,14
 686 971 686 971 686 994 c 2,15,-1
 686 1050 l 2,16,17
 686 1075 686 1075 630 1075 c 2,18,-1
 396 1075 l 1,19,-1
 396 1380 l 2,20,21
 396 1445 396 1445 372 1445 c 2,22,-1
 316 1445 l 2,23,24
 293 1445 293 1445 293 1380 c 2,25,-1
 293 1075 l 1,26,-1
 42 1075 l 2,27,28
 -14 1075 -14 1075 -14 1050 c 2,29,-1
 -14 994 l 2,30,31
 -14 971 -14 971 42 971 c 2,32,-1
 293 971 l 1,33,-1
 293 518 l 1,34,-1
 42 518 l 2,35,36
 -14 518 -14 518 -14 493 c 2,37,-1
 -14 437 l 2,38,39
 -14 414 -14 414 42 414 c 2,40,-1
 293 414 l 1,41,-1
 293 63 l 2,42,43
 293 0 293 0 316 0 c 2,0,-1
EndSplineSet
EndChar

StartChar: bullet
Encoding: 8226 8226 389
Width: 1022
GlyphClass: 2
Flags: MW
LayerCount: 2
Fore
SplineSet
511 704 m 128,-1,1
 597 704 597 704 662.5 733.5 c 128,-1,2
 728 763 728 763 765 812 c 0,3,4
 839 910 839 910 839 1033 c 0,5,6
 839 1162 839 1162 765 1260 c 0,7,8
 684 1367 684 1367 511 1367 c 0,9,10
 270 1367 270 1367 200 1154 c 0,11,12
 182 1097 182 1097 181.5 1035 c 128,-1,13
 181 973 181 973 199.5 917 c 128,-1,14
 218 861 218 861 255.5 812 c 128,-1,15
 293 763 293 763 359 733.5 c 128,-1,0
 425 704 425 704 511 704 c 128,-1,1
EndSplineSet
EndChar

StartChar: perthousand
Encoding: 8240 8240 391
Width: 1431
GlyphClass: 2
Flags: MW
LayerCount: 2
Fore
SplineSet
1086.5 99 m 128,-1,1
 1128 -1 1128 -1 1206.5 -1 c 128,-1,2
 1285 -1 1285 -1 1326 99 c 128,-1,3
 1367 199 1367 199 1367 387 c 128,-1,4
 1367 575 1367 575 1326.5 676.5 c 128,-1,5
 1286 778 1286 778 1206.5 778 c 128,-1,6
 1127 778 1127 778 1086 676.5 c 128,-1,7
 1045 575 1045 575 1045 387 c 128,-1,0
 1045 199 1045 199 1086.5 99 c 128,-1,1
1207 694 m 0,8,9
 1295 694 1295 694 1295 388.5 c 128,-1,10
 1295 83 1295 83 1207 83 c 0,11,12
 1165 83 1165 83 1141 165 c 128,-1,13
 1117 247 1117 247 1117 388.5 c 128,-1,14
 1117 530 1117 530 1140 612 c 128,-1,15
 1163 694 1163 694 1207 694 c 0,8,9
675.5 99 m 128,-1,17
 717 -1 717 -1 795.5 -1 c 128,-1,18
 874 -1 874 -1 915 99 c 128,-1,19
 956 199 956 199 956 387 c 128,-1,20
 956 575 956 575 915.5 676.5 c 128,-1,21
 875 778 875 778 795.5 778 c 128,-1,22
 716 778 716 778 675 676.5 c 128,-1,23
 634 575 634 575 634 387 c 128,-1,16
 634 199 634 199 675.5 99 c 128,-1,17
796 694 m 0,24,25
 884 694 884 694 884 388.5 c 128,-1,26
 884 83 884 83 796 83 c 0,27,28
 754 83 754 83 730 165 c 128,-1,29
 706 247 706 247 706 388.5 c 128,-1,30
 706 530 706 530 729 612 c 128,-1,31
 752 694 752 694 796 694 c 0,24,25
83.5 763.5 m 128,-1,33
 125 664 125 664 203.5 664 c 128,-1,34
 282 664 282 664 323 763.5 c 128,-1,35
 364 863 364 863 364 1051 c 128,-1,36
 364 1239 364 1239 323.5 1340.5 c 128,-1,37
 283 1442 283 1442 203.5 1442 c 128,-1,38
 124 1442 124 1442 83 1340.5 c 128,-1,39
 42 1239 42 1239 42 1051 c 128,-1,32
 42 863 42 863 83.5 763.5 c 128,-1,33
114 1052 m 0,40,41
 114 1358 114 1358 203 1358 c 128,-1,42
 292 1358 292 1358 292 1052 c 0,43,44
 292 911 292 911 269.5 829.5 c 128,-1,45
 247 748 247 748 204 748 c 128,-1,46
 161 748 161 748 137.5 830 c 128,-1,47
 114 912 114 912 114 1052 c 0,40,41
347 -33 m 0,48,49
 347 -82 347 -82 364 -82 c 2,50,-1
 385 -82 l 2,51,52
 411 -82 411 -82 421 -12 c 2,53,-1
 644 1466 l 2,54,55
 646 1480 646 1480 646 1488 c 0,56,57
 646 1536 646 1536 629 1536 c 2,58,-1
 609 1536 l 2,59,60
 581 1536 581 1536 572 1466 c 1,61,-1
 349 -12 l 2,62,63
 347 -26 347 -26 347 -33 c 0,48,49
EndSplineSet
EndChar

StartChar: guilsinglleft
Encoding: 8249 8249 392
Width: 457
GlyphClass: 2
Flags: MW
LayerCount: 2
Fore
SplineSet
376 235 m 2,0,-1
 377 235 l 2,1,2
 383 235 383 235 384 258 c 1,3,4
 387 258 387 258 387 304.5 c 128,-1,5
 387 351 387 351 368 370 c 1,6,7
 368 381 368 381 251.5 497.5 c 128,-1,8
 135 614 135 614 134 620.5 c 128,-1,9
 133 627 133 627 134.5 630 c 128,-1,10
 136 633 136 633 231.5 735.5 c 128,-1,11
 327 838 327 838 329 840 c 0,12,13
 372 883 372 883 377 897.5 c 128,-1,14
 382 912 382 912 382 922 c 1,15,16
 387 929 387 929 387 972 c 128,-1,17
 387 1015 387 1015 378 1015 c 1,18,19
 376 1020 376 1020 371 1020 c 128,-1,20
 366 1020 366 1020 364 1018 c 0,21,22
 144 785 144 785 143 785 c 0,23,24
 67 705 67 705 67 682 c 1,25,26
 62 678 62 678 62 617 c 128,-1,27
 62 556 62 556 82 537 c 1,28,29
 82 527 82 527 228 381 c 128,-1,30
 374 235 374 235 376 235 c 2,0,-1
EndSplineSet
EndChar

StartChar: guilsinglright
Encoding: 8250 8250 393
Width: 457
GlyphClass: 2
Flags: MW
LayerCount: 2
Fore
SplineSet
62 268 m 2,0,1
 62 233 62 233 67 233 c 128,-1,2
 72 233 72 233 85 243 c 1,3,-1
 362 512 l 2,4,5
 387 535 387 535 387 581 c 2,6,-1
 387 657 l 2,7,8
 387 701 387 701 361 727 c 2,9,-1
 86 1016 l 2,10,11
 79 1024 79 1024 70.5 1024 c 128,-1,12
 62 1024 62 1024 62 984 c 2,13,-1
 62 940 l 2,14,15
 62 909 62 909 66.5 896.5 c 128,-1,16
 71 884 71 884 85 867 c 1,17,-1
 311 631 l 2,18,19
 315 627 315 627 315 617.5 c 128,-1,20
 315 608 315 608 311 604 c 2,21,-1
 86 388 l 2,22,23
 71 373 71 373 66.5 361.5 c 128,-1,24
 62 350 62 350 62 319 c 2,25,-1
 62 268 l 2,0,1
EndSplineSet
EndChar

StartChar: fraction
Encoding: 8260 8260 394
Width: 522
GlyphClass: 2
Flags: MW
LayerCount: 2
Fore
SplineSet
79 -205 m 2,0,-1
 138 -205 l 2,1,2
 150 -205 150 -205 155 -172 c 2,3,-1
 455 1614 l 2,4,5
 456 1618 456 1618 456 1632 c 0,6,7
 456 1646 456 1646 448 1647 c 2,8,-1
 391 1647 l 2,9,10
 378 1647 378 1647 373 1614 c 2,11,-1
 72 -172 l 2,12,13
 71 -175 71 -175 71 -190 c 0,14,15
 71 -205 71 -205 79 -205 c 2,0,-1
EndSplineSet
EndChar

StartChar: Euro
Encoding: 8364 8364 395
Width: 677
GlyphClass: 2
Flags: MW
LayerCount: 2
Fore
SplineSet
90 808 m 1,0,-1
 89 721 l 2,1,2
 89 667 89 667 90 641 c 1,3,-1
 53 641 l 2,4,5
 38 641 38 641 35 630 c 128,-1,6
 32 619 32 619 32 598 c 2,7,-1
 32 582 l 2,8,9
 32 552 32 552 36 545 c 128,-1,10
 40 538 40 538 53 538 c 2,11,-1
 94 538 l 1,12,13
 124 73 124 73 318 5 c 0,14,15
 372 -14 372 -14 451 -14 c 2,16,-1
 456 -14 l 2,17,18
 596 -14 596 -14 596 19 c 2,19,-1
 596 87 l 2,20,21
 596 99 596 99 588 99 c 1,22,23
 528 79 528 79 472.5 79 c 128,-1,24
 417 79 417 79 386 87.5 c 128,-1,25
 355 96 355 96 322.5 124 c 128,-1,26
 290 152 290 152 269 201 c 0,27,28
 220 314 220 314 209 538 c 1,29,-1
 384 538 l 2,30,31
 397 538 397 538 401.5 545 c 128,-1,32
 406 552 406 552 406 582 c 2,33,-1
 406 598 l 2,34,35
 406 628 406 628 401.5 634.5 c 128,-1,36
 397 641 397 641 384 641 c 2,37,-1
 205 641 l 1,38,39
 204 667 204 667 204 723.5 c 128,-1,40
 204 780 204 780 205 808 c 1,41,-1
 384 808 l 2,42,43
 397 808 397 808 401.5 815 c 128,-1,44
 406 822 406 822 406 852 c 2,45,-1
 406 867 l 2,46,47
 406 897 406 897 401.5 904 c 128,-1,48
 397 911 397 911 384 911 c 2,49,-1
 210 911 l 1,50,51
 236 1304 236 1304 404 1350 c 0,52,53
 436 1358 436 1358 481 1358.5 c 128,-1,54
 526 1359 526 1359 607 1336 c 1,55,56
 614 1336 614 1336 614 1347 c 2,57,-1
 614 1412 l 1,58,59
 609 1433 609 1433 561 1443 c 128,-1,60
 513 1453 513 1453 467.5 1453 c 128,-1,61
 422 1453 422 1453 390.5 1448.5 c 128,-1,62
 359 1444 359 1444 323 1430 c 128,-1,63
 287 1416 287 1416 258.5 1392.5 c 128,-1,64
 230 1369 230 1369 202 1328 c 128,-1,65
 174 1287 174 1287 154 1231 c 0,66,67
 109 1108 109 1108 95 911 c 1,68,-1
 53 911 l 2,69,70
 40 911 40 911 36 904 c 128,-1,71
 32 897 32 897 32 867 c 2,72,-1
 32 852 l 2,73,74
 32 822 32 822 36 815 c 128,-1,75
 40 808 40 808 53 808 c 2,76,-1
 90 808 l 1,0,-1
EndSplineSet
EndChar

StartChar: trademark
Encoding: 8482 8482 396
Width: 1276
GlyphClass: 2
Flags: MW
LayerCount: 2
Fore
SplineSet
254 464 m 2,0,1
 254 431 254 431 270 431 c 2,2,-1
 316 431 l 2,3,4
 332 431 332 431 332 464 c 2,5,-1
 332 1353 l 2,6,7
 332 1370 332 1370 339 1370 c 2,8,-1
 464 1370 l 2,9,10
 477 1370 477 1370 478.5 1377 c 128,-1,11
 480 1384 480 1384 480 1392 c 2,12,-1
 480 1412 l 2,13,14
 480 1438 480 1438 464 1438 c 2,15,-1
 120 1438 l 2,16,17
 103 1438 103 1438 103 1412 c 2,18,-1
 103 1392 l 2,19,20
 103 1374 103 1374 108.5 1372 c 128,-1,21
 114 1370 114 1370 120 1370 c 2,22,-1
 247 1370 l 2,23,24
 254 1370 254 1370 254 1353 c 2,25,-1
 254 464 l 2,0,1
577 431 m 2,26,-1
 623 431 l 2,27,28
 637 431 637 431 638 475 c 2,29,-1
 662 1234 l 1,30,-1
 665 1238 l 1,31,-1
 818 473 l 2,32,33
 827 431 827 431 843 431 c 2,34,-1
 871 431 l 2,35,36
 888 431 888 431 897 473 c 2,37,-1
 1053 1245 l 2,38,39
 1054 1246 1054 1246 1057 1243 c 1,40,-1
 1080 475 l 2,41,42
 1081 431 1081 431 1097 431 c 2,43,-1
 1143 431 l 2,44,45
 1158 431 1158 431 1158 469 c 2,46,-1
 1158 475 l 1,47,-1
 1118 1392 l 2,48,49
 1116 1436 1116 1436 1103 1437 c 1,50,-1
 1039 1437 l 1,51,52
 1021 1435 1021 1435 1012 1394 c 2,53,-1
 861 628 l 2,54,55
 861 626 861 626 858 626 c 128,-1,56
 855 626 855 626 854 628 c 2,57,-1
 702 1400 l 1,58,59
 694 1435 694 1435 672 1437 c 1,60,-1
 616 1437 l 1,61,62
 602 1436 602 1436 600 1392 c 2,63,-1
 561 475 l 2,64,65
 560 431 560 431 577 431 c 2,26,-1
EndSplineSet
EndChar

StartChar: product
Encoding: 8719 8719 397
Width: 881
GlyphClass: 2
Flags: MW
LayerCount: 2
Fore
SplineSet
132 0 m 2,0,-1
 197 0 l 2,1,2
 211 0 211 0 217 8.5 c 128,-1,3
 223 17 223 17 223 47 c 2,4,-1
 223 1325 l 2,5,6
 223 1342 223 1342 229 1342 c 2,7,-1
 650 1342 l 2,8,9
 658 1342 658 1342 658 1323 c 2,10,-1
 658 47 l 2,11,12
 658 17 658 17 664 8.5 c 128,-1,13
 670 0 670 0 685 0 c 2,14,-1
 751 0 l 2,15,16
 763 0 763 0 768.5 8.5 c 128,-1,17
 774 17 774 17 774 47 c 2,18,-1
 774 1391 l 2,19,20
 774 1421 774 1421 768.5 1429.5 c 128,-1,21
 763 1438 763 1438 751 1438 c 2,22,-1
 132 1438 l 2,23,24
 119 1438 119 1438 113.5 1429.5 c 128,-1,25
 108 1421 108 1421 108 1391 c 2,26,-1
 108 47 l 2,27,28
 108 17 108 17 113.5 8.5 c 128,-1,29
 119 0 119 0 132 0 c 2,0,-1
EndSplineSet
EndChar

StartChar: infinity
Encoding: 8734 8734 398
Width: 1089
GlyphClass: 2
Flags: MW
LayerCount: 2
Fore
SplineSet
272 659 m 0,0,1
 140 659 140 659 140 516 c 128,-1,2
 140 373 140 373 272 373 c 0,3,4
 338 373 338 373 393 422 c 0,5,6
 412 439 412 439 443 472 c 128,-1,7
 474 505 474 505 488 517 c 1,8,9
 471 531 471 531 441 561.5 c 0,10,11
 412 592 412 592 392 610 c 0,12,13
 338 659 338 659 272 659 c 0,0,1
542.5 469 m 128,-1,15
 535 469 535 469 518.5 449 c 128,-1,16
 502 429 502 429 477.5 400.5 c 128,-1,17
 453 372 453 372 422 344 c 0,18,19
 291 275 291 275 252 275 c 0,20,21
 249 275 249 275 246 276 c 1,22,23
 138 276 138 276 92 386 c 0,24,25
 68 441 68 441 68 535 c 128,-1,26
 68 629 68 629 117.5 692.5 c 128,-1,27
 167 756 167 756 238 756 c 128,-1,28
 309 756 309 756 366 726.5 c 128,-1,29
 423 697 423 697 455 662 c 128,-1,30
 487 627 487 627 512 597.5 c 128,-1,31
 537 568 537 568 543.5 568 c 128,-1,32
 550 568 550 568 566.5 587.5 c 128,-1,33
 583 607 583 607 608 634.5 c 128,-1,34
 633 662 633 662 665 690 c 0,35,36
 742 756 742 756 832 756 c 128,-1,37
 922 756 922 756 971 692.5 c 128,-1,38
 1020 629 1020 629 1020 516 c 128,-1,39
 1020 403 1020 403 971 339.5 c 128,-1,40
 922 276 922 276 842 276 c 0,41,42
 742 276 742 276 666 344 c 0,43,44
 628 378 628 378 567 449 c 0,45,14
 550 469 550 469 542.5 469 c 128,-1,15
816 373 m 0,46,47
 948 373 948 373 948 516 c 128,-1,48
 948 659 948 659 816 659 c 0,49,50
 752 659 752 659 698 610 c 0,51,52
 678 592 678 592 648 561.5 c 128,-1,53
 618 531 618 531 602 517 c 1,54,55
 615 505 615 505 646 472 c 128,-1,56
 677 439 677 439 696 422 c 0,57,58
 751 373 751 373 816 373 c 0,46,47
EndSplineSet
EndChar

StartChar: integral
Encoding: 8747 8747 399
Width: 447
GlyphClass: 2
Flags: MW
LayerCount: 2
Fore
SplineSet
-49 -85 m 0,0,1
 -49 -106 -49 -106 -30 -106 c 2,2,-1
 -13 -106 l 2,3,4
 64 -106 64 -106 110 -72 c 0,5,6
 197 -7 197 -7 226 291 c 2,7,-1
 292 979 l 2,8,9
 307 1132 307 1132 333 1180.5 c 128,-1,10
 359 1229 359 1229 426 1229 c 2,11,-1
 447 1229 l 2,12,13
 467 1229 467 1229 467 1299 c 0,14,15
 467 1319 467 1319 404 1319 c 0,16,17
 341 1318 341 1318 297 1286 c 0,18,19
 213 1224 213 1224 183 922 c 2,20,-1
 115 234 l 2,21,22
 100 79 100 79 74.5 31 c 128,-1,23
 49 -17 49 -17 -19 -17 c 2,24,-1
 -30 -17 l 2,25,26
 -49 -17 -49 -17 -49 -85 c 0,0,1
EndSplineSet
EndChar

StartChar: approxequal
Encoding: 8776 8776 400
Width: 1345
GlyphClass: 2
Flags: MW
LayerCount: 2
Fore
SplineSet
1015.5 632 m 128,-1,1
 976 616 976 616 920.5 616 c 128,-1,2
 865 616 865 616 785 642 c 0,3,4
 706 668 706 668 642 700 c 0,5,6
 475 784 475 784 390 784 c 0,7,8
 351 784 351 784 319 755 c 128,-1,9
 287 726 287 726 261 685.5 c 0,10,11
 236 645 236 645 218 645 c 0,12,13
 180 645 180 645 180 691 c 0,14,15
 180 707 180 707 186 718 c 0,16,17
 231 805 231 805 275 843.5 c 128,-1,18
 319 882 319 882 385 882 c 128,-1,19
 451 882 451 882 525.5 856 c 128,-1,20
 600 830 600 830 660 798 c 0,21,22
 820 714 820 714 897.5 714.5 c 128,-1,23
 975 715 975 715 1014.5 742 c 128,-1,24
 1054 769 1054 769 1084 845 c 0,25,26
 1084 846 1084 846 1085 848 c 128,-1,27
 1086 850 1086 850 1086.5 851.5 c 128,-1,28
 1087 853 1087 853 1088.5 855.5 c 128,-1,29
 1090 858 1090 858 1091.5 859.5 c 128,-1,30
 1093 861 1093 861 1095 862.5 c 0,31,32
 1098 864 1098 864 1100 865 c 0,33,34
 1108 868 1108 868 1120.5 868 c 128,-1,35
 1133 868 1133 868 1148.5 854.5 c 128,-1,36
 1164 841 1164 841 1164 827.5 c 128,-1,37
 1164 814 1164 814 1152 787 c 128,-1,38
 1140 760 1140 760 1124.5 734.5 c 128,-1,39
 1109 709 1109 709 1082 678.5 c 128,-1,0
 1055 648 1055 648 1015.5 632 c 128,-1,1
1015.5 292 m 128,-1,41
 976 276 976 276 920.5 276 c 128,-1,42
 865 276 865 276 785 302 c 0,43,44
 706 328 706 328 642 360 c 0,45,46
 446 440 446 440 390 444 c 1,47,48
 351 444 351 444 319 415 c 128,-1,49
 287 386 287 386 261 345.5 c 0,50,51
 236 305 236 305 218 305 c 0,52,53
 180 305 180 305 180 351 c 0,54,55
 180 367 180 367 186 378 c 0,56,57
 231 465 231 465 275 503.5 c 128,-1,58
 319 542 319 542 385 542 c 128,-1,59
 451 542 451 542 525.5 516 c 128,-1,60
 600 490 600 490 660 458 c 0,61,62
 820 374 820 374 897.5 374.5 c 128,-1,63
 975 375 975 375 1014.5 402 c 128,-1,64
 1054 429 1054 429 1084 505 c 0,65,66
 1084 506 1084 506 1085 508 c 128,-1,67
 1086 510 1086 510 1086.5 511.5 c 128,-1,68
 1087 513 1087 513 1088.5 515.5 c 128,-1,69
 1090 518 1090 518 1091.5 519.5 c 128,-1,70
 1093 521 1093 521 1095 522.5 c 0,71,72
 1098 524 1098 524 1100 525 c 0,73,74
 1108 528 1108 528 1120.5 528 c 128,-1,75
 1133 528 1133 528 1148.5 514.5 c 128,-1,76
 1164 501 1164 501 1164 487.5 c 128,-1,77
 1164 474 1164 474 1152 447 c 128,-1,78
 1140 420 1140 420 1124.5 394.5 c 128,-1,79
 1109 369 1109 369 1082 338.5 c 128,-1,40
 1055 308 1055 308 1015.5 292 c 128,-1,41
EndSplineSet
EndChar

StartChar: notequal
Encoding: 8800 8800 401
Width: 699
GlyphClass: 2
Flags: MW
LayerCount: 2
Fore
SplineSet
368 460 m 1,0,-1
 440 627 l 1,1,-1
 585 627 l 2,2,3
 598 627 598 627 602 634 c 128,-1,4
 606 641 606 641 606 671 c 2,5,-1
 606 686 l 2,6,7
 606 716 606 716 602 723 c 128,-1,8
 598 730 598 730 585 730 c 2,9,-1
 484 730 l 1,10,-1
 566 918 l 2,11,12
 568 923 568 923 568 932 c 0,13,14
 568 957 568 957 539 957 c 0,15,16
 504 957 504 957 494 924 c 1,17,-1
 409 730 l 1,18,-1
 114 730 l 2,19,20
 101 730 101 730 97 723 c 128,-1,21
 93 716 93 716 93 686 c 2,22,-1
 93 671 l 2,23,24
 93 641 93 641 97 634 c 128,-1,25
 101 627 101 627 114 627 c 2,26,-1
 365 627 l 1,27,-1
 293 460 l 1,28,-1
 114 460 l 2,29,30
 99 460 99 460 96 449 c 128,-1,31
 93 438 93 438 93 417 c 2,32,-1
 93 401 l 2,33,34
 93 371 93 371 97 364 c 128,-1,35
 101 357 101 357 114 357 c 2,36,-1
 248 357 l 1,37,-1
 160 152 l 1,38,39
 156 140 156 140 156 137 c 0,40,41
 156 113 156 113 186.5 113 c 128,-1,42
 217 113 217 113 232 146 c 2,43,-1
 323 357 l 1,44,-1
 585 357 l 2,45,46
 598 357 598 357 602 364 c 128,-1,47
 606 371 606 371 606 401 c 2,48,-1
 606 417 l 2,49,50
 606 447 606 447 602 453.5 c 128,-1,51
 598 460 598 460 585 460 c 2,52,-1
 368 460 l 1,0,-1
EndSplineSet
EndChar

StartChar: lessequal
Encoding: 8804 8804 402
Width: 672
GlyphClass: 2
Flags: MW
LayerCount: 2
Fore
SplineSet
125 107 m 2,0,1
 125 77 125 77 152 77 c 2,2,-1
 514 77 l 2,3,4
 528 77 528 77 534.5 83 c 128,-1,5
 541 89 541 89 541 109 c 2,6,-1
 541 124 l 2,7,8
 541 154 541 154 514 154 c 2,9,-1
 152 154 l 2,10,11
 125 154 125 154 125 122 c 2,12,-1
 125 107 l 2,0,1
462 225 m 0,13,14
 479 225 479 225 479 264 c 2,15,-1
 479 303 l 2,16,17
 478 348 478 348 460 366 c 0,18,19
 450 376 450 376 447 382 c 1,20,-1
 214 608 l 2,21,22
 208 614 208 614 208 622 c 128,-1,23
 208 630 208 630 213 637 c 1,24,-1
 448 895 l 1,25,26
 479 937 479 937 479 982 c 2,27,-1
 479 1010 l 2,28,29
 479 1052 479 1052 462 1052 c 0,30,31
 452 1052 452 1052 444 1041 c 1,32,-1
 165 723 l 1,33,34
 129 674 129 674 129 634 c 2,35,-1
 129 616 l 2,36,37
 129 586 129 586 135.5 569.5 c 128,-1,38
 142 553 142 553 164 524 c 1,39,-1
 445 241 l 1,40,41
 459 225 459 225 462 225 c 0,13,14
EndSplineSet
EndChar

StartChar: greaterequal
Encoding: 8805 8805 403
Width: 672
GlyphClass: 2
Flags: MW
LayerCount: 2
Fore
SplineSet
541 107 m 2,0,1
 541 77 541 77 514 77 c 2,2,-1
 152 77 l 2,3,4
 138 77 138 77 131.5 83 c 128,-1,5
 125 89 125 89 125 109 c 2,6,-1
 125 124 l 2,7,8
 125 154 125 154 152 154 c 2,9,-1
 514 154 l 2,10,11
 541 154 541 154 541 122 c 2,12,-1
 541 107 l 2,0,1
204 225 m 0,13,14
 187 225 187 225 187 264 c 2,15,-1
 187 303 l 2,16,17
 188 348 188 348 206 366 c 0,18,19
 216 376 216 376 219 382 c 1,20,-1
 452 608 l 2,21,22
 458 614 458 614 458 622 c 128,-1,23
 458 630 458 630 453 637 c 1,24,-1
 218 895 l 1,25,26
 187 937 187 937 187 982 c 2,27,-1
 187 1010 l 2,28,29
 187 1052 187 1052 204 1052 c 0,30,31
 214 1052 214 1052 222 1041 c 1,32,-1
 501 723 l 1,33,34
 537 674 537 674 537 634 c 2,35,-1
 537 616 l 2,36,37
 537 586 537 586 530.5 569.5 c 128,-1,38
 524 553 524 553 502 524 c 1,39,-1
 221 241 l 1,40,41
 207 225 207 225 204 225 c 0,13,14
EndSplineSet
EndChar

StartChar: lozenge
Encoding: 9674 9674 404
Width: 764
GlyphClass: 2
Flags: MW
LayerCount: 2
Fore
SplineSet
387 91 m 1,0,1
 384 91 384 91 384 94 c 2,2,-1
 232 699 l 1,3,-1
 386 1296 l 2,4,5
 388 1300 388 1300 389 1300 c 2,6,-1
 391 1296 l 1,7,-1
 530 707 l 1,8,-1
 388 94 l 1,9,-1
 387 91 l 1,0,1
648 691 m 1,10,-1
 650 706 l 2,11,12
 650 708 650 708 648 716 c 2,13,-1
 466 1383 l 2,14,15
 452 1435 452 1435 430 1438 c 1,16,-1
 345 1438 l 1,17,18
 323 1434 323 1434 308 1383 c 2,19,-1
 118 716 l 2,20,21
 116 710 116 710 116 702.5 c 128,-1,22
 116 695 116 695 118 691 c 2,23,-1
 308 8 l 2,24,25
 322 -44 322 -44 345 -48 c 1,26,-1
 430 -48 l 1,27,28
 452 -44 452 -44 466 8 c 2,29,-1
 648 691 l 1,10,-1
EndSplineSet
EndChar

StartChar: uniFB00
Encoding: 64256 64256 405
Width: 868
GlyphClass: 2
Flags: MW
LayerCount: 2
Fore
SplineSet
563 72 m 2,0,1
 563 0 563 0 589 0 c 2,2,-1
 644 0 l 2,3,4
 669 0 669 0 669 72 c 2,5,-1
 669 887 l 2,6,7
 669 912 669 912 678 912 c 2,8,-1
 812 912 l 2,9,10
 834 912 834 912 834 940 c 2,11,-1
 834 980 l 2,12,13
 834 1006 834 1006 812 1006 c 2,14,-1
 672 1006 l 2,15,16
 669 1006 669 1006 669 1012 c 2,17,-1
 669 1093 l 2,18,19
 669 1248 669 1248 688.5 1296 c 128,-1,20
 708 1344 708 1344 775 1344 c 2,21,-1
 828 1344 l 2,22,23
 838 1344 838 1344 839.5 1349 c 128,-1,24
 841 1354 841 1354 841 1380 c 2,25,-1
 841 1409 l 2,26,27
 841 1433 841 1433 834.5 1434.5 c 128,-1,28
 828 1436 828 1436 820.5 1437.5 c 128,-1,29
 813 1439 813 1439 747 1439 c 128,-1,30
 681 1439 681 1439 640.5 1407 c 128,-1,31
 600 1375 600 1375 581.5 1289.5 c 128,-1,32
 563 1204 563 1204 563 1036 c 0,33,34
 563 1006 563 1006 555 1006 c 2,35,-1
 238 1006 l 2,36,37
 235 1006 235 1006 235 1012 c 2,38,-1
 235 1093 l 2,39,40
 235 1248 235 1248 254.5 1296 c 128,-1,41
 274 1344 274 1344 341 1344 c 2,42,-1
 394 1344 l 2,43,44
 404 1344 404 1344 405.5 1349 c 128,-1,45
 407 1354 407 1354 407 1380 c 2,46,-1
 407 1409 l 2,47,48
 407 1433 407 1433 400.5 1434.5 c 128,-1,49
 394 1436 394 1436 386.5 1437.5 c 128,-1,50
 379 1439 379 1439 313 1439 c 128,-1,51
 247 1439 247 1439 206.5 1407 c 128,-1,52
 166 1375 166 1375 147.5 1289.5 c 128,-1,53
 129 1204 129 1204 129 1036 c 0,54,55
 129 1006 129 1006 121 1006 c 2,56,-1
 71 1006 l 2,57,58
 47 1006 47 1006 47 977 c 2,59,-1
 47 940 l 2,60,61
 47 912 47 912 71 912 c 2,62,-1
 121 912 l 2,63,64
 129 912 129 912 129 887 c 2,65,-1
 129 72 l 2,66,67
 129 0 129 0 155 0 c 2,68,-1
 210 0 l 2,69,70
 235 0 235 0 235 72 c 2,71,-1
 235 887 l 2,72,73
 235 912 235 912 244 912 c 2,74,-1
 555 912 l 2,75,76
 563 912 563 912 563 887 c 2,77,-1
 563 72 l 2,0,1
EndSplineSet
EndChar

StartChar: uniFB01
Encoding: 64257 64257 406
Width: 744
GlyphClass: 2
Flags: MW
LayerCount: 2
Fore
SplineSet
533 1223 m 2,0,1
 533 1174 533 1174 556 1174 c 2,2,-1
 632 1174 l 2,3,4
 655 1174 655 1174 655 1223 c 2,5,-1
 655 1295 l 2,6,7
 655 1344 655 1344 632 1344 c 2,8,-1
 556 1344 l 2,9,10
 533 1344 533 1344 533 1295 c 2,11,-1
 533 1223 l 2,0,1
541 53 m 2,12,13
 541 0 541 0 564 0 c 2,14,-1
 624 0 l 2,15,16
 647 0 647 0 647 53 c 2,17,-1
 647 953 l 2,18,19
 647 1006 647 1006 624 1006 c 2,20,-1
 238 1006 l 2,21,22
 235 1006 235 1006 235 1012 c 2,23,-1
 235 1093 l 2,24,25
 235 1248 235 1248 254.5 1296 c 128,-1,26
 274 1344 274 1344 341 1344 c 2,27,-1
 394 1344 l 2,28,29
 404 1344 404 1344 405.5 1349 c 128,-1,30
 407 1354 407 1354 407 1380 c 2,31,-1
 407 1409 l 2,32,33
 407 1433 407 1433 400.5 1434.5 c 128,-1,34
 394 1436 394 1436 386.5 1437.5 c 128,-1,35
 379 1439 379 1439 313 1439 c 128,-1,36
 247 1439 247 1439 206.5 1407 c 128,-1,37
 166 1375 166 1375 147.5 1289.5 c 128,-1,38
 129 1204 129 1204 129 1036 c 0,39,40
 129 1006 129 1006 121 1006 c 2,41,-1
 71 1006 l 2,42,43
 47 1006 47 1006 47 977 c 2,44,-1
 47 940 l 2,45,46
 47 912 47 912 71 912 c 2,47,-1
 121 912 l 2,48,49
 129 912 129 912 129 887 c 2,50,-1
 129 72 l 2,51,52
 129 0 129 0 155 0 c 2,53,-1
 210 0 l 2,54,55
 235 0 235 0 235 72 c 2,56,-1
 235 887 l 2,57,58
 235 912 235 912 244 912 c 2,59,-1
 541 912 l 1,60,-1
 541 53 l 2,12,13
EndSplineSet
EndChar

StartChar: uniFB02
Encoding: 64258 64258 407
Width: 743
GlyphClass: 2
Flags: MW
LayerCount: 2
Fore
SplineSet
400 980 m 2,0,1
 400 1006 400 1006 378 1006 c 2,2,-1
 238 1006 l 2,3,4
 235 1006 235 1006 235 1012 c 2,5,-1
 235 1093 l 2,6,7
 235 1248 235 1248 254.5 1296.5 c 128,-1,8
 274 1345 274 1345 341 1345 c 2,9,-1
 543 1345 l 1,10,-1
 543 63 l 2,11,12
 543 0 543 0 566 0 c 2,13,-1
 626 0 l 2,14,15
 649 0 649 0 649 63 c 2,16,-1
 649 1373 l 2,17,18
 649 1438 649 1438 626 1438 c 2,19,-1
 326 1438 l 2,20,21
 247 1438 247 1438 206.5 1406 c 128,-1,22
 166 1374 166 1374 147.5 1289 c 128,-1,23
 129 1204 129 1204 129 1036 c 0,24,25
 129 1006 129 1006 121 1006 c 2,26,-1
 71 1006 l 2,27,28
 47 1006 47 1006 47 977 c 2,29,-1
 47 940 l 2,30,31
 47 912 47 912 71 912 c 2,32,-1
 121 912 l 2,33,34
 129 912 129 912 129 887 c 2,35,-1
 129 72 l 2,36,37
 129 0 129 0 155 0 c 2,38,-1
 210 0 l 2,39,40
 235 0 235 0 235 72 c 2,41,-1
 235 887 l 2,42,43
 235 912 235 912 244 912 c 2,44,-1
 378 912 l 2,45,46
 400 912 400 912 400 940 c 2,47,-1
 400 980 l 2,0,1
EndSplineSet
EndChar

StartChar: Delta
Encoding: 916 916 408
Width: 764
GlyphClass: 2
Flags: MW
LayerCount: 2
Fore
SplineSet
252 339 m 2,0,1
 241 339 241 339 241 350 c 0,2,3
 241 354 241 354 242 359 c 2,4,-1
 385 1208 l 2,5,6
 385 1212 385 1212 388 1212 c 1,7,8
 388 1210 388 1210 389 1208 c 2,9,-1
 523 354 l 2,10,11
 524 353 524 353 524 346 c 0,12,13
 524 339 524 339 521 339 c 2,14,-1
 252 339 l 2,0,1
128 244 m 2,15,-1
 643 244 l 2,16,17
 659 244 659 244 659 274 c 0,18,19
 659 278 659 278 656.5 285.5 c 128,-1,20
 654 293 654 293 653 300 c 2,21,-1
 469 1295 l 2,22,23
 459 1347 459 1347 433 1350 c 1,24,-1
 343 1350 l 1,25,26
 316 1347 316 1347 307 1295 c 1,27,-1
 114 300 l 2,28,29
 113 294 113 294 113 286 c 2,30,-1
 113 275 l 2,31,32
 113 244 113 244 128 244 c 2,15,-1
EndSplineSet
EndChar

StartChar: uni030F
Encoding: 783 783 409
Width: 595
GlyphClass: 2
Flags: MW
LayerCount: 2
Fore
SplineSet
403 1167 m 2,0,-1
 416 1167 l 2,1,2
 428 1167 428 1167 428 1179.5 c 128,-1,3
 428 1192 428 1192 425 1234 c 2,4,-1
 404 1484 l 1,5,6
 401 1539 401 1539 371 1539 c 2,7,-1
 324 1539 l 2,8,9
 305 1539 305 1539 305 1516.5 c 128,-1,10
 305 1494 305 1494 310 1474 c 2,11,-1
 380 1206 l 2,12,13
 380 1204 380 1204 384 1187 c 0,14,15
 390 1167 390 1167 403 1167 c 2,0,-1
207 1167 m 2,16,-1
 220 1167 l 2,17,18
 230 1167 230 1167 230 1179.5 c 128,-1,19
 230 1192 230 1192 227 1234 c 2,20,-1
 206 1484 l 2,21,22
 202 1539 202 1539 172 1539 c 2,23,-1
 125 1539 l 2,24,25
 106 1539 106 1539 106 1516.5 c 128,-1,26
 106 1494 106 1494 111 1474 c 2,27,-1
 182 1206 l 1,28,29
 185 1200 185 1200 188 1189.5 c 0,30,31
 192 1178 192 1178 194 1174 c 0,32,33
 198 1166 198 1166 207 1167 c 2,16,-1
EndSplineSet
EndChar

StartChar: uniFB03
Encoding: 64259 64259 410
Width: 1178
GlyphClass: 2
Flags: MW
LayerCount: 2
Fore
SplineSet
967 1223 m 2,0,1
 967 1174 967 1174 990 1174 c 2,2,-1
 1066 1174 l 2,3,4
 1089 1174 1089 1174 1089 1223 c 2,5,-1
 1089 1295 l 2,6,7
 1089 1344 1089 1344 1066 1344 c 2,8,-1
 990 1344 l 2,9,10
 967 1344 967 1344 967 1295 c 2,11,-1
 967 1223 l 2,0,1
975 53 m 2,12,13
 975 0 975 0 998 0 c 2,14,-1
 1058 0 l 2,15,16
 1081 0 1081 0 1081 53 c 2,17,-1
 1081 953 l 2,18,19
 1081 1006 1081 1006 1058 1006 c 2,20,-1
 672 1006 l 2,21,22
 669 1006 669 1006 669 1012 c 2,23,-1
 669 1093 l 2,24,25
 669 1248 669 1248 688.5 1296 c 128,-1,26
 708 1344 708 1344 775 1344 c 2,27,-1
 828 1344 l 2,28,29
 838 1344 838 1344 839.5 1349 c 128,-1,30
 841 1354 841 1354 841 1380 c 2,31,-1
 841 1409 l 2,32,33
 841 1433 841 1433 834.5 1434.5 c 128,-1,34
 828 1436 828 1436 820.5 1437.5 c 128,-1,35
 813 1439 813 1439 747 1439 c 128,-1,36
 681 1439 681 1439 640.5 1407 c 128,-1,37
 600 1375 600 1375 581.5 1289.5 c 128,-1,38
 563 1204 563 1204 563 1036 c 0,39,40
 563 1006 563 1006 555 1006 c 2,41,-1
 238 1006 l 2,42,43
 235 1006 235 1006 235 1012 c 2,44,-1
 235 1093 l 2,45,46
 235 1248 235 1248 254.5 1296 c 128,-1,47
 274 1344 274 1344 341 1344 c 2,48,-1
 394 1344 l 2,49,50
 404 1344 404 1344 405.5 1349 c 128,-1,51
 407 1354 407 1354 407 1380 c 2,52,-1
 407 1409 l 2,53,54
 407 1433 407 1433 400.5 1434.5 c 128,-1,55
 394 1436 394 1436 386.5 1437.5 c 128,-1,56
 379 1439 379 1439 313 1439 c 128,-1,57
 247 1439 247 1439 206.5 1407 c 128,-1,58
 166 1375 166 1375 147.5 1289.5 c 128,-1,59
 129 1204 129 1204 129 1036 c 0,60,61
 129 1006 129 1006 121 1006 c 2,62,-1
 71 1006 l 2,63,64
 47 1006 47 1006 47 977 c 2,65,-1
 47 940 l 2,66,67
 47 912 47 912 71 912 c 2,68,-1
 121 912 l 2,69,70
 129 912 129 912 129 887 c 2,71,-1
 129 72 l 2,72,73
 129 0 129 0 155 0 c 2,74,-1
 210 0 l 2,75,76
 235 0 235 0 235 72 c 2,77,-1
 235 887 l 2,78,79
 235 912 235 912 244 912 c 2,80,-1
 555 912 l 2,81,82
 563 912 563 912 563 887 c 2,83,-1
 563 72 l 2,84,85
 563 0 563 0 589 0 c 2,86,-1
 644 0 l 2,87,88
 669 0 669 0 669 72 c 2,89,-1
 669 887 l 2,90,91
 669 912 669 912 678 912 c 2,92,-1
 975 912 l 1,93,-1
 975 53 l 2,12,13
EndSplineSet
EndChar

StartChar: minus
Encoding: 8722 8722 411
Width: 689
GlyphClass: 2
Flags: MW
LayerCount: 2
Fore
SplineSet
104 633 m 2,0,-1
 585 633 l 2,1,2
 618 633 618 633 618 672 c 2,3,-1
 618 694 l 2,4,5
 618 732 618 732 585 732 c 2,6,-1
 104 732 l 2,7,8
 71 732 71 732 71 693 c 2,9,-1
 71 670 l 2,10,11
 71 633 71 633 104 633 c 2,0,-1
EndSplineSet
EndChar

StartChar: uni0311
Encoding: 785 785 415
Width: 1277
GlyphClass: 2
Flags: MW
LayerCount: 2
Fore
SplineSet
428 1294 m 1,0,-1
 495 1294 l 1,1,2
 495 1340 495 1340 527 1364.5 c 0,3,4
 560 1389 560 1389 604 1389 c 128,-1,5
 648 1389 648 1389 679.5 1364.5 c 128,-1,6
 711 1340 711 1340 711 1294 c 1,7,-1
 779 1294 l 1,8,9
 779 1378 779 1378 727.5 1423 c 128,-1,10
 676 1468 676 1468 604 1468 c 128,-1,11
 532 1468 532 1468 480 1422.5 c 128,-1,12
 428 1377 428 1377 428 1294 c 1,0,-1
EndSplineSet
EndChar
